{"glyphs":{"0":{"ha":781,"x_min":78,"x_max":702,"o":"m 702 572 l 702 422 q 664 165 702 260 q 556 28 626 69 q 391 -14 486 -14 q 226 28 296 -14 q 117 165 155 69 q 78 422 78 260 l 78 572 q 116 827 78 734 q 225 961 155 921 q 389 1001 295 1001 q 555 961 485 1001 q 664 827 625 921 q 702 572 702 734 m 576 401 l 576 593 q 528 829 576 760 q 389 899 481 899 q 252 829 300 899 q 204 593 204 760 l 204 401 q 253 163 204 236 q 391 90 301 90 q 529 163 483 90 q 576 401 576 236 z "},"1":{"ha":781,"x_min":116,"x_max":494,"o":"m 494 993 l 494 0 l 369 0 l 369 836 l 116 744 l 116 857 l 475 993 l 494 993 z "},"2":{"ha":781,"x_min":64,"x_max":729,"o":"m 729 103 l 729 0 l 83 0 l 83 90 l 406 450 q 499 563 466 517 q 545 647 532 610 q 558 722 558 684 q 513 846 558 795 q 386 898 469 898 q 238 842 287 898 q 189 697 189 786 l 64 697 q 100 850 64 781 q 209 960 137 919 q 386 1001 281 1001 q 605 928 526 1001 q 684 737 684 856 q 629 561 684 650 q 498 390 574 473 l 234 103 l 729 103 z "},"3":{"ha":781,"x_min":64,"x_max":690,"o":"m 265 452 l 265 555 l 355 555 q 501 604 453 555 q 549 724 549 652 q 377 898 549 898 q 248 852 297 898 q 198 729 198 806 l 73 729 q 111 866 73 804 q 217 964 149 928 q 377 1001 286 1001 q 593 930 511 1001 q 675 722 675 859 q 638 604 675 667 q 520 507 602 542 q 623 449 586 486 q 675 366 660 411 q 690 275 690 320 q 649 119 690 183 q 538 20 608 54 q 378 -14 467 -14 q 221 19 292 -14 q 107 112 150 51 q 64 261 64 174 l 190 261 q 240 136 190 183 q 378 90 291 90 q 514 135 465 90 q 564 273 564 180 q 507 409 564 365 q 355 452 450 452 l 265 452 z "},"4":{"ha":781,"x_min":36,"x_max":749,"o":"m 749 332 l 749 229 l 612 229 l 612 0 l 486 0 l 486 229 l 36 229 l 36 303 l 478 987 l 612 987 l 612 332 l 749 332 m 178 332 l 486 332 l 486 817 l 471 789 l 178 332 z "},"5":{"ha":781,"x_min":104,"x_max":726,"o":"m 241 470 l 140 496 l 190 987 l 696 987 l 696 871 l 296 871 l 267 603 q 335 632 294 618 q 431 646 377 646 q 647 556 568 646 q 726 315 726 466 q 691 146 726 220 q 588 29 657 72 q 413 -14 519 -14 q 266 16 333 -14 q 156 107 199 46 q 104 260 113 168 l 224 260 q 284 133 235 176 q 413 90 333 90 q 551 150 502 90 q 600 313 600 210 q 548 470 600 406 q 402 533 497 533 q 307 516 339 533 q 241 470 275 499 z "},"6":{"ha":781,"x_min":90,"x_max":714,"o":"m 564 989 l 574 989 l 574 882 l 564 882 q 370 836 444 882 q 261 716 297 790 q 218 559 226 643 q 314 626 259 605 q 431 648 368 648 q 592 600 530 648 q 684 478 654 553 q 714 322 714 404 q 679 153 714 229 q 576 32 644 77 q 408 -14 508 -14 q 268 19 328 -14 q 169 107 208 52 q 110 229 130 162 q 90 366 90 296 l 90 425 q 111 629 90 529 q 184 811 132 730 q 328 941 236 892 q 564 989 420 989 m 216 361 q 243 213 216 274 q 314 121 271 153 q 408 90 358 90 q 542 154 494 90 q 590 316 590 218 q 571 427 590 375 q 511 512 551 479 q 410 544 471 544 q 291 505 345 544 q 216 409 237 465 l 216 361 z "},"7":{"ha":781,"x_min":53,"x_max":720,"o":"m 720 987 l 720 917 l 311 0 l 179 0 l 587 884 l 53 884 l 53 987 l 720 987 z "},"8":{"ha":781,"x_min":77,"x_max":705,"o":"m 705 267 q 663 114 705 177 q 550 19 621 52 q 391 -14 479 -14 q 231 19 302 -14 q 118 114 159 52 q 77 267 77 177 q 121 413 77 350 q 241 509 165 477 q 137 600 176 541 q 99 730 99 658 q 137 877 99 817 q 240 969 174 937 q 390 1001 306 1001 q 541 969 475 1001 q 644 877 606 937 q 682 730 682 817 q 642 599 682 657 q 537 509 603 541 q 659 413 614 477 q 705 267 705 349 m 556 728 q 510 850 556 802 q 390 898 464 898 q 271 852 316 898 q 225 728 225 806 q 271 606 225 652 q 391 559 316 559 q 510 606 465 559 q 556 728 556 652 m 578 270 q 526 405 578 353 q 389 457 474 457 q 253 405 303 457 q 202 270 202 353 q 253 137 202 184 q 391 90 303 90 q 528 137 478 90 q 578 270 578 184 z "},"9":{"ha":781,"x_min":68,"x_max":689,"o":"m 207 105 l 220 105 q 388 132 322 105 q 491 206 454 159 q 545 312 529 253 q 564 435 561 371 q 469 359 524 389 q 350 330 414 330 q 190 379 252 330 q 98 504 127 428 q 68 660 68 579 q 102 831 68 754 q 205 955 137 909 q 374 1001 274 1001 q 519 967 459 1001 q 616 876 578 933 q 671 748 654 819 q 689 602 689 677 l 689 556 q 679 400 689 479 q 642 250 669 321 q 562 121 614 178 q 426 32 510 64 q 220 -1 342 -1 l 207 -1 l 207 105 m 191 667 q 211 555 191 608 q 270 468 231 502 q 370 435 310 435 q 487 473 435 435 q 564 569 540 512 l 564 618 q 538 771 564 709 q 468 865 511 833 q 374 897 425 897 q 239 831 287 897 q 191 667 191 766 z "},"\u0000":{"ha":0,"x_min":0,"x_max":0,"o":""},"A":{"ha":906,"x_min":20,"x_max":888,"o":"m 754 0 l 660 258 l 247 258 l 153 0 l 20 0 l 396 987 l 511 987 l 888 0 l 754 0 m 286 366 l 621 366 l 454 826 l 286 366 z "},"Æ":{"ha":1298,"x_min":-10,"x_max":1275,"o":"m 1275 103 l 1275 0 l 675 0 l 665 239 l 283 239 l 144 0 l -10 0 l 587 987 l 1233 987 l 1233 884 l 764 884 l 778 566 l 1178 566 l 1178 463 l 782 463 l 798 103 l 1275 103 m 351 358 l 661 358 l 640 855 l 351 358 z "},"Ǽ":{"ha":1298,"x_min":-10,"x_max":1275,"o":"m 1275 103 l 1275 0 l 675 0 l 665 239 l 283 239 l 144 0 l -10 0 l 587 987 l 1233 987 l 1233 884 l 764 884 l 778 566 l 1178 566 l 1178 463 l 782 463 l 798 103 l 1275 103 m 351 358 l 661 358 l 640 855 l 351 358 m 568 1061 l 699 1260 l 850 1260 l 669 1061 l 568 1061 z "},"Á":{"ha":906,"x_min":20,"x_max":888,"o":"m 754 0 l 660 258 l 247 258 l 153 0 l 20 0 l 396 987 l 511 987 l 888 0 l 754 0 m 286 366 l 621 366 l 454 826 l 286 366 m 387 1053 l 518 1253 l 669 1253 l 488 1053 l 387 1053 z "},"Ă":{"ha":906,"x_min":20,"x_max":888,"o":"m 754 0 l 660 258 l 247 258 l 153 0 l 20 0 l 396 987 l 511 987 l 888 0 l 754 0 m 286 366 l 621 366 l 454 826 l 286 366 m 557 1225 l 659 1225 q 604 1094 659 1145 q 456 1044 550 1044 q 308 1094 362 1044 q 253 1225 253 1145 l 355 1225 q 378 1154 355 1185 q 456 1124 401 1124 q 534 1154 511 1124 q 557 1225 557 1185 z "},"Â":{"ha":906,"x_min":20,"x_max":888,"o":"m 754 0 l 660 258 l 247 258 l 153 0 l 20 0 l 396 987 l 511 987 l 888 0 l 754 0 m 286 366 l 621 366 l 454 826 l 286 366 m 494 1253 l 662 1067 l 662 1061 l 557 1061 l 456 1175 l 355 1061 l 252 1061 l 252 1068 l 418 1253 l 494 1253 z "},"Ä":{"ha":906,"x_min":20,"x_max":888,"o":"m 754 0 l 660 258 l 247 258 l 153 0 l 20 0 l 396 987 l 511 987 l 888 0 l 754 0 m 286 366 l 621 366 l 454 826 l 286 366 m 237 1141 q 256 1192 237 1171 q 311 1213 275 1213 q 367 1192 348 1213 q 386 1141 386 1171 q 367 1091 386 1112 q 311 1070 348 1070 q 256 1091 275 1070 q 237 1141 237 1112 m 530 1139 q 548 1191 530 1170 q 604 1212 567 1212 q 659 1191 640 1212 q 678 1139 678 1170 q 659 1089 678 1110 q 604 1069 640 1069 q 548 1089 567 1069 q 530 1139 530 1110 z "},"À":{"ha":906,"x_min":20,"x_max":888,"o":"m 754 0 l 660 258 l 247 258 l 153 0 l 20 0 l 396 987 l 511 987 l 888 0 l 754 0 m 286 366 l 621 366 l 454 826 l 286 366 m 396 1253 l 527 1053 l 419 1053 l 244 1253 l 396 1253 z "},"Ā":{"ha":906,"x_min":20,"x_max":888,"o":"m 754 0 l 660 258 l 247 258 l 153 0 l 20 0 l 396 987 l 511 987 l 888 0 l 754 0 m 286 366 l 621 366 l 454 826 l 286 366 m 687 1196 l 687 1100 l 232 1100 l 232 1196 l 687 1196 z "},"Ą":{"ha":906,"x_min":20,"x_max":888,"o":"m 20 0 l 396 987 l 511 987 l 888 0 l 863 0 q 783 -70 819 -33 q 747 -151 747 -106 q 759 -186 747 -173 q 800 -200 770 -200 q 840 -194 822 -200 q 867 -182 857 -187 l 877 -264 q 834 -284 860 -275 q 768 -294 808 -294 q 675 -261 713 -294 q 637 -165 637 -229 q 665 -76 637 -120 q 752 6 692 -33 l 660 258 l 247 258 l 153 0 l 20 0 m 286 366 l 621 366 l 454 826 l 286 366 z "},"Å":{"ha":906,"x_min":20,"x_max":888,"o":"m 754 0 l 660 258 l 247 258 l 153 0 l 20 0 l 396 987 l 511 987 l 888 0 l 754 0 m 286 366 l 621 366 l 454 826 l 286 366 m 310 1174 q 352 1274 310 1232 q 456 1315 394 1315 q 559 1274 517 1315 q 602 1174 602 1232 q 559 1075 602 1114 q 456 1036 517 1036 q 352 1075 394 1036 q 310 1174 310 1114 m 377 1174 q 399 1120 377 1144 q 456 1096 421 1096 q 512 1119 490 1096 q 534 1174 534 1143 q 512 1230 534 1206 q 456 1254 490 1254 q 399 1230 421 1254 q 377 1174 377 1206 z "},"Ǻ":{"ha":906,"x_min":20,"x_max":888,"o":"m 754 0 l 660 258 l 247 258 l 153 0 l 20 0 l 396 987 l 511 987 l 888 0 l 754 0 m 286 366 l 621 366 l 454 826 l 286 366 m 429 1192 l 528 1316 l 656 1316 l 507 1192 l 429 1192 m 342 1045 q 376 1127 342 1095 q 458 1158 410 1158 q 538 1127 505 1158 q 572 1045 572 1095 q 538 965 572 996 q 458 935 505 935 q 376 965 410 935 q 342 1045 342 996 m 399 1045 q 416 1005 399 1021 q 458 988 434 988 q 498 1005 481 988 q 515 1045 515 1021 q 498 1088 515 1071 q 458 1105 481 1105 q 416 1088 434 1105 q 399 1045 399 1071 z "},"Ã":{"ha":906,"x_min":20,"x_max":888,"o":"m 754 0 l 660 258 l 247 258 l 153 0 l 20 0 l 396 987 l 511 987 l 888 0 l 754 0 m 286 366 l 621 366 l 454 826 l 286 366 m 612 1239 l 696 1232 q 654 1112 696 1157 q 550 1067 612 1067 q 493 1077 515 1067 q 453 1099 471 1086 q 416 1121 435 1112 q 368 1131 397 1131 q 320 1109 340 1131 q 301 1056 301 1088 l 216 1060 q 258 1181 216 1135 q 362 1227 300 1227 q 428 1212 401 1227 q 481 1179 455 1196 q 544 1163 508 1163 q 592 1185 572 1163 q 612 1239 612 1207 z "},"B":{"ha":865,"x_min":115,"x_max":787,"o":"m 460 0 l 115 0 l 115 987 l 438 987 q 675 925 590 987 q 760 724 760 862 q 721 603 760 656 q 614 520 682 549 q 742 433 698 497 q 787 285 787 368 q 697 73 787 146 q 460 0 608 0 m 438 880 l 245 880 l 245 567 l 442 567 q 578 609 527 567 q 629 726 629 651 q 582 844 629 807 q 438 880 535 880 m 656 283 q 611 414 656 366 q 467 462 566 462 l 245 462 l 245 106 l 460 106 q 605 154 553 106 q 656 283 656 202 z "},"C":{"ha":904,"x_min":81,"x_max":841,"o":"m 711 314 l 841 314 q 787 146 831 220 q 665 30 744 73 q 467 -14 585 -14 q 264 43 351 -14 q 130 203 178 100 q 81 444 81 306 l 81 543 q 130 784 81 681 q 267 944 178 887 q 478 1001 356 1001 q 667 959 590 1001 q 788 843 745 917 q 841 671 831 768 l 711 671 q 644 834 696 774 q 478 894 593 894 q 279 798 347 894 q 212 544 212 701 l 212 444 q 239 268 212 347 q 322 140 266 188 q 467 93 379 93 q 600 119 550 93 q 674 195 649 146 q 711 314 700 245 z "},"\r":{"ha":345,"x_min":0,"x_max":0,"o":""},"Ć":{"ha":904,"x_min":81,"x_max":841,"o":"m 711 314 l 841 314 q 787 146 831 220 q 665 30 744 73 q 467 -14 585 -14 q 264 43 351 -14 q 130 203 178 100 q 81 444 81 306 l 81 543 q 130 784 81 681 q 267 944 178 887 q 478 1001 356 1001 q 667 959 590 1001 q 788 843 745 917 q 841 671 831 768 l 711 671 q 644 834 696 774 q 478 894 593 894 q 279 798 347 894 q 212 544 212 701 l 212 444 q 239 268 212 347 q 322 140 266 188 q 467 93 379 93 q 600 119 550 93 q 674 195 649 146 q 711 314 700 245 m 392 1075 l 524 1274 l 675 1274 l 493 1075 l 392 1075 z "},"Č":{"ha":904,"x_min":81,"x_max":841,"o":"m 711 314 l 841 314 q 787 146 831 220 q 665 30 744 73 q 467 -14 585 -14 q 264 43 351 -14 q 130 203 178 100 q 81 444 81 306 l 81 543 q 130 784 81 681 q 267 944 178 887 q 478 1001 356 1001 q 667 959 590 1001 q 788 843 745 917 q 841 671 831 768 l 711 671 q 644 834 696 774 q 478 894 593 894 q 279 798 347 894 q 212 544 212 701 l 212 444 q 239 268 212 347 q 322 140 266 188 q 467 93 379 93 q 600 119 550 93 q 674 195 649 146 q 711 314 700 245 m 358 1274 l 460 1158 l 563 1274 l 671 1274 l 671 1267 l 499 1081 l 422 1081 l 252 1267 l 252 1274 l 358 1274 z "},"Ç":{"ha":904,"x_min":81,"x_max":841,"o":"m 711 314 l 841 314 q 787 146 831 220 q 665 30 744 73 q 467 -14 585 -14 q 264 43 351 -14 q 130 203 178 100 q 81 444 81 306 l 81 543 q 130 784 81 681 q 267 944 178 887 q 478 1001 356 1001 q 667 959 590 1001 q 788 843 745 917 q 841 671 831 768 l 711 671 q 644 834 696 774 q 478 894 593 894 q 279 798 347 894 q 212 544 212 701 l 212 444 q 239 268 212 347 q 322 140 266 188 q 467 93 379 93 q 600 119 550 93 q 674 195 649 146 q 711 314 700 245 m 420 -7 l 510 -7 l 502 -43 q 573 -75 541 -50 q 606 -160 606 -101 q 553 -263 606 -224 q 400 -302 501 -302 l 395 -229 q 475 -214 442 -229 q 508 -162 508 -198 q 482 -116 508 -128 q 399 -98 456 -103 l 420 -7 z "},"Ĉ":{"ha":904,"x_min":81,"x_max":841,"o":"m 711 314 l 841 314 q 787 146 831 220 q 665 30 744 73 q 467 -14 585 -14 q 264 43 351 -14 q 130 203 178 100 q 81 444 81 306 l 81 543 q 130 784 81 681 q 267 944 178 887 q 478 1001 356 1001 q 667 959 590 1001 q 788 843 745 917 q 841 671 831 768 l 711 671 q 644 834 696 774 q 478 894 593 894 q 279 798 347 894 q 212 544 212 701 l 212 444 q 239 268 212 347 q 322 140 266 188 q 467 93 379 93 q 600 119 550 93 q 674 195 649 146 q 711 314 700 245 m 499 1274 l 667 1089 l 667 1082 l 563 1082 l 461 1197 l 360 1082 l 257 1082 l 257 1090 l 423 1274 l 499 1274 z "},"D":{"ha":911,"x_min":115,"x_max":829,"o":"m 382 0 l 115 0 l 115 987 l 394 987 q 622 931 524 987 q 774 770 720 874 q 829 523 829 666 l 829 464 q 774 217 829 321 q 619 57 720 113 q 382 0 519 0 m 394 880 l 245 880 l 245 106 l 382 106 q 620 204 540 106 q 700 464 700 302 l 700 524 q 620 787 700 694 q 394 880 540 880 z "},"Ď":{"ha":911,"x_min":115,"x_max":829,"o":"m 382 0 l 115 0 l 115 987 l 394 987 q 622 931 524 987 q 774 770 720 874 q 829 523 829 666 l 829 464 q 774 217 829 321 q 619 57 720 113 q 382 0 519 0 m 394 880 l 245 880 l 245 106 l 382 106 q 620 204 540 106 q 700 464 700 302 l 700 524 q 620 787 700 694 q 394 880 540 880 m 310 1259 l 412 1144 l 515 1259 l 623 1259 l 623 1253 l 451 1067 l 374 1067 l 204 1253 l 204 1259 l 310 1259 z "},"Đ":{"ha":932,"x_min":25,"x_max":850,"o":"m 402 0 l 135 0 l 135 451 l 25 451 l 25 554 l 135 554 l 135 987 l 414 987 q 642 931 544 987 q 795 770 740 874 q 850 523 850 666 l 850 464 q 795 217 850 321 q 640 57 740 113 q 402 0 539 0 m 457 554 l 457 451 l 266 451 l 266 106 l 402 106 q 640 204 560 106 q 720 464 720 302 l 720 524 q 640 787 720 694 q 414 880 560 880 l 266 880 l 266 554 l 457 554 z "},"∆":{"ha":979,"x_min":22,"x_max":947,"o":"m 22 0 l 438 987 l 553 987 l 947 0 l 22 0 m 199 106 l 772 106 l 494 827 l 199 106 z "},"E":{"ha":789,"x_min":115,"x_max":742,"o":"m 742 106 l 742 0 l 115 0 l 115 987 l 735 987 l 735 880 l 245 880 l 245 563 l 673 563 l 673 456 l 245 456 l 245 106 l 742 106 z "},"É":{"ha":789,"x_min":115,"x_max":742,"o":"m 742 106 l 742 0 l 115 0 l 115 987 l 735 987 l 735 880 l 245 880 l 245 563 l 673 563 l 673 456 l 245 456 l 245 106 l 742 106 m 351 1061 l 482 1260 l 633 1260 l 452 1061 l 351 1061 z "},"Ĕ":{"ha":789,"x_min":115,"x_max":742,"o":"m 742 106 l 742 0 l 115 0 l 115 987 l 735 987 l 735 880 l 245 880 l 245 563 l 673 563 l 673 456 l 245 456 l 245 106 l 742 106 m 521 1232 l 623 1232 q 568 1102 623 1152 q 420 1051 514 1051 q 272 1102 326 1051 q 217 1232 217 1152 l 319 1232 q 342 1162 319 1192 q 420 1131 365 1131 q 498 1162 475 1131 q 521 1232 521 1192 z "},"Ě":{"ha":789,"x_min":115,"x_max":742,"o":"m 742 106 l 742 0 l 115 0 l 115 987 l 735 987 l 735 880 l 245 880 l 245 563 l 673 563 l 673 456 l 245 456 l 245 106 l 742 106 m 317 1259 l 419 1144 l 522 1259 l 630 1259 l 630 1253 l 458 1067 l 380 1067 l 211 1253 l 211 1259 l 317 1259 z "},"Ê":{"ha":789,"x_min":115,"x_max":742,"o":"m 742 106 l 742 0 l 115 0 l 115 987 l 735 987 l 735 880 l 245 880 l 245 563 l 673 563 l 673 456 l 245 456 l 245 106 l 742 106 m 458 1260 l 626 1075 l 626 1068 l 522 1068 l 420 1183 l 319 1068 l 216 1068 l 216 1076 l 382 1260 l 458 1260 z "},"Ë":{"ha":789,"x_min":115,"x_max":742,"o":"m 742 106 l 742 0 l 115 0 l 115 987 l 735 987 l 735 880 l 245 880 l 245 563 l 673 563 l 673 456 l 245 456 l 245 106 l 742 106 m 201 1148 q 220 1200 201 1179 q 275 1221 239 1221 q 331 1200 312 1221 q 350 1148 350 1179 q 331 1098 350 1119 q 275 1078 312 1078 q 220 1098 239 1078 q 201 1148 201 1119 m 494 1147 q 512 1198 494 1177 q 568 1219 531 1219 q 623 1198 604 1219 q 642 1147 642 1177 q 623 1097 642 1118 q 568 1076 604 1076 q 512 1097 531 1076 q 494 1147 494 1118 z "},"Ė":{"ha":789,"x_min":115,"x_max":742,"o":"m 742 106 l 742 0 l 115 0 l 115 987 l 735 987 l 735 880 l 245 880 l 245 563 l 673 563 l 673 456 l 245 456 l 245 106 l 742 106 m 346 1146 q 365 1197 346 1176 q 420 1218 383 1218 q 475 1197 456 1218 q 494 1146 494 1176 q 475 1096 494 1116 q 420 1075 456 1075 q 365 1096 383 1075 q 346 1146 346 1116 z "},"È":{"ha":789,"x_min":115,"x_max":742,"o":"m 742 106 l 742 0 l 115 0 l 115 987 l 735 987 l 735 880 l 245 880 l 245 563 l 673 563 l 673 456 l 245 456 l 245 106 l 742 106 m 360 1260 l 491 1061 l 383 1061 l 208 1260 l 360 1260 z "},"Ē":{"ha":789,"x_min":115,"x_max":742,"o":"m 742 106 l 742 0 l 115 0 l 115 987 l 735 987 l 735 880 l 245 880 l 245 563 l 673 563 l 673 456 l 245 456 l 245 106 l 742 106 m 651 1204 l 651 1107 l 196 1107 l 196 1204 l 651 1204 z "},"Ŋ":{"ha":962,"x_min":110,"x_max":858,"o":"m 110 987 l 241 987 l 727 222 l 727 987 l 858 987 l 858 -57 q 799 -235 858 -173 q 636 -296 740 -296 q 597 -294 615 -296 q 558 -285 578 -292 l 568 -180 q 602 -187 579 -184 q 634 -189 624 -189 q 703 -154 678 -189 q 727 -57 727 -119 l 727 0 l 241 766 l 241 0 l 110 0 l 110 987 z "},"Ę":{"ha":789,"x_min":115,"x_max":742,"o":"m 742 106 l 742 0 l 693 0 q 613 -70 650 -33 q 577 -151 577 -106 q 589 -186 577 -173 q 630 -200 601 -200 q 670 -194 652 -200 q 698 -182 688 -187 l 707 -264 q 664 -284 690 -275 q 598 -294 638 -294 q 506 -261 543 -294 q 468 -165 468 -229 q 493 -80 468 -122 q 574 0 518 -37 l 115 0 l 115 987 l 735 987 l 735 880 l 245 880 l 245 563 l 673 563 l 673 456 l 245 456 l 245 106 l 742 106 z "},"Ð":{"ha":932,"x_min":25,"x_max":850,"o":"m 402 0 l 135 0 l 135 451 l 25 451 l 25 554 l 135 554 l 135 987 l 414 987 q 642 931 544 987 q 795 770 740 874 q 850 523 850 666 l 850 464 q 795 217 850 321 q 640 57 740 113 q 402 0 539 0 m 457 554 l 457 451 l 266 451 l 266 106 l 402 106 q 640 204 560 106 q 720 464 720 302 l 720 524 q 640 787 720 694 q 414 880 560 880 l 266 880 l 266 554 l 457 554 z "},"€":{"ha":781,"x_min":64,"x_max":714,"o":"m 553 92 q 701 115 630 92 l 714 7 q 635 -8 676 -3 q 551 -14 593 -14 q 364 29 446 -14 q 235 156 282 71 q 185 368 188 241 l 64 368 l 64 452 l 185 452 l 185 544 l 64 544 l 64 629 l 186 629 q 293 908 192 814 q 551 1001 393 1001 q 633 995 593 1001 q 714 980 673 989 l 701 871 q 629 888 667 882 q 552 895 591 895 q 385 829 448 895 q 317 629 321 764 l 576 629 l 576 544 l 316 544 l 316 452 l 576 452 l 576 368 l 316 368 q 383 160 319 227 q 553 92 447 92 z "},"F":{"ha":768,"x_min":115,"x_max":726,"o":"m 659 543 l 659 436 l 245 436 l 245 0 l 115 0 l 115 987 l 726 987 l 726 880 l 245 880 l 245 543 l 659 543 z "},"G":{"ha":946,"x_min":83,"x_max":844,"o":"m 844 492 l 844 130 q 786 70 826 103 q 676 11 746 36 q 495 -14 606 -14 q 282 42 375 -14 q 136 203 189 98 q 83 456 83 308 l 83 532 q 186 877 83 753 q 480 1001 289 1001 q 670 962 593 1001 q 789 854 746 923 q 844 699 832 786 l 713 699 q 679 796 705 752 q 604 867 652 840 q 480 894 556 894 q 279 797 343 894 q 214 534 214 700 l 214 456 q 292 189 214 285 q 496 93 369 93 q 609 105 566 93 q 677 133 652 117 q 714 165 701 150 l 714 386 l 486 386 l 486 492 l 844 492 z "},"Ğ":{"ha":946,"x_min":83,"x_max":844,"o":"m 844 492 l 844 130 q 786 70 826 103 q 676 11 746 36 q 495 -14 606 -14 q 282 42 375 -14 q 136 203 189 98 q 83 456 83 308 l 83 532 q 186 877 83 753 q 480 1001 289 1001 q 670 962 593 1001 q 789 854 746 923 q 844 699 832 786 l 713 699 q 679 796 705 752 q 604 867 652 840 q 480 894 556 894 q 279 797 343 894 q 214 534 214 700 l 214 456 q 292 189 214 285 q 496 93 369 93 q 609 105 566 93 q 677 133 652 117 q 714 165 701 150 l 714 386 l 486 386 l 486 492 l 844 492 m 557 1246 l 659 1246 q 604 1116 659 1166 q 456 1065 550 1065 q 308 1116 362 1065 q 253 1246 253 1166 l 355 1246 q 378 1176 355 1206 q 456 1145 401 1145 q 534 1176 511 1145 q 557 1246 557 1206 z "},"Ĝ":{"ha":946,"x_min":83,"x_max":844,"o":"m 844 492 l 844 130 q 786 70 826 103 q 676 11 746 36 q 495 -14 606 -14 q 282 42 375 -14 q 136 203 189 98 q 83 456 83 308 l 83 532 q 186 877 83 753 q 480 1001 289 1001 q 670 962 593 1001 q 789 854 746 923 q 844 699 832 786 l 713 699 q 679 796 705 752 q 604 867 652 840 q 480 894 556 894 q 279 797 343 894 q 214 534 214 700 l 214 456 q 292 189 214 285 q 496 93 369 93 q 609 105 566 93 q 677 133 652 117 q 714 165 701 150 l 714 386 l 486 386 l 486 492 l 844 492 m 494 1274 l 662 1089 l 662 1082 l 557 1082 l 456 1197 l 355 1082 l 252 1082 l 252 1090 l 418 1274 l 494 1274 z "},"Ģ":{"ha":946,"x_min":83,"x_max":844,"o":"m 844 492 l 844 130 q 786 70 826 103 q 676 11 746 36 q 495 -14 606 -14 q 282 42 375 -14 q 136 203 189 98 q 83 456 83 308 l 83 532 q 186 877 83 753 q 480 1001 289 1001 q 670 962 593 1001 q 789 854 746 923 q 844 699 832 786 l 713 699 q 679 796 705 752 q 604 867 652 840 q 480 894 556 894 q 279 797 343 894 q 214 534 214 700 l 214 456 q 292 189 214 285 q 496 93 369 93 q 609 105 566 93 q 677 133 652 117 q 714 165 701 150 l 714 386 l 486 386 l 486 492 l 844 492 m 554 -84 l 554 -138 q 530 -253 554 -191 q 456 -356 506 -315 l 385 -307 q 422 -227 410 -268 q 435 -139 435 -186 l 435 -84 l 554 -84 z "},"H":{"ha":991,"x_min":115,"x_max":873,"o":"m 245 987 l 245 563 l 743 563 l 743 987 l 873 987 l 873 0 l 743 0 l 743 456 l 245 456 l 245 0 l 115 0 l 115 987 l 245 987 z "},"Ħ":{"ha":973,"x_min":20,"x_max":961,"o":"m 241 987 l 241 791 l 739 791 l 739 987 l 870 987 l 870 791 l 961 791 l 961 694 l 870 694 l 870 0 l 739 0 l 739 456 l 241 456 l 241 0 l 111 0 l 111 694 l 20 694 l 20 791 l 111 791 l 111 987 l 241 987 m 241 563 l 739 563 l 739 694 l 241 694 l 241 563 z "},"Ĥ":{"ha":991,"x_min":115,"x_max":873,"o":"m 245 987 l 245 563 l 743 563 l 743 987 l 873 987 l 873 0 l 743 0 l 743 456 l 245 456 l 245 0 l 115 0 l 115 987 l 245 987 m 521 1260 l 689 1075 l 689 1068 l 585 1068 l 483 1183 l 382 1068 l 279 1068 l 279 1076 l 445 1260 l 521 1260 z "},"I":{"ha":378,"x_min":124,"x_max":255,"o":"m 255 987 l 255 0 l 124 0 l 124 987 l 255 987 z "},"Ĳ":{"ha":1144,"x_min":124,"x_max":1037,"o":"m 255 987 l 255 0 l 124 0 l 124 987 l 255 987 m 907 288 l 907 987 l 1037 987 l 1037 288 q 997 123 1037 191 q 887 21 957 56 q 726 -14 817 -14 q 564 18 635 -14 q 454 113 494 49 q 414 273 414 176 l 545 273 q 595 136 545 180 q 726 93 646 93 q 855 142 803 93 q 907 288 907 192 z "},"Í":{"ha":378,"x_min":120,"x_max":403,"o":"m 255 987 l 255 0 l 124 0 l 124 987 l 255 987 m 120 1061 l 252 1260 l 403 1260 l 221 1061 l 120 1061 z "},"Ĭ":{"ha":378,"x_min":-14,"x_max":392,"o":"m 255 987 l 255 0 l 124 0 l 124 987 l 255 987 m 290 1232 l 392 1232 q 338 1102 392 1152 q 190 1051 283 1051 q 41 1102 96 1051 q -14 1232 -14 1152 l 88 1232 q 111 1162 88 1192 q 190 1131 134 1131 q 267 1162 244 1131 q 290 1232 290 1192 z "},"Î":{"ha":378,"x_min":-15,"x_max":395,"o":"m 255 987 l 255 0 l 124 0 l 124 987 l 255 987 m 227 1260 l 395 1075 l 395 1068 l 291 1068 l 189 1183 l 88 1068 l -15 1068 l -15 1076 l 151 1260 l 227 1260 z "},"Ï":{"ha":378,"x_min":-29,"x_max":412,"o":"m 255 987 l 255 0 l 124 0 l 124 987 l 255 987 m -29 1148 q -10 1200 -29 1179 q 45 1221 9 1221 q 100 1200 81 1221 q 119 1148 119 1179 q 100 1098 119 1119 q 45 1078 81 1078 q -10 1098 9 1078 q -29 1148 -29 1119 m 263 1147 q 282 1198 263 1177 q 337 1219 300 1219 q 392 1198 373 1219 q 412 1147 412 1177 q 392 1097 412 1118 q 337 1076 373 1076 q 282 1097 300 1076 q 263 1147 263 1118 z "},"İ":{"ha":378,"x_min":115,"x_max":264,"o":"m 255 987 l 255 0 l 124 0 l 124 987 l 255 987 m 115 1146 q 134 1197 115 1176 q 189 1218 153 1218 q 244 1197 225 1218 q 264 1146 264 1176 q 244 1096 264 1116 q 189 1075 225 1075 q 134 1096 153 1075 q 115 1146 115 1116 z "},"Ì":{"ha":378,"x_min":-22,"x_max":260,"o":"m 255 987 l 255 0 l 124 0 l 124 987 l 255 987 m 130 1260 l 260 1061 l 153 1061 l -22 1260 l 130 1260 z "},"Ī":{"ha":378,"x_min":-35,"x_max":420,"o":"m 255 987 l 255 0 l 124 0 l 124 987 l 255 987 m 420 1204 l 420 1107 l -35 1107 l -35 1204 l 420 1204 z "},"Į":{"ha":378,"x_min":16,"x_max":255,"o":"m 255 987 l 255 0 l 124 0 l 124 987 l 255 987 m 191 45 l 241 6 q 161 -63 197 -26 q 125 -144 125 -100 q 137 -180 125 -167 q 178 -194 149 -194 q 218 -188 200 -194 q 245 -176 235 -181 l 255 -258 q 212 -278 238 -269 q 146 -288 186 -288 q 53 -255 91 -288 q 16 -159 16 -222 q 57 -51 16 -104 q 191 45 98 2 z "},"Ĩ":{"ha":378,"x_min":-50,"x_max":430,"o":"m 255 987 l 255 0 l 124 0 l 124 987 l 255 987 m 345 1246 l 430 1239 q 388 1119 430 1164 q 283 1074 345 1074 q 227 1084 249 1074 q 186 1106 204 1094 q 150 1129 169 1119 q 102 1139 130 1139 q 54 1117 73 1139 q 35 1063 35 1095 l -50 1067 q -8 1188 -50 1142 q 96 1235 34 1235 q 161 1219 134 1235 q 215 1187 189 1203 q 277 1171 241 1171 q 326 1193 306 1171 q 345 1246 345 1215 z "},"J":{"ha":766,"x_min":36,"x_max":659,"o":"m 529 288 l 529 987 l 659 987 l 659 288 q 619 123 659 191 q 509 21 579 56 q 348 -14 439 -14 q 186 18 257 -14 q 76 113 116 49 q 36 273 36 176 l 167 273 q 217 136 167 180 q 348 93 268 93 q 477 142 425 93 q 529 288 529 192 z "},"Ĵ":{"ha":766,"x_min":36,"x_max":784,"o":"m 529 288 l 529 987 l 659 987 l 659 288 q 619 123 659 191 q 509 21 579 56 q 348 -14 439 -14 q 186 18 257 -14 q 76 113 116 49 q 36 273 36 176 l 167 273 q 217 136 167 180 q 348 93 268 93 q 477 142 425 93 q 529 288 529 192 m 616 1251 l 784 1066 l 784 1059 l 680 1059 l 578 1174 l 477 1059 l 374 1059 l 374 1067 l 540 1251 l 616 1251 z "},"K":{"ha":871,"x_min":115,"x_max":871,"o":"m 715 0 l 366 460 l 245 334 l 245 0 l 115 0 l 115 987 l 245 987 l 245 500 l 353 618 l 684 987 l 842 987 l 454 551 l 871 0 l 715 0 z "},"Ķ":{"ha":871,"x_min":115,"x_max":871,"o":"m 715 0 l 366 460 l 245 334 l 245 0 l 115 0 l 115 987 l 245 987 l 245 500 l 353 618 l 684 987 l 842 987 l 454 551 l 871 0 l 715 0 m 507 -17 l 507 -71 q 483 -186 507 -124 q 408 -289 458 -248 l 337 -239 q 375 -160 362 -201 q 387 -72 387 -119 l 387 -17 l 507 -17 z "},"L":{"ha":748,"x_min":115,"x_max":713,"o":"m 713 106 l 713 0 l 115 0 l 115 987 l 245 987 l 245 106 l 713 106 z "},"Ĺ":{"ha":748,"x_min":110,"x_max":713,"o":"m 713 106 l 713 0 l 115 0 l 115 987 l 245 987 l 245 106 l 713 106 m 110 1050 l 241 1249 l 393 1249 l 211 1050 l 110 1050 z "},"Ľ":{"ha":748,"x_min":115,"x_max":713,"o":"m 713 106 l 713 0 l 115 0 l 115 987 l 245 987 l 245 106 l 713 106 m 551 988 l 551 935 q 527 819 551 881 q 453 716 503 758 l 382 766 q 419 845 407 804 q 432 933 432 886 l 432 988 l 551 988 z "},"Ļ":{"ha":748,"x_min":115,"x_max":713,"o":"m 713 106 l 713 0 l 115 0 l 115 987 l 245 987 l 245 106 l 713 106 m 479 -71 l 479 -125 q 455 -240 479 -178 q 381 -343 431 -302 l 310 -294 q 348 -214 335 -255 q 360 -126 360 -174 l 360 -71 l 479 -71 z "},"Ŀ":{"ha":748,"x_min":115,"x_max":713,"o":"m 713 106 l 713 0 l 115 0 l 115 987 l 245 987 l 245 106 l 713 106 m 397 540 q 416 591 397 570 q 471 612 435 612 q 527 591 507 612 q 546 540 546 570 q 527 489 546 510 q 471 469 507 469 q 416 489 435 469 q 397 540 397 510 z "},"Ł":{"ha":748,"x_min":24,"x_max":713,"o":"m 713 106 l 713 0 l 115 0 l 115 447 l 24 418 l 24 503 l 115 532 l 115 987 l 245 987 l 245 573 l 423 629 l 423 545 l 245 488 l 245 106 l 713 106 z "},"M":{"ha":1213,"x_min":115,"x_max":1097,"o":"m 115 987 l 283 987 l 606 182 l 929 987 l 1097 987 l 1097 0 l 967 0 l 967 385 l 980 798 l 655 0 l 556 0 l 232 800 l 245 385 l 245 0 l 115 0 l 115 987 z "},"N":{"ha":991,"x_min":115,"x_max":874,"o":"m 874 987 l 874 0 l 743 0 l 245 762 l 245 0 l 115 0 l 115 987 l 245 987 l 745 224 l 745 987 l 874 987 z "},"Ń":{"ha":991,"x_min":115,"x_max":874,"o":"m 874 987 l 874 0 l 743 0 l 245 762 l 245 0 l 115 0 l 115 987 l 245 987 l 745 224 l 745 987 l 874 987 m 423 1053 l 555 1253 l 706 1253 l 524 1053 l 423 1053 z "},"Ň":{"ha":991,"x_min":115,"x_max":874,"o":"m 874 987 l 874 0 l 743 0 l 245 762 l 245 0 l 115 0 l 115 987 l 245 987 l 745 224 l 745 987 l 874 987 m 389 1252 l 492 1137 l 594 1252 l 703 1252 l 703 1245 l 530 1059 l 453 1059 l 283 1245 l 283 1252 l 389 1252 z "},"Ņ":{"ha":991,"x_min":115,"x_max":874,"o":"m 874 987 l 874 0 l 743 0 l 245 762 l 245 0 l 115 0 l 115 987 l 245 987 l 745 224 l 745 987 l 874 987 m 547 -71 l 547 -125 q 523 -240 547 -178 q 449 -343 499 -302 l 378 -294 q 415 -214 403 -255 q 428 -126 428 -174 l 428 -71 l 547 -71 z "},"Ñ":{"ha":991,"x_min":115,"x_max":874,"o":"m 874 987 l 874 0 l 743 0 l 245 762 l 245 0 l 115 0 l 115 987 l 245 987 l 745 224 l 745 987 l 874 987 m 648 1239 l 733 1232 q 691 1112 733 1157 q 587 1067 648 1067 q 530 1077 552 1067 q 490 1099 507 1086 q 453 1121 472 1112 q 405 1131 433 1131 q 357 1109 376 1131 q 338 1056 338 1088 l 253 1060 q 295 1181 253 1135 q 399 1227 337 1227 q 465 1212 437 1227 q 518 1179 492 1196 q 581 1163 545 1163 q 629 1185 609 1163 q 648 1239 648 1207 z "},"O":{"ha":956,"x_min":81,"x_max":875,"o":"m 875 525 l 875 463 q 826 208 875 315 q 688 44 777 101 q 479 -14 599 -14 q 272 44 362 -14 q 132 208 182 101 q 81 463 81 315 l 81 525 q 131 780 81 673 q 271 944 182 886 q 477 1001 361 1001 q 687 944 597 1001 q 826 780 777 886 q 875 525 875 673 m 745 463 l 745 526 q 675 796 745 703 q 477 890 604 890 q 283 796 356 890 q 210 526 210 703 l 210 463 q 284 191 210 285 q 479 97 357 97 q 676 191 606 97 q 745 463 745 285 z "},"Œ":{"ha":1324,"x_min":71,"x_max":1221,"o":"m 448 1002 q 551 997 500 1002 q 647 987 602 993 l 1215 987 l 1215 880 l 725 880 l 725 563 l 1152 563 l 1152 456 l 725 456 l 725 106 l 1221 106 l 1221 0 l 647 0 q 551 -9 602 -5 q 449 -14 501 -14 q 252 37 336 -14 q 119 180 167 88 q 71 391 71 271 l 71 597 q 119 808 71 717 q 251 950 166 899 q 448 1002 335 1002 m 197 391 q 265 166 197 243 q 449 89 334 89 q 524 92 487 89 q 594 99 560 94 l 594 888 q 523 896 559 893 q 448 899 486 899 q 264 822 332 899 q 197 598 197 746 l 197 391 z "},"Ó":{"ha":956,"x_min":81,"x_max":875,"o":"m 875 525 l 875 463 q 826 208 875 315 q 688 44 777 101 q 479 -14 599 -14 q 272 44 362 -14 q 132 208 182 101 q 81 463 81 315 l 81 525 q 131 780 81 673 q 271 944 182 886 q 477 1001 361 1001 q 687 944 597 1001 q 826 780 777 886 q 875 525 875 673 m 745 463 l 745 526 q 675 796 745 703 q 477 890 604 890 q 283 796 356 890 q 210 526 210 703 l 210 463 q 284 191 210 285 q 479 97 357 97 q 676 191 606 97 q 745 463 745 285 m 410 1055 l 542 1254 l 693 1254 l 511 1055 l 410 1055 z "},"Ŏ":{"ha":956,"x_min":81,"x_max":875,"o":"m 875 525 l 875 463 q 826 208 875 315 q 688 44 777 101 q 479 -14 599 -14 q 272 44 362 -14 q 132 208 182 101 q 81 463 81 315 l 81 525 q 131 780 81 673 q 271 944 182 886 q 477 1001 361 1001 q 687 944 597 1001 q 826 780 777 886 q 875 525 875 673 m 745 463 l 745 526 q 675 796 745 703 q 477 890 604 890 q 283 796 356 890 q 210 526 210 703 l 210 463 q 284 191 210 285 q 479 97 357 97 q 676 191 606 97 q 745 463 745 285 m 581 1226 l 682 1226 q 628 1096 682 1146 q 480 1045 574 1045 q 331 1096 386 1045 q 277 1226 277 1146 l 378 1226 q 401 1156 378 1186 q 480 1125 425 1125 q 557 1156 534 1125 q 581 1226 581 1186 z "},"Ô":{"ha":956,"x_min":81,"x_max":875,"o":"m 875 525 l 875 463 q 826 208 875 315 q 688 44 777 101 q 479 -14 599 -14 q 272 44 362 -14 q 132 208 182 101 q 81 463 81 315 l 81 525 q 131 780 81 673 q 271 944 182 886 q 477 1001 361 1001 q 687 944 597 1001 q 826 780 777 886 q 875 525 875 673 m 745 463 l 745 526 q 675 796 745 703 q 477 890 604 890 q 283 796 356 890 q 210 526 210 703 l 210 463 q 284 191 210 285 q 479 97 357 97 q 676 191 606 97 q 745 463 745 285 m 517 1254 l 686 1069 l 686 1062 l 581 1062 l 479 1177 l 378 1062 l 275 1062 l 275 1069 l 441 1254 l 517 1254 z "},"Ö":{"ha":956,"x_min":81,"x_max":875,"o":"m 875 525 l 875 463 q 826 208 875 315 q 688 44 777 101 q 479 -14 599 -14 q 272 44 362 -14 q 132 208 182 101 q 81 463 81 315 l 81 525 q 131 780 81 673 q 271 944 182 886 q 477 1001 361 1001 q 687 944 597 1001 q 826 780 777 886 q 875 525 875 673 m 745 463 l 745 526 q 675 796 745 703 q 477 890 604 890 q 283 796 356 890 q 210 526 210 703 l 210 463 q 284 191 210 285 q 479 97 357 97 q 676 191 606 97 q 745 463 745 285 m 261 1142 q 280 1194 261 1173 q 335 1215 299 1215 q 391 1194 372 1215 q 410 1142 410 1173 q 391 1092 410 1113 q 335 1072 372 1072 q 280 1092 299 1072 q 261 1142 261 1113 m 553 1141 q 572 1192 553 1171 q 627 1213 591 1213 q 683 1192 663 1213 q 702 1141 702 1171 q 683 1091 702 1112 q 627 1070 663 1070 q 572 1091 591 1070 q 553 1141 553 1112 z "},"Ò":{"ha":956,"x_min":81,"x_max":875,"o":"m 875 525 l 875 463 q 826 208 875 315 q 688 44 777 101 q 479 -14 599 -14 q 272 44 362 -14 q 132 208 182 101 q 81 463 81 315 l 81 525 q 131 780 81 673 q 271 944 182 886 q 477 1001 361 1001 q 687 944 597 1001 q 826 780 777 886 q 875 525 875 673 m 745 463 l 745 526 q 675 796 745 703 q 477 890 604 890 q 283 796 356 890 q 210 526 210 703 l 210 463 q 284 191 210 285 q 479 97 357 97 q 676 191 606 97 q 745 463 745 285 m 420 1254 l 551 1055 l 443 1055 l 268 1254 l 420 1254 z "},"Ơ":{"ha":954,"x_min":69,"x_max":975,"o":"m 863 525 l 863 463 q 814 208 863 315 q 677 44 766 101 q 467 -14 588 -14 q 261 44 351 -14 q 120 208 171 101 q 69 463 69 315 l 69 525 q 120 780 69 673 q 260 944 170 886 q 466 1001 349 1001 q 734 897 629 1001 q 833 950 804 902 q 861 1080 861 998 l 975 1080 q 930 902 975 970 q 797 813 886 833 q 846 683 829 755 q 863 525 863 611 m 734 463 l 734 526 q 663 796 734 703 q 466 890 593 890 q 272 796 345 890 q 199 526 199 703 l 199 463 q 273 191 199 285 q 467 97 347 97 q 664 191 595 97 q 734 463 734 285 z "},"Ő":{"ha":956,"x_min":81,"x_max":875,"o":"m 875 525 l 875 463 q 826 208 875 315 q 688 44 777 101 q 479 -14 599 -14 q 272 44 362 -14 q 132 208 182 101 q 81 463 81 315 l 81 525 q 131 780 81 673 q 271 944 182 886 q 477 1001 361 1001 q 687 944 597 1001 q 826 780 777 886 q 875 525 875 673 m 745 463 l 745 526 q 675 796 745 703 q 477 890 604 890 q 283 796 356 890 q 210 526 210 703 l 210 463 q 284 191 210 285 q 479 97 357 97 q 676 191 606 97 q 745 463 745 285 m 500 1048 l 656 1253 l 797 1253 l 615 1048 l 500 1048 m 311 1048 l 426 1253 l 560 1253 l 412 1048 l 311 1048 z "},"Ō":{"ha":956,"x_min":81,"x_max":875,"o":"m 875 525 l 875 463 q 826 208 875 315 q 688 44 777 101 q 479 -14 599 -14 q 272 44 362 -14 q 132 208 182 101 q 81 463 81 315 l 81 525 q 131 780 81 673 q 271 944 182 886 q 477 1001 361 1001 q 687 944 597 1001 q 826 780 777 886 q 875 525 875 673 m 745 463 l 745 526 q 675 796 745 703 q 477 890 604 890 q 283 796 356 890 q 210 526 210 703 l 210 463 q 284 191 210 285 q 479 97 357 97 q 676 191 606 97 q 745 463 745 285 m 711 1198 l 711 1101 l 256 1101 l 256 1198 l 711 1198 z "},"Ω":{"ha":924,"x_min":77,"x_max":833,"o":"m 80 0 l 80 106 l 231 106 q 119 278 160 175 q 77 492 77 381 l 77 570 q 125 795 77 698 q 257 947 172 892 q 454 1001 342 1001 q 652 947 566 1001 q 785 795 737 892 q 833 570 833 698 l 833 492 q 791 278 833 381 q 680 106 750 175 l 828 106 l 828 0 l 500 0 l 500 111 q 646 224 591 129 q 701 492 701 319 l 701 571 q 634 812 701 729 q 454 895 568 895 q 275 812 341 895 q 210 571 210 729 l 210 492 q 266 223 210 319 q 414 111 323 128 l 414 0 l 80 0 z "},"Ø":{"ha":956,"x_min":81,"x_max":888,"o":"m 875 525 l 875 463 q 826 208 875 315 q 688 44 777 101 q 479 -14 599 -14 q 274 43 363 -14 l 208 -63 l 111 -63 l 210 94 q 115 249 149 156 q 81 463 81 342 l 81 525 q 131 780 81 673 q 271 944 182 886 q 477 1001 361 1001 q 723 917 623 1001 l 793 1028 l 888 1028 l 781 856 q 850 711 826 795 q 875 525 875 628 m 210 463 q 228 313 210 378 q 276 201 245 248 l 659 814 q 477 890 591 890 q 283 796 356 890 q 210 526 210 703 l 210 463 m 745 463 l 745 526 q 707 739 745 653 l 335 140 q 479 97 396 97 q 676 191 606 97 q 745 463 745 285 z "},"Ǿ":{"ha":956,"x_min":81,"x_max":888,"o":"m 875 525 l 875 463 q 826 208 875 315 q 688 44 777 101 q 479 -14 599 -14 q 274 43 363 -14 l 208 -63 l 111 -63 l 210 94 q 115 249 149 156 q 81 463 81 342 l 81 525 q 131 780 81 673 q 271 944 182 886 q 477 1001 361 1001 q 723 917 623 1001 l 793 1028 l 888 1028 l 781 856 q 850 711 826 795 q 875 525 875 628 m 210 463 q 228 313 210 378 q 276 201 245 248 l 659 814 q 477 890 591 890 q 283 796 356 890 q 210 526 210 703 l 210 463 m 745 463 l 745 526 q 707 739 745 653 l 335 140 q 479 97 396 97 q 676 191 606 97 q 745 463 745 285 m 416 1103 l 547 1302 l 699 1302 l 517 1103 l 416 1103 z "},"Õ":{"ha":956,"x_min":81,"x_max":875,"o":"m 875 525 l 875 463 q 826 208 875 315 q 688 44 777 101 q 479 -14 599 -14 q 272 44 362 -14 q 132 208 182 101 q 81 463 81 315 l 81 525 q 131 780 81 673 q 271 944 182 886 q 477 1001 361 1001 q 687 944 597 1001 q 826 780 777 886 q 875 525 875 673 m 745 463 l 745 526 q 675 796 745 703 q 477 890 604 890 q 283 796 356 890 q 210 526 210 703 l 210 463 q 284 191 210 285 q 479 97 357 97 q 676 191 606 97 q 745 463 745 285 m 635 1240 l 720 1233 q 678 1113 720 1158 q 574 1068 635 1068 q 517 1078 539 1068 q 477 1100 494 1088 q 440 1123 459 1113 q 392 1133 420 1133 q 344 1111 363 1133 q 325 1057 325 1089 l 240 1061 q 282 1182 240 1136 q 386 1229 324 1229 q 452 1213 425 1229 q 505 1181 479 1197 q 568 1164 532 1164 q 616 1186 596 1164 q 635 1240 635 1208 z "},"P":{"ha":876,"x_min":115,"x_max":825,"o":"m 479 387 l 245 387 l 245 0 l 115 0 l 115 987 l 479 987 q 668 949 591 987 q 785 842 745 910 q 825 686 825 774 q 736 465 825 543 q 479 387 647 387 m 479 880 l 245 880 l 245 494 l 479 494 q 644 547 594 494 q 694 685 694 601 q 672 781 694 736 q 603 853 650 825 q 479 880 555 880 z "},"Q":{"ha":956,"x_min":75,"x_max":872,"o":"m 869 525 l 869 463 q 823 216 869 320 q 696 54 778 112 l 872 -85 l 784 -167 l 576 -1 q 473 -14 527 -14 q 266 44 356 -14 q 125 208 176 101 q 75 463 75 315 l 75 525 q 125 780 75 673 q 265 944 176 886 q 471 1001 355 1001 q 681 944 592 1001 q 820 780 770 886 q 869 525 869 673 m 739 463 l 739 526 q 669 796 739 703 q 471 890 599 890 q 277 796 351 890 q 204 526 204 703 l 204 463 q 278 191 204 285 q 473 97 352 97 q 670 191 600 97 q 739 463 739 285 z "},"R":{"ha":856,"x_min":115,"x_max":831,"o":"m 692 0 l 477 400 l 245 400 l 245 0 l 115 0 l 115 987 l 441 987 q 697 911 608 987 q 787 691 787 836 q 738 530 787 599 q 600 427 688 461 l 831 8 l 831 0 l 692 0 m 441 880 l 245 880 l 245 507 l 446 507 q 604 561 551 507 q 657 691 657 614 q 606 828 657 777 q 441 880 555 880 z "},"Ŕ":{"ha":856,"x_min":115,"x_max":831,"o":"m 692 0 l 477 400 l 245 400 l 245 0 l 115 0 l 115 987 l 441 987 q 697 911 608 987 q 787 691 787 836 q 738 530 787 599 q 600 427 688 461 l 831 8 l 831 0 l 692 0 m 441 880 l 245 880 l 245 507 l 446 507 q 604 561 551 507 q 657 691 657 614 q 606 828 657 777 q 441 880 555 880 m 345 1053 l 476 1253 l 627 1253 l 446 1053 l 345 1053 z "},"Ř":{"ha":856,"x_min":115,"x_max":831,"o":"m 692 0 l 477 400 l 245 400 l 245 0 l 115 0 l 115 987 l 441 987 q 697 911 608 987 q 787 691 787 836 q 738 530 787 599 q 600 427 688 461 l 831 8 l 831 0 l 692 0 m 441 880 l 245 880 l 245 507 l 446 507 q 604 561 551 507 q 657 691 657 614 q 606 828 657 777 q 441 880 555 880 m 311 1252 l 413 1137 l 515 1252 l 624 1252 l 624 1245 l 452 1059 l 374 1059 l 205 1245 l 205 1252 l 311 1252 z "},"Ŗ":{"ha":856,"x_min":115,"x_max":831,"o":"m 692 0 l 477 400 l 245 400 l 245 0 l 115 0 l 115 987 l 441 987 q 697 911 608 987 q 787 691 787 836 q 738 530 787 599 q 600 427 688 461 l 831 8 l 831 0 l 692 0 m 441 880 l 245 880 l 245 507 l 446 507 q 604 561 551 507 q 657 691 657 614 q 606 828 657 777 q 441 880 555 880 m 473 -71 l 473 -125 q 449 -240 473 -178 q 375 -343 425 -302 l 304 -294 q 341 -214 329 -255 q 354 -126 354 -174 l 354 -71 l 473 -71 z "},"S":{"ha":825,"x_min":55,"x_max":772,"o":"m 641 250 q 621 328 641 296 q 551 387 602 361 q 406 441 500 414 q 173 551 260 484 q 86 732 86 618 q 128 870 86 809 q 245 966 170 930 q 422 1001 321 1001 q 611 959 533 1001 q 729 848 688 916 q 770 703 770 780 l 640 703 q 586 840 640 785 q 422 894 532 894 q 267 848 317 894 q 217 734 217 802 q 272 630 217 672 q 448 555 326 589 q 694 437 616 507 q 772 251 772 366 q 730 111 772 171 q 610 19 687 52 q 428 -14 532 -14 q 293 5 359 -14 q 173 62 227 24 q 87 156 119 100 q 55 286 55 212 l 185 286 q 219 176 185 219 q 309 113 254 134 q 428 93 365 93 q 586 135 530 93 q 641 250 641 178 z "},"Ś":{"ha":825,"x_min":55,"x_max":772,"o":"m 641 250 q 621 328 641 296 q 551 387 602 361 q 406 441 500 414 q 173 551 260 484 q 86 732 86 618 q 128 870 86 809 q 245 966 170 930 q 422 1001 321 1001 q 611 959 533 1001 q 729 848 688 916 q 770 703 770 780 l 640 703 q 586 840 640 785 q 422 894 532 894 q 267 848 317 894 q 217 734 217 802 q 272 630 217 672 q 448 555 326 589 q 694 437 616 507 q 772 251 772 366 q 730 111 772 171 q 610 19 687 52 q 428 -14 532 -14 q 293 5 359 -14 q 173 62 227 24 q 87 156 119 100 q 55 286 55 212 l 185 286 q 219 176 185 219 q 309 113 254 134 q 428 93 365 93 q 586 135 530 93 q 641 250 641 178 m 353 1055 l 484 1254 l 635 1254 l 454 1055 l 353 1055 z "},"Š":{"ha":825,"x_min":55,"x_max":772,"o":"m 641 250 q 621 328 641 296 q 551 387 602 361 q 406 441 500 414 q 173 551 260 484 q 86 732 86 618 q 128 870 86 809 q 245 966 170 930 q 422 1001 321 1001 q 611 959 533 1001 q 729 848 688 916 q 770 703 770 780 l 640 703 q 586 840 640 785 q 422 894 532 894 q 267 848 317 894 q 217 734 217 802 q 272 630 217 672 q 448 555 326 589 q 694 437 616 507 q 772 251 772 366 q 730 111 772 171 q 610 19 687 52 q 428 -14 532 -14 q 293 5 359 -14 q 173 62 227 24 q 87 156 119 100 q 55 286 55 212 l 185 286 q 219 176 185 219 q 309 113 254 134 q 428 93 365 93 q 586 135 530 93 q 641 250 641 178 m 319 1253 l 421 1138 l 524 1253 l 632 1253 l 632 1246 l 460 1061 l 382 1061 l 213 1246 l 213 1253 l 319 1253 z "},"Ş":{"ha":825,"x_min":55,"x_max":772,"o":"m 641 250 q 621 328 641 296 q 551 387 602 361 q 406 441 500 414 q 173 551 260 484 q 86 732 86 618 q 128 870 86 809 q 245 966 170 930 q 422 1001 321 1001 q 611 959 533 1001 q 729 848 688 916 q 770 703 770 780 l 640 703 q 586 840 640 785 q 422 894 532 894 q 267 848 317 894 q 217 734 217 802 q 272 630 217 672 q 448 555 326 589 q 694 437 616 507 q 772 251 772 366 q 730 111 772 171 q 610 19 687 52 q 428 -14 532 -14 q 293 5 359 -14 q 173 62 227 24 q 87 156 119 100 q 55 286 55 212 l 185 286 q 219 176 185 219 q 309 113 254 134 q 428 93 365 93 q 586 135 530 93 q 641 250 641 178 m 385 -1 l 475 -1 l 467 -37 q 538 -69 506 -43 q 570 -154 570 -95 q 518 -257 570 -218 q 365 -296 466 -296 l 360 -223 q 440 -208 407 -223 q 473 -156 473 -192 q 447 -110 473 -122 q 363 -92 420 -97 l 385 -1 z "},"Ə":{"ha":960,"x_min":64,"x_max":880,"o":"m 473 -14 q 168 108 271 -14 q 64 436 64 230 l 64 520 l 750 520 l 750 525 q 718 710 750 627 q 616 843 686 793 q 435 892 547 892 q 287 873 347 892 q 187 836 227 854 l 155 932 q 249 975 180 949 q 435 1001 317 1001 q 678 940 578 1001 q 829 772 777 880 q 880 525 880 665 l 880 461 q 826 214 880 321 q 679 47 771 107 q 473 -14 586 -14 m 473 94 q 614 137 555 94 q 708 254 674 180 q 749 419 742 328 l 195 419 l 195 396 q 221 243 195 312 q 309 135 248 175 q 473 94 370 94 z "},"Ŝ":{"ha":825,"x_min":55,"x_max":772,"o":"m 641 250 q 621 328 641 296 q 551 387 602 361 q 406 441 500 414 q 173 551 260 484 q 86 732 86 618 q 128 870 86 809 q 245 966 170 930 q 422 1001 321 1001 q 611 959 533 1001 q 729 848 688 916 q 770 703 770 780 l 640 703 q 586 840 640 785 q 422 894 532 894 q 267 848 317 894 q 217 734 217 802 q 272 630 217 672 q 448 555 326 589 q 694 437 616 507 q 772 251 772 366 q 730 111 772 171 q 610 19 687 52 q 428 -14 532 -14 q 293 5 359 -14 q 173 62 227 24 q 87 156 119 100 q 55 286 55 212 l 185 286 q 219 176 185 219 q 309 113 254 134 q 428 93 365 93 q 586 135 530 93 q 641 250 641 178 m 460 1254 l 628 1069 l 628 1062 l 524 1062 l 422 1177 l 321 1062 l 218 1062 l 218 1069 l 384 1254 l 460 1254 z "},"T":{"ha":829,"x_min":34,"x_max":797,"o":"m 797 987 l 797 880 l 479 880 l 479 0 l 351 0 l 351 880 l 34 880 l 34 987 l 797 987 z "},"Ŧ":{"ha":829,"x_min":34,"x_max":797,"o":"m 637 661 l 637 557 l 479 557 l 479 0 l 351 0 l 351 557 l 205 557 l 205 661 l 351 661 l 351 880 l 34 880 l 34 987 l 797 987 l 797 880 l 479 880 l 479 661 l 637 661 z "},"Ť":{"ha":829,"x_min":34,"x_max":797,"o":"m 797 987 l 797 880 l 479 880 l 479 0 l 351 0 l 351 880 l 34 880 l 34 987 l 797 987 m 312 1251 l 414 1136 l 517 1251 l 625 1251 l 625 1244 l 453 1059 l 376 1059 l 206 1244 l 206 1251 l 312 1251 z "},"Þ":{"ha":821,"x_min":113,"x_max":758,"o":"m 113 987 l 239 987 l 239 789 l 427 789 q 608 751 534 789 q 720 649 682 714 q 758 500 758 584 q 720 353 758 418 q 608 250 682 288 q 427 213 534 213 l 239 213 l 239 0 l 113 0 l 113 987 m 427 686 l 239 686 l 239 315 l 427 315 q 546 342 500 315 q 611 411 591 369 q 632 499 632 453 q 611 589 632 547 q 546 659 591 632 q 427 686 500 686 z "},"U":{"ha":901,"x_min":95,"x_max":810,"o":"m 680 987 l 810 987 l 810 319 q 760 134 810 208 q 629 23 711 60 q 452 -14 547 -14 q 270 23 351 -14 q 142 134 189 60 q 95 319 95 208 l 95 987 l 224 987 l 224 319 q 287 148 224 203 q 452 93 350 93 q 617 148 555 93 q 680 319 680 203 l 680 987 z "},"Ú":{"ha":901,"x_min":95,"x_max":810,"o":"m 680 987 l 810 987 l 810 319 q 760 134 810 208 q 629 23 711 60 q 452 -14 547 -14 q 270 23 351 -14 q 142 134 189 60 q 95 319 95 208 l 95 987 l 224 987 l 224 319 q 287 148 224 203 q 452 93 350 93 q 617 148 555 93 q 680 319 680 203 l 680 987 m 383 1053 l 515 1253 l 666 1253 l 484 1053 l 383 1053 z "},"Ŭ":{"ha":901,"x_min":95,"x_max":810,"o":"m 680 987 l 810 987 l 810 319 q 760 134 810 208 q 629 23 711 60 q 452 -14 547 -14 q 270 23 351 -14 q 142 134 189 60 q 95 319 95 208 l 95 987 l 224 987 l 224 319 q 287 148 224 203 q 452 93 350 93 q 617 148 555 93 q 680 319 680 203 l 680 987 m 553 1225 l 655 1225 q 601 1094 655 1145 q 453 1044 547 1044 q 304 1094 359 1044 q 250 1225 250 1145 l 351 1225 q 374 1154 351 1185 q 453 1124 397 1124 q 530 1154 507 1124 q 553 1225 553 1185 z "},"Û":{"ha":901,"x_min":95,"x_max":810,"o":"m 680 987 l 810 987 l 810 319 q 760 134 810 208 q 629 23 711 60 q 452 -14 547 -14 q 270 23 351 -14 q 142 134 189 60 q 95 319 95 208 l 95 987 l 224 987 l 224 319 q 287 148 224 203 q 452 93 350 93 q 617 148 555 93 q 680 319 680 203 l 680 987 m 490 1253 l 659 1067 l 659 1061 l 554 1061 l 452 1175 l 351 1061 l 248 1061 l 248 1068 l 414 1253 l 490 1253 z "},"Ü":{"ha":901,"x_min":95,"x_max":810,"o":"m 680 987 l 810 987 l 810 319 q 760 134 810 208 q 629 23 711 60 q 452 -14 547 -14 q 270 23 351 -14 q 142 134 189 60 q 95 319 95 208 l 95 987 l 224 987 l 224 319 q 287 148 224 203 q 452 93 350 93 q 617 148 555 93 q 680 319 680 203 l 680 987 m 234 1141 q 253 1192 234 1171 q 308 1213 272 1213 q 363 1192 345 1213 q 382 1141 382 1171 q 363 1091 382 1112 q 308 1070 345 1070 q 253 1091 272 1070 q 234 1141 234 1112 m 526 1139 q 545 1191 526 1170 q 600 1212 564 1212 q 655 1191 636 1212 q 675 1139 675 1170 q 655 1089 675 1110 q 600 1069 636 1069 q 545 1089 564 1069 q 526 1139 526 1110 z "},"Ù":{"ha":901,"x_min":95,"x_max":810,"o":"m 680 987 l 810 987 l 810 319 q 760 134 810 208 q 629 23 711 60 q 452 -14 547 -14 q 270 23 351 -14 q 142 134 189 60 q 95 319 95 208 l 95 987 l 224 987 l 224 319 q 287 148 224 203 q 452 93 350 93 q 617 148 555 93 q 680 319 680 203 l 680 987 m 393 1253 l 524 1053 l 416 1053 l 241 1253 l 393 1253 z "},"Ư":{"ha":966,"x_min":95,"x_max":1061,"o":"m 680 987 l 810 987 l 810 844 q 924 902 895 851 q 954 1043 954 952 l 1061 1043 q 1004 833 1061 907 q 810 751 946 759 l 810 319 q 760 134 810 208 q 629 23 711 60 q 452 -14 547 -14 q 270 23 351 -14 q 142 134 189 60 q 95 319 95 208 l 95 987 l 224 987 l 224 319 q 287 148 224 203 q 452 93 350 93 q 617 148 555 93 q 680 319 680 203 l 680 987 z "},"Ű":{"ha":901,"x_min":95,"x_max":810,"o":"m 680 987 l 810 987 l 810 319 q 760 134 810 208 q 629 23 711 60 q 452 -14 547 -14 q 270 23 351 -14 q 142 134 189 60 q 95 319 95 208 l 95 987 l 224 987 l 224 319 q 287 148 224 203 q 452 93 350 93 q 617 148 555 93 q 680 319 680 203 l 680 987 m 473 1046 l 629 1252 l 770 1252 l 588 1046 l 473 1046 m 283 1046 l 399 1252 l 533 1252 l 385 1046 l 283 1046 z "},"Ū":{"ha":901,"x_min":95,"x_max":810,"o":"m 680 987 l 810 987 l 810 319 q 760 134 810 208 q 629 23 711 60 q 452 -14 547 -14 q 270 23 351 -14 q 142 134 189 60 q 95 319 95 208 l 95 987 l 224 987 l 224 319 q 287 148 224 203 q 452 93 350 93 q 617 148 555 93 q 680 319 680 203 l 680 987 m 684 1196 l 684 1100 l 229 1100 l 229 1196 l 684 1196 z "},"Ų":{"ha":901,"x_min":95,"x_max":810,"o":"m 680 987 l 810 987 l 810 319 q 760 134 810 208 q 629 23 709 60 q 555 -43 588 -8 q 522 -121 522 -79 q 534 -157 522 -143 q 575 -170 546 -170 q 615 -164 597 -170 q 643 -152 633 -157 l 652 -235 q 609 -255 635 -245 q 543 -264 583 -264 q 451 -232 488 -264 q 413 -135 413 -199 q 426 -73 413 -104 q 467 -14 439 -43 q 452 -14 459 -14 q 270 23 351 -14 q 142 134 189 60 q 95 319 95 208 l 95 987 l 224 987 l 224 319 q 287 148 224 203 q 452 93 350 93 q 617 148 555 93 q 680 319 680 203 l 680 987 z "},"Ů":{"ha":901,"x_min":95,"x_max":810,"o":"m 680 987 l 810 987 l 810 319 q 760 134 810 208 q 629 23 711 60 q 452 -14 547 -14 q 270 23 351 -14 q 142 134 189 60 q 95 319 95 208 l 95 987 l 224 987 l 224 319 q 287 148 224 203 q 452 93 350 93 q 617 148 555 93 q 680 319 680 203 l 680 987 m 307 1174 q 349 1274 307 1232 q 452 1315 391 1315 q 556 1274 514 1315 q 598 1174 598 1232 q 556 1075 598 1114 q 452 1036 514 1036 q 349 1075 391 1036 q 307 1174 307 1114 m 374 1174 q 396 1120 374 1144 q 452 1096 418 1096 q 509 1119 487 1096 q 531 1174 531 1143 q 509 1230 531 1206 q 452 1254 487 1254 q 396 1230 418 1254 q 374 1174 374 1206 z "},"Ũ":{"ha":901,"x_min":95,"x_max":810,"o":"m 680 987 l 810 987 l 810 319 q 760 134 810 208 q 629 23 711 60 q 452 -14 547 -14 q 270 23 351 -14 q 142 134 189 60 q 95 319 95 208 l 95 987 l 224 987 l 224 319 q 287 148 224 203 q 452 93 350 93 q 617 148 555 93 q 680 319 680 203 l 680 987 m 608 1239 l 693 1232 q 651 1112 693 1157 q 547 1067 608 1067 q 490 1077 512 1067 q 450 1099 467 1086 q 413 1121 432 1112 q 365 1131 393 1131 q 317 1109 336 1131 q 298 1056 298 1088 l 213 1060 q 255 1181 213 1135 q 359 1227 297 1227 q 425 1212 397 1227 q 478 1179 452 1196 q 541 1163 505 1163 q 589 1185 569 1163 q 608 1239 608 1207 z "},"V":{"ha":884,"x_min":20,"x_max":866,"o":"m 161 987 l 441 174 l 724 987 l 866 987 l 500 0 l 385 0 l 20 987 l 161 987 z "},"W":{"ha":1232,"x_min":41,"x_max":1202,"o":"m 374 298 l 570 987 l 680 987 l 870 298 l 898 178 l 919 313 l 1072 987 l 1202 987 l 964 0 l 845 0 l 642 720 l 626 795 l 610 720 l 399 0 l 281 0 l 41 987 l 172 987 l 328 312 l 347 181 l 374 298 z "},"Ŵ":{"ha":1232,"x_min":41,"x_max":1202,"o":"m 374 298 l 570 987 l 680 987 l 870 298 l 898 178 l 919 313 l 1072 987 l 1202 987 l 964 0 l 845 0 l 642 720 l 626 795 l 610 720 l 399 0 l 281 0 l 41 987 l 172 987 l 328 312 l 347 181 l 374 298 m 665 1253 l 833 1067 l 833 1061 l 728 1061 l 627 1175 l 526 1061 l 422 1061 l 422 1068 l 589 1253 l 665 1253 z "},"X":{"ha":871,"x_min":39,"x_max":834,"o":"m 199 987 l 437 609 l 674 987 l 827 987 l 515 498 l 834 0 l 680 0 l 437 386 l 193 0 l 39 0 l 359 498 l 47 987 l 199 987 z "},"Y":{"ha":834,"x_min":10,"x_max":822,"o":"m 160 987 l 416 492 l 673 987 l 822 987 l 481 369 l 481 0 l 351 0 l 351 369 l 10 987 l 160 987 z "},"Ý":{"ha":834,"x_min":10,"x_max":822,"o":"m 160 987 l 416 492 l 673 987 l 822 987 l 481 369 l 481 0 l 351 0 l 351 369 l 10 987 l 160 987 m 350 1053 l 481 1252 l 633 1252 l 451 1053 l 350 1053 z "},"Ŷ":{"ha":834,"x_min":10,"x_max":822,"o":"m 160 987 l 416 492 l 673 987 l 822 987 l 481 369 l 481 0 l 351 0 l 351 369 l 10 987 l 160 987 m 457 1252 l 625 1067 l 625 1060 l 521 1060 l 419 1175 l 318 1060 l 215 1060 l 215 1067 l 381 1252 l 457 1252 z "},"Ÿ":{"ha":834,"x_min":10,"x_max":822,"o":"m 160 987 l 416 492 l 673 987 l 822 987 l 481 369 l 481 0 l 351 0 l 351 369 l 10 987 l 160 987 m 201 1140 q 220 1192 201 1171 q 275 1213 239 1213 q 330 1192 311 1213 q 349 1140 349 1171 q 330 1090 349 1111 q 275 1069 311 1069 q 220 1090 239 1069 q 201 1140 201 1111 m 493 1139 q 512 1190 493 1169 q 567 1211 530 1211 q 622 1190 603 1211 q 642 1139 642 1169 q 622 1089 642 1109 q 567 1068 603 1068 q 512 1089 530 1068 q 493 1139 493 1109 z "},"Z":{"ha":832,"x_min":59,"x_max":777,"o":"m 777 106 l 777 0 l 59 0 l 59 98 l 600 880 l 68 880 l 68 987 l 755 987 l 755 892 l 213 106 l 777 106 z "},"Ź":{"ha":832,"x_min":59,"x_max":777,"o":"m 777 106 l 777 0 l 59 0 l 59 98 l 600 880 l 68 880 l 68 987 l 755 987 l 755 892 l 213 106 l 777 106 m 349 1053 l 480 1253 l 631 1253 l 450 1053 l 349 1053 z "},"Ž":{"ha":832,"x_min":59,"x_max":777,"o":"m 777 106 l 777 0 l 59 0 l 59 98 l 600 880 l 68 880 l 68 987 l 755 987 l 755 892 l 213 106 l 777 106 m 315 1252 l 417 1137 l 519 1252 l 628 1252 l 628 1245 l 456 1059 l 378 1059 l 209 1245 l 209 1252 l 315 1252 z "},"Ż":{"ha":832,"x_min":59,"x_max":777,"o":"m 777 106 l 777 0 l 59 0 l 59 98 l 600 880 l 68 880 l 68 987 l 755 987 l 755 892 l 213 106 l 777 106 m 344 1139 q 362 1190 344 1168 q 418 1211 381 1211 q 473 1190 454 1211 q 492 1139 492 1168 q 473 1088 492 1109 q 418 1067 454 1067 q 362 1088 381 1067 q 344 1139 344 1109 z "},"a":{"ha":755,"x_min":74,"x_max":680,"o":"m 549 0 q 538 34 543 14 q 531 77 534 55 q 443 13 496 40 q 322 -14 390 -14 q 192 16 248 -14 q 105 94 136 45 q 74 204 74 143 q 163 384 74 322 q 404 445 253 445 l 528 445 l 528 503 q 489 607 528 568 q 374 646 450 646 q 259 611 302 646 q 215 530 215 576 l 90 530 q 125 633 90 583 q 227 715 161 683 q 381 747 292 747 q 577 686 500 747 q 654 502 654 625 l 654 160 q 660 82 654 123 q 680 11 667 41 l 680 0 l 549 0 m 340 96 q 458 130 408 96 q 528 205 508 164 l 528 357 l 425 357 q 258 323 317 357 q 200 221 200 290 q 235 133 200 169 q 340 96 271 96 z "},"á":{"ha":755,"x_min":74,"x_max":680,"o":"m 549 0 q 538 34 543 14 q 531 77 534 55 q 443 13 496 40 q 322 -14 390 -14 q 192 16 248 -14 q 105 94 136 45 q 74 204 74 143 q 163 384 74 322 q 404 445 253 445 l 528 445 l 528 503 q 489 607 528 568 q 374 646 450 646 q 259 611 302 646 q 215 530 215 576 l 90 530 q 125 633 90 583 q 227 715 161 683 q 381 747 292 747 q 577 686 500 747 q 654 502 654 625 l 654 160 q 660 82 654 123 q 680 11 667 41 l 680 0 l 549 0 m 340 96 q 458 130 408 96 q 528 205 508 164 l 528 357 l 425 357 q 258 323 317 357 q 200 221 200 290 q 235 133 200 169 q 340 96 271 96 m 326 842 l 457 1042 l 608 1042 l 427 842 l 326 842 z "},"ă":{"ha":755,"x_min":74,"x_max":680,"o":"m 549 0 q 538 34 543 14 q 531 77 534 55 q 443 13 496 40 q 322 -14 390 -14 q 192 16 248 -14 q 105 94 136 45 q 74 204 74 143 q 163 384 74 322 q 404 445 253 445 l 528 445 l 528 503 q 489 607 528 568 q 374 646 450 646 q 259 611 302 646 q 215 530 215 576 l 90 530 q 125 633 90 583 q 227 715 161 683 q 381 747 292 747 q 577 686 500 747 q 654 502 654 625 l 654 160 q 660 82 654 123 q 680 11 667 41 l 680 0 l 549 0 m 340 96 q 458 130 408 96 q 528 205 508 164 l 528 357 l 425 357 q 258 323 317 357 q 200 221 200 290 q 235 133 200 169 q 340 96 271 96 m 496 1014 l 597 1014 q 543 883 597 934 q 395 833 489 833 q 247 883 301 833 q 192 1014 192 934 l 294 1014 q 317 943 294 974 q 395 913 340 913 q 473 943 450 913 q 496 1014 496 974 z "},"â":{"ha":755,"x_min":74,"x_max":680,"o":"m 549 0 q 538 34 543 14 q 531 77 534 55 q 443 13 496 40 q 322 -14 390 -14 q 192 16 248 -14 q 105 94 136 45 q 74 204 74 143 q 163 384 74 322 q 404 445 253 445 l 528 445 l 528 503 q 489 607 528 568 q 374 646 450 646 q 259 611 302 646 q 215 530 215 576 l 90 530 q 125 633 90 583 q 227 715 161 683 q 381 747 292 747 q 577 686 500 747 q 654 502 654 625 l 654 160 q 660 82 654 123 q 680 11 667 41 l 680 0 l 549 0 m 340 96 q 458 130 408 96 q 528 205 508 164 l 528 357 l 425 357 q 258 323 317 357 q 200 221 200 290 q 235 133 200 169 q 340 96 271 96 m 433 1042 l 601 857 l 601 850 l 496 850 l 395 964 l 294 850 l 191 850 l 191 857 l 357 1042 l 433 1042 z "},"´":{"ha":435,"x_min":83,"x_max":366,"o":"m 83 842 l 215 1042 l 366 1042 l 184 842 l 83 842 z "},"́":{"ha":0,"x_min":-446,"x_max":-163,"o":"m -446 842 l -315 1042 l -163 1042 l -345 842 l -446 842 z "},"ä":{"ha":755,"x_min":74,"x_max":680,"o":"m 549 0 q 538 34 543 14 q 531 77 534 55 q 443 13 496 40 q 322 -14 390 -14 q 192 16 248 -14 q 105 94 136 45 q 74 204 74 143 q 163 384 74 322 q 404 445 253 445 l 528 445 l 528 503 q 489 607 528 568 q 374 646 450 646 q 259 611 302 646 q 215 530 215 576 l 90 530 q 125 633 90 583 q 227 715 161 683 q 381 747 292 747 q 577 686 500 747 q 654 502 654 625 l 654 160 q 660 82 654 123 q 680 11 667 41 l 680 0 l 549 0 m 340 96 q 458 130 408 96 q 528 205 508 164 l 528 357 l 425 357 q 258 323 317 357 q 200 221 200 290 q 235 133 200 169 q 340 96 271 96 m 176 930 q 195 981 176 960 q 250 1002 214 1002 q 306 981 287 1002 q 325 930 325 960 q 306 880 325 901 q 250 859 287 859 q 195 880 214 859 q 176 930 176 901 m 469 928 q 487 980 469 959 q 543 1001 506 1001 q 598 980 578 1001 q 617 928 617 959 q 598 879 617 899 q 543 858 578 858 q 487 879 506 858 q 469 928 469 899 z "},"æ":{"ha":1173,"x_min":54,"x_max":1126,"o":"m 857 -14 q 698 18 766 -14 q 587 109 630 51 q 480 24 552 63 q 294 -14 408 -14 q 116 46 178 -14 q 54 206 54 106 q 131 372 54 313 q 357 431 208 431 l 508 431 l 508 488 q 471 603 508 561 q 363 644 433 644 q 242 606 287 644 q 197 515 197 568 l 73 528 q 109 641 73 591 q 211 719 146 690 q 363 747 277 747 q 501 719 441 747 q 594 635 561 691 q 696 718 636 688 q 827 747 756 748 q 1049 659 972 747 q 1126 418 1126 570 l 1126 338 l 633 338 q 660 212 635 269 q 732 122 684 155 q 857 89 781 89 q 987 114 937 89 q 1070 161 1036 138 l 1114 69 q 1066 38 1099 58 q 981 2 1034 18 q 857 -14 929 -14 m 827 644 q 696 584 745 644 q 636 434 647 524 l 1000 434 l 1000 455 q 983 549 1000 507 q 928 618 966 592 q 827 644 890 644 m 319 88 q 424 115 370 88 q 508 175 477 142 l 508 336 l 359 336 q 224 296 270 336 q 179 203 179 256 q 213 122 179 155 q 319 88 248 88 z "},"ǽ":{"ha":1173,"x_min":54,"x_max":1126,"o":"m 857 -14 q 698 18 766 -14 q 587 109 630 51 q 480 24 552 63 q 294 -14 408 -14 q 116 46 178 -14 q 54 206 54 106 q 131 372 54 313 q 357 431 208 431 l 508 431 l 508 488 q 471 603 508 561 q 363 644 433 644 q 242 606 287 644 q 197 515 197 568 l 73 528 q 109 641 73 591 q 211 719 146 690 q 363 747 277 747 q 501 719 441 747 q 594 635 561 691 q 696 718 636 688 q 827 747 756 748 q 1049 659 972 747 q 1126 418 1126 570 l 1126 338 l 633 338 q 660 212 635 269 q 732 122 684 155 q 857 89 781 89 q 987 114 937 89 q 1070 161 1036 138 l 1114 69 q 1066 38 1099 58 q 981 2 1034 18 q 857 -14 929 -14 m 827 644 q 696 584 745 644 q 636 434 647 524 l 1000 434 l 1000 455 q 983 549 1000 507 q 928 618 966 592 q 827 644 890 644 m 319 88 q 424 115 370 88 q 508 175 477 142 l 508 336 l 359 336 q 224 296 270 336 q 179 203 179 256 q 213 122 179 155 q 319 88 248 88 m 513 843 l 645 1042 l 796 1042 l 614 843 l 513 843 z "},"‏":{"ha":0,"x_min":0,"x_max":0,"o":""},"‎":{"ha":0,"x_min":0,"x_max":0,"o":""},"‍":{"ha":0,"x_min":0,"x_max":0,"o":""},"₪":{"ha":1071,"x_min":95,"x_max":976,"o":"m 95 734 l 474 734 q 646 673 583 734 q 709 460 709 612 l 709 237 l 583 237 l 583 461 q 546 593 583 555 q 437 631 508 631 l 221 631 l 221 0 l 95 0 l 95 734 m 741 0 l 362 0 l 362 498 l 488 498 l 488 103 l 703 103 q 813 141 775 103 q 850 273 850 178 l 850 734 l 976 734 l 976 274 q 912 61 976 122 q 741 0 849 0 z "},"‌":{"ha":0,"x_min":0,"x_max":0,"o":""},"à":{"ha":755,"x_min":74,"x_max":680,"o":"m 549 0 q 538 34 543 14 q 531 77 534 55 q 443 13 496 40 q 322 -14 390 -14 q 192 16 248 -14 q 105 94 136 45 q 74 204 74 143 q 163 384 74 322 q 404 445 253 445 l 528 445 l 528 503 q 489 607 528 568 q 374 646 450 646 q 259 611 302 646 q 215 530 215 576 l 90 530 q 125 633 90 583 q 227 715 161 683 q 381 747 292 747 q 577 686 500 747 q 654 502 654 625 l 654 160 q 660 82 654 123 q 680 11 667 41 l 680 0 l 549 0 m 340 96 q 458 130 408 96 q 528 205 508 164 l 528 357 l 425 357 q 258 323 317 357 q 200 221 200 290 q 235 133 200 169 q 340 96 271 96 m 335 1042 l 466 842 l 358 842 l 183 1042 l 335 1042 z "},"ā":{"ha":755,"x_min":74,"x_max":680,"o":"m 549 0 q 538 34 543 14 q 531 77 534 55 q 443 13 496 40 q 322 -14 390 -14 q 192 16 248 -14 q 105 94 136 45 q 74 204 74 143 q 163 384 74 322 q 404 445 253 445 l 528 445 l 528 503 q 489 607 528 568 q 374 646 450 646 q 259 611 302 646 q 215 530 215 576 l 90 530 q 125 633 90 583 q 227 715 161 683 q 381 747 292 747 q 577 686 500 747 q 654 502 654 625 l 654 160 q 660 82 654 123 q 680 11 667 41 l 680 0 l 549 0 m 340 96 q 458 130 408 96 q 528 205 508 164 l 528 357 l 425 357 q 258 323 317 357 q 200 221 200 290 q 235 133 200 169 q 340 96 271 96 m 626 985 l 626 889 l 171 889 l 171 985 l 626 985 z "},"&":{"ha":864,"x_min":69,"x_max":859,"o":"m 709 0 l 644 78 q 524 9 593 33 q 388 -14 456 -14 q 218 22 290 -14 q 108 121 146 58 q 69 266 69 184 q 122 415 69 354 q 260 535 176 475 q 179 650 210 596 q 149 762 149 703 q 217 939 149 877 q 397 1001 285 1001 q 522 972 469 1001 q 603 896 574 943 q 631 793 631 849 q 594 671 631 721 q 497 578 557 622 l 423 523 l 643 260 q 677 350 665 301 q 689 456 689 399 l 802 456 q 781 299 802 372 q 718 169 761 227 l 859 0 l 709 0 m 275 766 q 297 688 275 728 q 355 603 319 648 l 426 653 q 492 712 469 682 q 515 793 515 741 q 484 866 515 833 q 396 899 453 899 q 306 859 336 899 q 275 766 275 819 m 195 266 q 242 142 195 194 q 388 90 290 90 q 570 165 488 90 l 330 453 l 301 432 q 230 363 252 396 q 201 306 208 331 q 195 266 195 281 z "},"ą":{"ha":755,"x_min":74,"x_max":680,"o":"m 672 -264 q 629 -284 655 -275 q 563 -294 603 -294 q 470 -261 508 -294 q 433 -165 433 -229 q 460 -77 433 -121 q 547 5 487 -33 q 537 38 541 19 q 531 77 533 57 q 443 13 496 40 q 322 -14 390 -14 q 192 16 248 -14 q 105 94 136 45 q 74 204 74 143 q 163 384 74 322 q 404 445 253 445 l 528 445 l 528 503 q 489 607 528 568 q 374 646 450 646 q 259 611 302 646 q 215 530 215 576 l 90 530 q 125 633 90 583 q 227 715 161 683 q 381 747 292 747 q 577 686 500 747 q 654 502 654 625 l 654 160 q 660 82 654 123 q 680 11 667 41 l 680 0 l 658 0 q 578 -70 614 -33 q 542 -151 542 -106 q 554 -186 542 -173 q 595 -200 566 -200 q 635 -194 617 -200 q 663 -182 652 -187 l 672 -264 m 340 96 q 458 130 408 96 q 528 205 508 164 l 528 357 l 425 357 q 258 323 317 357 q 200 221 200 290 q 235 133 200 169 q 340 96 271 96 z "},"≈":{"ha":783,"x_min":68,"x_max":703,"o":"m 70 483 l 69 611 q 146 666 101 646 q 235 686 191 686 q 320 672 290 687 q 394 636 351 658 q 463 602 434 616 q 542 589 492 589 q 628 612 586 589 q 702 675 670 635 l 703 547 q 629 493 671 513 q 543 473 587 473 q 464 487 492 473 q 395 520 435 500 q 321 556 352 542 q 235 570 290 571 q 146 547 191 570 q 70 483 102 524 m 69 200 l 68 328 q 145 382 100 363 q 235 402 191 402 q 320 389 289 404 q 393 353 351 374 q 462 319 433 332 q 541 306 491 306 q 627 329 585 306 q 701 393 669 352 l 702 264 q 628 210 670 229 q 542 190 586 190 q 463 203 492 190 q 394 237 434 216 q 320 273 351 258 q 235 287 289 288 q 146 264 191 287 q 69 200 101 241 z "},"å":{"ha":755,"x_min":74,"x_max":680,"o":"m 549 0 q 538 34 543 14 q 531 77 534 55 q 443 13 496 40 q 322 -14 390 -14 q 192 16 248 -14 q 105 94 136 45 q 74 204 74 143 q 163 384 74 322 q 404 445 253 445 l 528 445 l 528 503 q 489 607 528 568 q 374 646 450 646 q 259 611 302 646 q 215 530 215 576 l 90 530 q 125 633 90 583 q 227 715 161 683 q 381 747 292 747 q 577 686 500 747 q 654 502 654 625 l 654 160 q 660 82 654 123 q 680 11 667 41 l 680 0 l 549 0 m 340 96 q 458 130 408 96 q 528 205 508 164 l 528 357 l 425 357 q 258 323 317 357 q 200 221 200 290 q 235 133 200 169 q 340 96 271 96 m 249 963 q 291 1063 249 1021 q 395 1104 333 1104 q 498 1063 456 1104 q 541 963 541 1021 q 498 864 541 903 q 395 825 456 825 q 291 864 333 825 q 249 963 249 903 m 316 963 q 338 909 316 933 q 395 885 360 885 q 451 908 429 885 q 473 963 473 932 q 451 1019 473 995 q 395 1043 429 1043 q 338 1019 360 1043 q 316 963 316 995 z "},"ǻ":{"ha":755,"x_min":74,"x_max":680,"o":"m 549 0 q 538 34 543 14 q 531 77 534 55 q 443 13 496 40 q 322 -14 390 -14 q 192 16 248 -14 q 105 94 136 45 q 74 204 74 143 q 163 384 74 322 q 404 445 253 445 l 528 445 l 528 503 q 489 607 528 568 q 374 646 450 646 q 259 611 302 646 q 215 530 215 576 l 90 530 q 125 633 90 583 q 227 715 161 683 q 381 747 292 747 q 577 686 500 747 q 654 502 654 625 l 654 160 q 660 82 654 123 q 680 11 667 41 l 680 0 l 549 0 m 340 96 q 458 130 408 96 q 528 205 508 164 l 528 357 l 425 357 q 258 323 317 357 q 200 221 200 290 q 235 133 200 169 q 340 96 271 96 m 368 981 l 467 1105 l 595 1105 l 446 981 l 368 981 m 281 834 q 315 916 281 884 q 397 947 349 947 q 477 916 444 947 q 511 834 511 884 q 477 754 511 785 q 397 724 444 724 q 315 754 349 724 q 281 834 281 785 m 338 834 q 355 794 338 810 q 397 777 373 777 q 437 794 420 777 q 454 834 454 810 q 437 877 454 860 q 397 894 420 894 q 355 877 373 894 q 338 834 338 860 z "},"^":{"ha":581,"x_min":43,"x_max":535,"o":"m 418 494 l 290 822 l 160 494 l 43 494 l 246 987 l 333 987 l 535 494 l 418 494 z "},"~":{"ha":945,"x_min":89,"x_max":857,"o":"m 753 527 l 857 528 q 828 400 857 458 q 751 308 800 342 q 637 273 701 273 q 533 297 578 273 q 435 367 488 321 q 371 416 400 399 q 308 434 342 434 q 227 397 256 434 q 198 297 198 361 l 89 296 q 117 423 89 367 q 194 512 144 479 q 308 545 243 545 q 414 519 368 545 q 510 450 460 494 q 575 400 547 416 q 637 383 604 383 q 721 423 689 383 q 753 527 753 463 z "},"*":{"ha":598,"x_min":19,"x_max":579,"o":"m 87 480 l 224 667 l 19 728 l 51 830 l 256 755 l 250 988 l 353 988 l 346 751 l 548 826 l 579 722 l 371 661 l 505 477 l 420 414 l 295 609 l 172 418 l 87 480 z "},"@":{"ha":1247,"x_min":71,"x_max":1185,"o":"m 1177 341 q 1158 216 1175 279 q 1109 101 1142 153 q 1025 17 1077 49 q 900 -14 973 -14 q 795 16 836 -14 q 737 101 754 47 q 653 15 701 44 q 555 -14 606 -14 q 408 68 456 -14 q 373 283 361 150 q 427 490 384 403 q 534 624 471 576 q 667 671 597 671 q 782 650 740 671 q 862 600 824 629 l 827 224 q 835 124 822 158 q 870 78 848 90 q 914 66 892 66 q 1007 103 969 66 q 1065 203 1044 140 q 1090 341 1086 265 q 996 738 1101 595 q 654 882 890 882 q 407 811 512 882 q 243 615 302 741 q 177 324 184 490 q 217 33 169 155 q 365 -156 266 -90 q 608 -222 464 -222 q 729 -208 668 -222 q 832 -170 791 -194 l 858 -247 q 740 -292 810 -277 q 606 -307 669 -307 q 313 -231 434 -307 q 131 -12 192 -154 q 79 324 71 130 q 128 582 85 464 q 246 787 171 699 q 425 922 321 874 q 657 970 529 970 q 950 893 831 970 q 1127 675 1069 817 q 1177 341 1185 534 m 481 283 q 499 136 472 188 q 587 83 527 83 q 661 115 621 83 q 727 218 700 146 q 728 224 728 220 l 759 564 q 722 578 742 573 q 677 584 701 584 q 549 508 604 584 q 481 283 494 432 z "},"ã":{"ha":755,"x_min":74,"x_max":680,"o":"m 549 0 q 538 34 543 14 q 531 77 534 55 q 443 13 496 40 q 322 -14 390 -14 q 192 16 248 -14 q 105 94 136 45 q 74 204 74 143 q 163 384 74 322 q 404 445 253 445 l 528 445 l 528 503 q 489 607 528 568 q 374 646 450 646 q 259 611 302 646 q 215 530 215 576 l 90 530 q 125 633 90 583 q 227 715 161 683 q 381 747 292 747 q 577 686 500 747 q 654 502 654 625 l 654 160 q 660 82 654 123 q 680 11 667 41 l 680 0 l 549 0 m 340 96 q 458 130 408 96 q 528 205 508 164 l 528 357 l 425 357 q 258 323 317 357 q 200 221 200 290 q 235 133 200 169 q 340 96 271 96 m 551 1028 l 635 1021 q 593 901 635 946 q 489 856 551 856 q 432 866 454 856 q 392 888 410 876 q 355 910 374 901 q 307 920 336 920 q 259 899 279 920 q 240 845 240 877 l 155 849 q 197 970 155 924 q 301 1017 239 1017 q 367 1001 340 1017 q 420 968 394 985 q 483 952 447 952 q 531 974 511 952 q 551 1028 551 996 z "},"b":{"ha":780,"x_min":95,"x_max":717,"o":"m 717 373 l 717 359 q 683 168 717 252 q 586 35 650 83 q 431 -14 522 -14 q 306 12 359 -14 q 217 85 253 37 l 210 0 l 95 0 l 95 1042 l 221 1042 l 221 654 q 309 723 257 699 q 430 747 361 747 q 586 701 522 747 q 684 569 650 654 q 717 373 717 485 m 591 359 l 591 373 q 572 507 591 446 q 512 605 554 568 q 399 642 470 642 q 288 609 330 642 q 221 528 245 576 l 221 208 q 289 126 245 159 q 400 93 332 93 q 510 129 468 93 q 571 225 552 165 q 591 359 591 286 z "},"\\":{"ha":570,"x_min":28,"x_max":559,"o":"m 440 -85 l 28 987 l 147 987 l 559 -85 l 440 -85 z "},"|":{"ha":339,"x_min":119,"x_max":220,"o":"m 220 987 l 220 -183 l 119 -183 l 119 987 l 220 987 z "},"{":{"ha":470,"x_min":43,"x_max":455,"o":"m 455 -170 l 429 -248 q 284 -175 336 -222 q 209 -66 231 -128 q 187 67 187 -4 l 187 207 q 154 325 187 281 q 43 368 120 368 l 43 467 q 154 510 120 467 q 187 627 187 553 l 187 768 q 209 901 187 839 q 284 1010 231 963 q 429 1083 336 1057 l 455 1006 q 344 916 374 981 q 313 768 313 851 l 313 627 q 286 504 313 559 q 200 417 259 449 q 286 330 259 386 q 313 207 313 275 l 313 67 q 344 -80 313 -16 q 455 -170 375 -144 z "},"}":{"ha":470,"x_min":14,"x_max":425,"o":"m 40 -248 l 14 -170 q 125 -80 94 -144 q 155 67 155 -16 l 155 207 q 185 333 155 278 q 279 417 214 388 q 185 502 214 446 q 155 627 155 557 l 155 768 q 125 916 155 851 q 14 1006 94 981 l 40 1083 q 185 1010 133 1057 q 260 901 238 963 q 281 768 281 839 l 281 627 q 315 510 281 553 q 425 467 349 467 l 425 368 q 315 325 349 368 q 281 207 281 281 l 281 67 q 260 -66 281 -4 q 185 -175 238 -128 q 40 -248 133 -222 z "},"[":{"ha":368,"x_min":106,"x_max":355,"o":"m 355 1025 l 225 1025 l 225 -109 l 355 -109 l 355 -212 l 106 -212 l 106 1128 l 355 1128 l 355 1025 z "},"]":{"ha":368,"x_min":6,"x_max":256,"o":"m 6 1128 l 256 1128 l 256 -212 l 6 -212 l 6 -109 l 137 -109 l 137 1025 l 6 1025 l 6 1128 z "},"˘":{"ha":593,"x_min":88,"x_max":494,"o":"m 392 1014 l 494 1014 q 439 883 494 934 q 292 833 385 833 q 143 883 197 833 q 88 1014 88 934 l 190 1014 q 213 943 190 974 q 292 913 236 913 q 369 943 346 913 q 392 1014 392 974 z "},"¦":{"ha":334,"x_min":100,"x_max":226,"o":"m 226 987 l 226 473 l 100 473 l 100 987 l 226 987 m 226 -183 l 100 -183 l 100 354 l 226 354 l 226 -183 z "},"•":{"ha":469,"x_min":94,"x_max":371,"o":"m 94 496 l 94 524 q 131 621 94 583 q 232 659 168 659 q 334 621 296 659 q 371 524 371 583 l 371 496 q 334 401 371 439 q 233 363 297 363 q 132 401 169 363 q 94 496 94 439 z "},"c":{"ha":727,"x_min":63,"x_max":682,"o":"m 389 90 q 507 130 456 90 q 562 232 557 170 l 682 232 q 638 111 678 167 q 532 21 597 55 q 389 -14 467 -14 q 207 37 279 -14 q 99 171 134 87 q 63 353 63 254 l 63 381 q 99 563 63 479 q 207 697 134 646 q 389 747 279 747 q 540 712 475 747 q 641 617 604 677 q 682 481 678 557 l 562 481 q 511 597 557 549 q 389 644 465 644 q 268 605 312 644 q 207 505 224 566 q 189 381 189 445 l 189 353 q 206 228 189 288 q 268 129 224 168 q 389 90 311 90 z "},"ć":{"ha":727,"x_min":63,"x_max":682,"o":"m 389 90 q 507 130 456 90 q 562 232 557 170 l 682 232 q 638 111 678 167 q 532 21 597 55 q 389 -14 467 -14 q 207 37 279 -14 q 99 171 134 87 q 63 353 63 254 l 63 381 q 99 563 63 479 q 207 697 134 646 q 389 747 279 747 q 540 712 475 747 q 641 617 604 677 q 682 481 678 557 l 562 481 q 511 597 557 549 q 389 644 465 644 q 268 605 312 644 q 207 505 224 566 q 189 381 189 445 l 189 353 q 206 228 189 288 q 268 129 224 168 q 389 90 311 90 m 292 842 l 424 1042 l 575 1042 l 393 842 l 292 842 z "},"ˇ":{"ha":617,"x_min":96,"x_max":515,"o":"m 202 1041 l 304 926 l 407 1041 l 515 1041 l 515 1034 l 343 848 l 266 848 l 96 1034 l 96 1041 l 202 1041 z "},"č":{"ha":727,"x_min":63,"x_max":682,"o":"m 389 90 q 507 130 456 90 q 562 232 557 170 l 682 232 q 638 111 678 167 q 532 21 597 55 q 389 -14 467 -14 q 207 37 279 -14 q 99 171 134 87 q 63 353 63 254 l 63 381 q 99 563 63 479 q 207 697 134 646 q 389 747 279 747 q 540 712 475 747 q 641 617 604 677 q 682 481 678 557 l 562 481 q 511 597 557 549 q 389 644 465 644 q 268 605 312 644 q 207 505 224 566 q 189 381 189 445 l 189 353 q 206 228 189 288 q 268 129 224 168 q 389 90 311 90 m 258 1041 l 361 926 l 463 1041 l 572 1041 l 572 1034 l 399 848 l 322 848 l 153 1034 l 153 1041 l 258 1041 z "},"ç":{"ha":727,"x_min":63,"x_max":682,"o":"m 389 90 q 507 130 456 90 q 562 232 557 170 l 682 232 q 638 111 678 167 q 532 21 597 55 q 389 -14 467 -14 q 207 37 279 -14 q 99 171 134 87 q 63 353 63 254 l 63 381 q 99 563 63 479 q 207 697 134 646 q 389 747 279 747 q 540 712 475 747 q 641 617 604 677 q 682 481 678 557 l 562 481 q 511 597 557 549 q 389 644 465 644 q 268 605 312 644 q 207 505 224 566 q 189 381 189 445 l 189 353 q 206 228 189 288 q 268 129 224 168 q 389 90 311 90 m 320 -7 l 410 -7 l 402 -43 q 474 -75 441 -50 q 506 -160 506 -101 q 454 -263 506 -224 q 300 -302 401 -302 l 296 -229 q 375 -214 342 -229 q 408 -162 408 -198 q 382 -116 408 -128 q 299 -98 356 -103 l 320 -7 z "},"ĉ":{"ha":727,"x_min":63,"x_max":682,"o":"m 389 90 q 507 130 456 90 q 562 232 557 170 l 682 232 q 638 111 678 167 q 532 21 597 55 q 389 -14 467 -14 q 207 37 279 -14 q 99 171 134 87 q 63 353 63 254 l 63 381 q 99 563 63 479 q 207 697 134 646 q 389 747 279 747 q 540 712 475 747 q 641 617 604 677 q 682 481 678 557 l 562 481 q 511 597 557 549 q 389 644 465 644 q 268 605 312 644 q 207 505 224 566 q 189 381 189 445 l 189 353 q 206 228 189 288 q 268 129 224 168 q 389 90 311 90 m 399 1042 l 568 857 l 568 850 l 463 850 l 361 964 l 260 850 l 157 850 l 157 857 l 323 1042 l 399 1042 z "},"¸":{"ha":345,"x_min":79,"x_max":289,"o":"m 103 0 l 193 0 l 185 -36 q 257 -68 224 -43 q 289 -153 289 -94 q 237 -256 289 -217 q 83 -295 184 -295 l 79 -222 q 158 -207 125 -222 q 191 -155 191 -191 q 165 -109 191 -121 q 82 -92 139 -96 l 103 0 z "},"¢":{"ha":760,"x_min":71,"x_max":690,"o":"m 398 90 q 516 130 465 90 q 571 232 566 170 l 690 232 q 655 124 687 174 q 571 39 623 74 q 454 -9 519 3 l 454 -166 l 328 -166 l 328 -7 q 184 61 241 9 q 99 189 127 113 q 71 353 71 265 l 71 381 q 99 545 71 469 q 184 673 127 621 q 328 741 241 725 l 328 894 l 454 894 l 454 743 q 623 654 559 726 q 690 481 686 582 l 571 481 q 520 597 566 549 q 398 644 473 644 q 277 605 321 644 q 215 505 233 566 q 197 381 197 445 l 197 353 q 215 228 197 288 q 276 129 233 168 q 398 90 320 90 z "},"ˆ":{"ha":654,"x_min":115,"x_max":526,"o":"m 357 1042 l 526 857 l 526 850 l 421 850 l 319 964 l 218 850 l 115 850 l 115 857 l 281 1042 l 357 1042 z "},":":{"ha":377,"x_min":98,"x_max":279,"o":"m 98 490 q 125 554 98 527 q 189 581 151 581 q 252 554 226 581 q 279 490 279 527 q 252 426 279 452 q 189 399 226 399 q 125 425 151 399 q 98 490 98 451 m 98 91 q 125 155 98 128 q 189 182 151 182 q 252 155 226 182 q 279 91 279 128 q 252 27 279 54 q 189 1 226 1 q 125 26 151 1 q 98 91 98 52 z "},",":{"ha":273,"x_min":20,"x_max":210,"o":"m 210 149 l 210 48 q 178 -82 210 -14 q 91 -197 147 -151 l 20 -148 q 69 -56 52 -103 q 87 46 87 -9 l 87 149 l 210 149 z "},"©":{"ha":1091,"x_min":62,"x_max":1025,"o":"m 62 494 q 100 694 62 602 q 203 856 137 787 q 357 963 270 924 q 544 1001 444 1001 q 731 963 644 1001 q 884 856 818 924 q 987 694 950 787 q 1025 494 1025 602 q 987 294 1025 387 q 884 133 950 202 q 731 24 818 63 q 544 -14 644 -14 q 357 24 444 -14 q 203 133 270 63 q 100 294 137 202 q 62 494 62 387 m 140 494 q 172 326 140 404 q 258 190 203 248 q 387 99 314 132 q 544 66 460 66 q 700 99 627 66 q 828 190 773 132 q 915 326 884 248 q 946 494 946 404 q 915 663 946 585 q 828 798 884 740 q 700 888 773 856 q 544 920 627 920 q 387 888 460 920 q 258 798 314 856 q 172 663 203 740 q 140 494 140 585 m 661 406 l 760 406 q 699 246 760 299 q 534 193 638 193 q 363 266 427 193 q 300 455 300 338 l 300 533 q 363 723 300 650 q 534 795 427 795 q 699 743 638 795 q 760 583 760 690 l 661 583 q 629 680 661 650 q 534 709 597 709 q 432 660 467 709 q 397 534 397 610 l 397 455 q 432 329 397 378 q 534 279 467 279 q 629 309 597 279 q 661 406 661 338 z "},"¤":{"ha":991,"x_min":71,"x_max":930,"o":"m 95 412 q 115 547 95 484 q 171 663 135 611 l 71 765 l 160 857 l 259 756 q 370 815 309 794 q 498 837 431 837 q 628 815 566 837 q 739 755 689 793 l 840 858 l 930 765 l 827 661 q 882 546 863 609 q 902 412 902 483 q 884 284 902 345 q 833 172 866 223 l 930 75 l 840 -18 l 748 76 q 633 10 696 34 q 498 -14 569 -14 q 365 10 429 -14 q 251 75 302 33 l 160 -18 l 71 75 l 165 170 q 114 282 132 221 q 95 412 95 344 m 212 412 q 250 257 212 327 q 354 145 289 186 q 498 103 419 103 q 643 145 578 103 q 746 257 708 186 q 785 412 785 327 q 746 568 785 498 q 643 679 708 637 q 498 720 578 720 q 354 679 419 720 q 250 568 289 637 q 212 412 212 498 z "},"d":{"ha":783,"x_min":64,"x_max":684,"o":"m 64 359 l 64 373 q 101 569 64 485 q 202 701 137 654 q 355 747 267 747 q 472 725 421 747 q 558 661 522 703 l 558 1042 l 684 1042 l 684 0 l 569 0 l 563 79 q 475 11 527 35 q 353 -14 422 -14 q 202 35 267 -14 q 101 168 137 83 q 64 359 64 252 m 191 373 l 191 359 q 211 225 191 286 q 274 129 231 165 q 385 93 317 93 q 492 123 450 93 q 558 199 533 153 l 558 537 q 492 612 534 583 q 386 642 450 642 q 274 605 317 642 q 211 507 231 568 q 191 373 191 446 z "},"†":{"ha":766,"x_min":47,"x_max":719,"o":"m 719 734 l 719 630 l 445 630 l 445 0 l 319 0 l 319 630 l 47 630 l 47 734 l 319 734 l 319 987 l 445 987 l 445 734 l 719 734 z "},"‡":{"ha":792,"x_min":59,"x_max":730,"o":"m 730 103 l 730 0 l 454 0 l 454 -282 l 329 -282 l 329 0 l 59 0 l 59 103 l 329 103 l 329 630 l 59 630 l 59 734 l 329 734 l 329 987 l 454 987 l 454 734 l 730 734 l 730 630 l 454 630 l 454 103 l 730 103 z "},"ď":{"ha":885,"x_min":64,"x_max":898,"o":"m 64 359 l 64 373 q 101 569 64 485 q 202 701 137 654 q 355 747 267 747 q 472 725 421 747 q 558 661 522 703 l 558 1042 l 684 1042 l 684 0 l 569 0 l 563 79 q 475 11 527 35 q 353 -14 422 -14 q 202 35 267 -14 q 101 168 137 83 q 64 359 64 252 m 191 373 l 191 359 q 211 225 191 286 q 274 129 231 165 q 385 93 317 93 q 492 123 450 93 q 558 199 533 153 l 558 537 q 492 612 534 583 q 386 642 450 642 q 274 605 317 642 q 211 507 231 568 q 191 373 191 446 m 898 1043 l 898 989 q 874 874 898 936 q 800 771 850 812 l 728 821 q 766 900 753 859 q 779 988 779 941 l 779 1043 l 898 1043 z "},"đ":{"ha":830,"x_min":64,"x_max":812,"o":"m 64 359 l 64 373 q 101 569 64 485 q 202 701 137 654 q 355 747 267 747 q 472 725 421 747 q 558 661 522 703 l 558 836 l 380 836 l 380 939 l 558 939 l 558 1042 l 684 1042 l 684 939 l 812 939 l 812 836 l 684 836 l 684 0 l 569 0 l 563 79 q 475 11 527 35 q 353 -14 422 -14 q 202 35 267 -14 q 101 168 137 83 q 64 359 64 252 m 191 373 l 191 359 q 211 225 191 286 q 274 129 231 165 q 385 93 317 93 q 492 123 450 93 q 558 199 533 153 l 558 537 q 492 612 534 583 q 386 642 450 642 q 274 605 317 642 q 211 507 231 568 q 191 373 191 446 z "},"°":{"ha":519,"x_min":89,"x_max":432,"o":"m 89 825 q 113 913 89 873 q 176 978 136 954 q 262 1002 215 1002 q 347 978 309 1002 q 409 913 386 954 q 432 825 432 873 q 409 738 432 777 q 347 674 386 698 q 262 651 309 651 q 176 674 215 651 q 113 738 136 698 q 89 825 89 777 m 173 825 q 199 763 173 788 q 262 738 225 738 q 323 763 298 738 q 348 825 348 788 q 323 889 348 863 q 262 915 298 915 q 199 889 225 915 q 173 825 173 863 z "},"¨":{"ha":581,"x_min":68,"x_max":509,"o":"m 68 930 q 87 981 68 960 q 142 1002 106 1002 q 198 981 179 1002 q 217 930 217 960 q 198 880 217 901 q 142 859 179 859 q 87 880 106 859 q 68 930 68 901 m 361 928 q 379 980 361 959 q 435 1001 398 1001 q 490 980 471 1001 q 509 928 509 959 q 490 879 509 899 q 435 858 471 858 q 379 879 398 858 q 361 928 361 899 z "},"÷":{"ha":789,"x_min":95,"x_max":694,"o":"m 318 577 q 341 633 318 610 q 397 657 365 657 q 453 633 430 657 q 477 577 477 610 q 453 521 477 545 q 397 498 430 498 q 341 521 365 498 q 318 577 318 544 m 95 303 l 95 406 l 694 406 l 694 303 l 95 303 m 318 128 q 341 184 318 161 q 397 208 365 208 q 453 184 430 208 q 477 128 477 161 q 453 72 477 96 q 397 49 430 49 q 341 72 365 49 q 318 128 318 95 z "},"$":{"ha":781,"x_min":75,"x_max":707,"o":"m 581 254 q 538 359 581 315 q 389 437 495 403 q 186 545 260 477 q 113 732 113 612 q 178 915 113 845 q 355 999 243 985 l 355 1147 l 457 1147 l 457 998 q 634 903 571 983 q 698 684 698 823 l 573 684 q 530 833 573 774 q 405 892 486 892 q 279 848 319 892 q 239 734 239 805 q 280 628 239 669 q 433 549 321 587 q 635 441 564 507 q 707 256 707 376 q 636 70 707 138 q 445 -12 565 1 l 445 -141 l 344 -141 l 344 -12 q 213 27 275 -5 q 113 124 151 60 q 75 291 75 188 l 201 291 q 230 172 201 214 q 302 113 258 130 q 390 96 346 96 q 531 139 481 96 q 581 254 581 182 z "},"˙":{"ha":338,"x_min":96,"x_max":245,"o":"m 96 928 q 115 979 96 958 q 170 1000 134 1000 q 225 979 206 1000 q 245 928 245 958 q 225 877 245 898 q 170 857 206 857 q 115 877 134 857 q 96 928 96 898 z "},"̣":{"ha":0,"x_min":-483,"x_max":-334,"o":"m -483 -167 q -464 -115 -483 -136 q -409 -94 -446 -94 q -354 -115 -373 -94 q -334 -167 -334 -136 q -354 -217 -334 -196 q -409 -237 -373 -237 q -464 -217 -446 -237 q -483 -167 -483 -196 z "},"ı":{"ha":344,"x_min":106,"x_max":231,"o":"m 231 734 l 231 0 l 106 0 l 106 734 l 231 734 z "},"e":{"ha":736,"x_min":63,"x_max":686,"o":"m 400 -14 q 222 32 298 -14 q 105 158 146 77 q 63 341 63 238 l 63 370 q 109 574 63 490 q 228 703 155 659 q 384 747 302 747 q 556 700 489 747 q 654 572 623 653 q 686 388 686 491 l 686 332 l 189 332 q 218 209 191 264 q 292 121 244 154 q 407 89 340 89 q 519 116 473 89 q 600 189 566 143 l 676 128 q 575 30 641 74 q 400 -14 509 -14 m 384 644 q 258 590 309 644 q 193 434 206 536 l 560 434 l 560 444 q 540 538 557 492 q 486 614 523 585 q 384 644 448 644 z "},"é":{"ha":736,"x_min":63,"x_max":686,"o":"m 400 -14 q 222 32 298 -14 q 105 158 146 77 q 63 341 63 238 l 63 370 q 109 574 63 490 q 228 703 155 659 q 384 747 302 747 q 556 700 489 747 q 654 572 623 653 q 686 388 686 491 l 686 332 l 189 332 q 218 209 191 264 q 292 121 244 154 q 407 89 340 89 q 519 116 473 89 q 600 189 566 143 l 676 128 q 575 30 641 74 q 400 -14 509 -14 m 384 644 q 258 590 309 644 q 193 434 206 536 l 560 434 l 560 444 q 540 538 557 492 q 486 614 523 585 q 384 644 448 644 m 314 842 l 446 1042 l 597 1042 l 415 842 l 314 842 z "},"ĕ":{"ha":736,"x_min":63,"x_max":686,"o":"m 400 -14 q 222 32 298 -14 q 105 158 146 77 q 63 341 63 238 l 63 370 q 109 574 63 490 q 228 703 155 659 q 384 747 302 747 q 556 700 489 747 q 654 572 623 653 q 686 388 686 491 l 686 332 l 189 332 q 218 209 191 264 q 292 121 244 154 q 407 89 340 89 q 519 116 473 89 q 600 189 566 143 l 676 128 q 575 30 641 74 q 400 -14 509 -14 m 384 644 q 258 590 309 644 q 193 434 206 536 l 560 434 l 560 444 q 540 538 557 492 q 486 614 523 585 q 384 644 448 644 m 484 1014 l 586 1014 q 532 883 586 934 q 384 833 477 833 q 235 883 290 833 q 180 1014 180 934 l 282 1014 q 305 943 282 974 q 384 913 328 913 q 461 943 438 913 q 484 1014 484 974 z "},"ě":{"ha":736,"x_min":63,"x_max":686,"o":"m 400 -14 q 222 32 298 -14 q 105 158 146 77 q 63 341 63 238 l 63 370 q 109 574 63 490 q 228 703 155 659 q 384 747 302 747 q 556 700 489 747 q 654 572 623 653 q 686 388 686 491 l 686 332 l 189 332 q 218 209 191 264 q 292 121 244 154 q 407 89 340 89 q 519 116 473 89 q 600 189 566 143 l 676 128 q 575 30 641 74 q 400 -14 509 -14 m 384 644 q 258 590 309 644 q 193 434 206 536 l 560 434 l 560 444 q 540 538 557 492 q 486 614 523 585 q 384 644 448 644 m 280 1041 l 382 926 l 485 1041 l 593 1041 l 593 1034 l 421 848 l 344 848 l 174 1034 l 174 1041 l 280 1041 z "},"ê":{"ha":736,"x_min":63,"x_max":686,"o":"m 400 -14 q 222 32 298 -14 q 105 158 146 77 q 63 341 63 238 l 63 370 q 109 574 63 490 q 228 703 155 659 q 384 747 302 747 q 556 700 489 747 q 654 572 623 653 q 686 388 686 491 l 686 332 l 189 332 q 218 209 191 264 q 292 121 244 154 q 407 89 340 89 q 519 116 473 89 q 600 189 566 143 l 676 128 q 575 30 641 74 q 400 -14 509 -14 m 384 644 q 258 590 309 644 q 193 434 206 536 l 560 434 l 560 444 q 540 538 557 492 q 486 614 523 585 q 384 644 448 644 m 421 1042 l 589 857 l 589 850 l 485 850 l 383 964 l 282 850 l 179 850 l 179 857 l 345 1042 l 421 1042 z "},"ë":{"ha":736,"x_min":63,"x_max":686,"o":"m 400 -14 q 222 32 298 -14 q 105 158 146 77 q 63 341 63 238 l 63 370 q 109 574 63 490 q 228 703 155 659 q 384 747 302 747 q 556 700 489 747 q 654 572 623 653 q 686 388 686 491 l 686 332 l 189 332 q 218 209 191 264 q 292 121 244 154 q 407 89 340 89 q 519 116 473 89 q 600 189 566 143 l 676 128 q 575 30 641 74 q 400 -14 509 -14 m 384 644 q 258 590 309 644 q 193 434 206 536 l 560 434 l 560 444 q 540 538 557 492 q 486 614 523 585 q 384 644 448 644 m 165 930 q 184 981 165 960 q 239 1002 203 1002 q 294 981 275 1002 q 313 930 313 960 q 294 880 313 901 q 239 859 275 859 q 184 880 203 859 q 165 930 165 901 m 457 928 q 476 980 457 959 q 531 1001 494 1001 q 586 980 567 1001 q 606 928 606 959 q 586 879 606 899 q 531 858 567 858 q 476 879 494 858 q 457 928 457 899 z "},"ė":{"ha":736,"x_min":63,"x_max":686,"o":"m 400 -14 q 222 32 298 -14 q 105 158 146 77 q 63 341 63 238 l 63 370 q 109 574 63 490 q 228 703 155 659 q 384 747 302 747 q 556 700 489 747 q 654 572 623 653 q 686 388 686 491 l 686 332 l 189 332 q 218 209 191 264 q 292 121 244 154 q 407 89 340 89 q 519 116 473 89 q 600 189 566 143 l 676 128 q 575 30 641 74 q 400 -14 509 -14 m 384 644 q 258 590 309 644 q 193 434 206 536 l 560 434 l 560 444 q 540 538 557 492 q 486 614 523 585 q 384 644 448 644 m 309 928 q 328 979 309 958 q 383 1000 347 1000 q 438 979 419 1000 q 458 928 458 958 q 438 877 458 898 q 383 857 419 857 q 328 877 347 857 q 309 928 309 898 z "},"è":{"ha":736,"x_min":63,"x_max":686,"o":"m 400 -14 q 222 32 298 -14 q 105 158 146 77 q 63 341 63 238 l 63 370 q 109 574 63 490 q 228 703 155 659 q 384 747 302 747 q 556 700 489 747 q 654 572 623 653 q 686 388 686 491 l 686 332 l 189 332 q 218 209 191 264 q 292 121 244 154 q 407 89 340 89 q 519 116 473 89 q 600 189 566 143 l 676 128 q 575 30 641 74 q 400 -14 509 -14 m 384 644 q 258 590 309 644 q 193 434 206 536 l 560 434 l 560 444 q 540 538 557 492 q 486 614 523 585 q 384 644 448 644 m 323 1042 l 454 842 l 347 842 l 172 1042 l 323 1042 z "},"…":{"ha":929,"x_min":101,"x_max":859,"o":"m 101 90 q 127 154 101 127 q 191 181 154 181 q 255 154 229 181 q 281 90 281 127 q 255 26 281 53 q 191 0 229 0 q 127 26 154 0 q 101 90 101 52 m 397 90 q 424 154 397 127 q 488 181 450 181 q 551 154 525 181 q 578 90 578 127 q 551 26 578 53 q 488 0 525 0 q 424 26 450 0 q 397 90 397 52 m 679 90 q 705 154 679 127 q 769 181 732 181 q 833 154 806 181 q 859 90 859 127 q 833 26 859 53 q 769 0 806 0 q 705 26 732 0 q 679 90 679 52 z "},"ē":{"ha":736,"x_min":63,"x_max":686,"o":"m 400 -14 q 222 32 298 -14 q 105 158 146 77 q 63 341 63 238 l 63 370 q 109 574 63 490 q 228 703 155 659 q 384 747 302 747 q 556 700 489 747 q 654 572 623 653 q 686 388 686 491 l 686 332 l 189 332 q 218 209 191 264 q 292 121 244 154 q 407 89 340 89 q 519 116 473 89 q 600 189 566 143 l 676 128 q 575 30 641 74 q 400 -14 509 -14 m 384 644 q 258 590 309 644 q 193 434 206 536 l 560 434 l 560 444 q 540 538 557 492 q 486 614 523 585 q 384 644 448 644 m 614 985 l 614 889 l 159 889 l 159 985 l 614 985 z "},"—":{"ha":1085,"x_min":95,"x_max":990,"o":"m 990 300 l 95 300 l 95 403 l 990 403 l 990 300 z "},"–":{"ha":912,"x_min":95,"x_max":817,"o":"m 817 300 l 95 300 l 95 403 l 817 403 l 817 300 z "},"ŋ":{"ha":787,"x_min":99,"x_max":684,"o":"m 684 -60 q 626 -236 684 -175 q 465 -296 568 -296 q 426 -294 444 -296 q 388 -285 408 -292 l 397 -178 q 432 -184 408 -182 q 465 -186 456 -186 q 534 -155 509 -186 q 559 -60 559 -123 l 559 460 q 517 602 559 562 q 399 642 475 642 q 293 617 336 642 q 224 551 250 593 l 224 0 l 99 0 l 99 734 l 212 734 l 220 630 q 311 716 256 685 q 436 747 366 747 q 617 681 551 747 q 684 463 684 614 l 684 -60 z "},"ę":{"ha":736,"x_min":63,"x_max":686,"o":"m 565 -247 q 522 -267 548 -257 q 456 -277 496 -277 q 363 -244 401 -277 q 326 -147 326 -211 q 341 -79 326 -113 q 391 -14 357 -45 q 218 35 292 -12 q 103 160 144 81 q 63 341 63 239 l 63 370 q 109 574 63 490 q 228 703 155 659 q 384 747 302 747 q 556 700 489 747 q 654 572 623 653 q 686 388 686 491 l 686 332 l 189 332 q 218 209 191 264 q 292 121 244 154 q 407 89 340 89 q 519 116 473 89 q 600 189 566 143 l 676 128 q 624 67 655 96 q 550 17 593 37 q 471 -52 507 -16 q 435 -133 435 -89 q 447 -169 435 -155 q 488 -182 458 -182 q 528 -176 510 -182 q 555 -164 545 -170 l 565 -247 m 384 644 q 258 590 309 644 q 193 434 206 536 l 560 434 l 560 444 q 540 538 557 492 q 486 614 523 585 q 384 644 448 644 z "},"=":{"ha":762,"x_min":103,"x_max":669,"o":"m 669 430 l 103 430 l 103 532 l 669 532 l 669 430 m 669 169 l 103 169 l 103 271 l 669 271 l 669 169 z "},"℮":{"ha":884,"x_min":103,"x_max":794,"o":"m 708 134 l 709 64 q 589 7 652 28 q 458 -14 525 -14 q 320 16 385 -14 q 207 98 256 46 q 131 220 158 151 q 103 367 103 289 q 133 514 103 446 q 214 635 163 583 q 329 718 265 688 q 458 747 392 747 q 628 700 551 747 q 749 569 704 652 q 794 380 794 486 l 794 349 l 273 349 l 273 126 q 358 72 311 92 q 458 52 406 52 q 585 72 522 52 q 708 134 648 92 m 458 684 q 360 661 408 684 q 273 601 312 639 l 273 413 l 640 413 l 640 607 q 557 663 604 642 q 458 684 511 684 z "},"ð":{"ha":814,"x_min":85,"x_max":726,"o":"m 173 964 l 212 1072 q 493 941 374 1036 l 621 1028 l 670 961 l 556 884 q 681 684 636 799 q 726 429 726 570 l 726 363 q 685 166 726 252 q 572 34 644 81 q 408 -14 500 -14 q 240 31 313 -14 q 126 150 168 75 q 85 317 85 225 q 125 499 85 422 q 233 620 164 577 q 389 663 302 663 q 496 642 446 663 q 581 587 545 621 q 531 713 564 657 q 454 814 498 770 l 306 713 l 256 781 l 387 869 q 285 925 339 902 q 173 964 231 949 m 212 317 q 235 209 212 262 q 302 123 258 157 q 411 90 347 90 q 512 125 469 90 q 577 223 554 161 q 600 363 600 285 l 600 431 q 598 471 600 451 q 534 533 579 505 q 419 560 490 560 q 266 495 320 560 q 212 317 212 429 z "},"!":{"ha":377,"x_min":98,"x_max":279,"o":"m 123 937 l 257 937 l 239 297 l 141 297 l 123 937 m 98 91 q 125 155 98 128 q 189 182 151 182 q 252 155 226 182 q 279 91 279 128 q 252 27 279 54 q 189 1 226 1 q 125 26 151 1 q 98 91 98 52 z "},"‼":{"ha":716,"x_min":98,"x_max":637,"o":"m 123 937 l 257 937 l 239 297 l 141 297 l 123 937 m 98 91 q 125 155 98 128 q 189 182 151 182 q 252 155 226 182 q 279 91 279 128 q 252 27 279 54 q 189 1 226 1 q 125 26 151 1 q 98 91 98 52 m 481 937 l 615 937 l 597 297 l 499 297 l 481 937 m 456 91 q 483 155 456 128 q 547 182 509 182 q 610 155 584 182 q 637 91 637 128 q 610 27 637 54 q 547 1 584 1 q 483 26 509 1 q 456 91 456 52 z "},"¡":{"ha":339,"x_min":94,"x_max":243,"o":"m 243 675 q 224 625 243 646 q 169 604 205 604 q 114 625 133 604 q 94 675 94 646 q 114 726 94 705 q 169 747 133 747 q 224 726 205 747 q 243 675 243 705 m 106 -245 l 116 464 l 229 464 l 239 -245 l 106 -245 z "},"f":{"ha":483,"x_min":41,"x_max":485,"o":"m 283 0 l 157 0 l 157 637 l 41 637 l 41 734 l 157 734 l 157 811 q 221 993 157 930 q 398 1056 286 1056 q 485 1045 439 1056 l 478 943 q 410 949 450 949 q 316 913 350 949 q 283 811 283 878 l 283 734 l 439 734 l 439 637 l 283 637 l 283 0 z "},"ﬃ":{"ha":1185,"x_min":41,"x_max":1076,"o":"m 283 0 l 157 0 l 157 637 l 41 637 l 41 734 l 157 734 l 157 811 q 221 993 157 930 q 398 1056 286 1056 q 485 1045 439 1056 l 478 943 q 410 949 450 949 q 316 913 350 949 q 283 811 283 878 l 283 734 l 554 734 l 554 798 q 626 989 554 923 q 822 1056 697 1056 q 918 1044 871 1056 q 1015 1015 965 1032 l 993 909 q 921 932 962 921 q 831 943 880 943 q 715 907 751 943 q 680 798 680 871 l 680 734 l 829 734 l 829 637 l 680 637 l 680 0 l 554 0 l 554 637 l 283 637 l 283 0 m 1076 734 l 1076 0 l 951 0 l 951 734 l 1076 734 z "},"ﬄ":{"ha":1185,"x_min":41,"x_max":1076,"o":"m 283 0 l 157 0 l 157 637 l 41 637 l 41 734 l 157 734 l 157 811 q 221 993 157 930 q 398 1056 286 1056 q 485 1045 439 1056 l 478 943 q 410 949 450 949 q 316 913 350 949 q 283 811 283 878 l 283 734 l 554 734 l 554 811 q 620 993 554 930 q 805 1056 685 1056 q 926 1043 850 1056 q 1076 1015 1003 1029 l 1076 0 l 951 0 l 951 935 q 814 949 866 949 q 680 811 680 949 l 680 734 l 836 734 l 836 637 l 680 637 l 680 0 l 554 0 l 554 637 l 283 637 l 283 0 z "},"ﬂ":{"ha":789,"x_min":41,"x_max":680,"o":"m 283 0 l 157 0 l 157 637 l 41 637 l 41 734 l 157 734 l 157 811 q 223 993 157 930 q 408 1056 288 1056 q 530 1043 453 1056 q 680 1015 606 1029 l 680 0 l 554 0 l 554 935 q 418 949 469 949 q 283 811 283 949 l 283 734 l 439 734 l 439 637 l 283 637 l 283 0 z "},"ﬁ":{"ha":770,"x_min":22,"x_max":660,"o":"m 263 0 l 138 0 l 138 637 l 22 637 l 22 734 l 138 734 l 138 798 q 210 989 138 923 q 406 1056 281 1056 q 502 1044 455 1056 q 598 1015 549 1032 l 577 909 q 505 932 546 921 q 415 943 464 943 q 299 907 334 943 q 263 798 263 871 l 263 734 l 413 734 l 413 637 l 263 637 l 263 0 m 660 734 l 660 0 l 534 0 l 534 734 l 660 734 z "},"‒":{"ha":695,"x_min":95,"x_max":600,"o":"m 600 300 l 95 300 l 95 403 l 600 403 l 600 300 z "},"⅝":{"ha":1182,"x_min":68,"x_max":1091,"o":"m 167 686 l 82 707 l 115 979 l 440 979 l 440 890 l 203 890 l 188 774 q 226 787 201 780 q 283 795 252 795 q 418 748 369 795 q 467 619 467 702 q 418 492 467 547 q 267 437 369 437 q 172 455 217 437 q 99 507 127 473 q 68 591 71 542 l 173 591 q 202 540 176 556 q 267 524 228 524 q 338 551 317 524 q 359 621 359 579 q 333 689 359 663 q 257 715 307 715 q 201 706 220 715 q 167 686 182 696 m 856 847 l 374 75 l 303 120 l 785 892 l 856 847 m 1091 146 q 1034 32 1091 71 q 891 -7 977 -7 q 748 32 806 -7 q 690 146 690 71 q 715 224 690 191 q 783 276 741 258 q 725 324 746 294 q 703 393 703 354 q 756 504 703 466 q 890 543 808 543 q 1025 504 972 543 q 1078 393 1078 466 q 1057 323 1078 354 q 998 275 1036 293 q 1066 224 1041 257 q 1091 146 1091 191 m 971 387 q 949 437 971 418 q 890 456 928 456 q 831 437 853 456 q 810 387 810 419 q 832 336 810 355 q 891 317 854 317 q 950 336 928 317 q 971 387 971 355 m 985 155 q 959 210 985 190 q 890 230 932 230 q 822 210 848 230 q 797 155 797 190 q 822 99 797 119 q 891 79 848 79 q 959 99 933 79 q 985 155 985 119 z "},"ƒ":{"ha":473,"x_min":-20,"x_max":475,"o":"m 412 734 l 412 637 l 275 637 l 275 -60 q 217 -236 275 -175 q 56 -296 159 -296 q 18 -294 35 -296 q -20 -285 0 -292 l -10 -184 q 23 -191 0 -189 q 56 -193 47 -193 q 125 -158 100 -193 q 149 -60 149 -123 l 149 637 l 33 637 l 33 734 l 149 734 l 149 811 q 210 993 149 930 q 378 1056 271 1056 q 427 1052 403 1056 q 475 1042 451 1048 l 460 943 q 393 949 432 949 q 304 913 334 949 q 275 811 275 878 l 275 734 l 412 734 z "},"⁄":{"ha":631,"x_min":41,"x_max":593,"o":"m 593 847 l 111 75 l 41 120 l 523 892 l 593 847 z "},"₣":{"ha":768,"x_min":12,"x_max":726,"o":"m 659 543 l 659 436 l 245 436 l 245 0 l 115 0 l 115 987 l 726 987 l 726 880 l 245 880 l 245 543 l 659 543 m 444 282 l 444 179 l 12 179 l 12 282 l 444 282 z "},"g":{"ha":780,"x_min":66,"x_max":685,"o":"m 66 359 l 66 373 q 101 569 66 485 q 201 701 136 654 q 355 747 266 747 q 477 723 425 747 q 565 652 529 699 l 571 734 l 685 734 l 685 16 q 646 -150 685 -81 q 536 -254 606 -218 q 374 -290 466 -290 q 285 -278 336 -290 q 185 -238 234 -266 q 102 -162 136 -210 l 168 -87 q 265 -165 214 -143 q 365 -186 315 -186 q 507 -137 454 -186 q 559 9 559 -87 l 559 74 q 472 9 524 32 q 354 -14 421 -14 q 201 35 266 -14 q 101 168 136 83 q 66 359 66 252 m 191 373 l 191 359 q 211 225 191 286 q 274 129 231 165 q 385 93 317 93 q 493 123 452 93 q 559 201 535 154 l 559 536 q 494 611 536 581 q 386 642 452 642 q 274 605 317 642 q 211 507 231 568 q 191 373 191 446 z "},"ğ":{"ha":780,"x_min":66,"x_max":685,"o":"m 66 359 l 66 373 q 101 569 66 485 q 201 701 136 654 q 355 747 266 747 q 477 723 425 747 q 565 652 529 699 l 571 734 l 685 734 l 685 16 q 646 -150 685 -81 q 536 -254 606 -218 q 374 -290 466 -290 q 285 -278 336 -290 q 185 -238 234 -266 q 102 -162 136 -210 l 168 -87 q 265 -165 214 -143 q 365 -186 315 -186 q 507 -137 454 -186 q 559 9 559 -87 l 559 74 q 472 9 524 32 q 354 -14 421 -14 q 201 35 266 -14 q 101 168 136 83 q 66 359 66 252 m 191 373 l 191 359 q 211 225 191 286 q 274 129 231 165 q 385 93 317 93 q 493 123 452 93 q 559 201 535 154 l 559 536 q 494 611 536 581 q 386 642 452 642 q 274 605 317 642 q 211 507 231 568 q 191 373 191 446 m 478 1014 l 580 1014 q 526 883 580 934 q 378 833 471 833 q 229 883 283 833 q 174 1014 174 934 l 276 1014 q 299 943 276 974 q 378 913 322 913 q 455 943 432 913 q 478 1014 478 974 z "},"ĝ":{"ha":780,"x_min":66,"x_max":685,"o":"m 66 359 l 66 373 q 101 569 66 485 q 201 701 136 654 q 355 747 266 747 q 477 723 425 747 q 565 652 529 699 l 571 734 l 685 734 l 685 16 q 646 -150 685 -81 q 536 -254 606 -218 q 374 -290 466 -290 q 285 -278 336 -290 q 185 -238 234 -266 q 102 -162 136 -210 l 168 -87 q 265 -165 214 -143 q 365 -186 315 -186 q 507 -137 454 -186 q 559 9 559 -87 l 559 74 q 472 9 524 32 q 354 -14 421 -14 q 201 35 266 -14 q 101 168 136 83 q 66 359 66 252 m 191 373 l 191 359 q 211 225 191 286 q 274 129 231 165 q 385 93 317 93 q 493 123 452 93 q 559 201 535 154 l 559 536 q 494 611 536 581 q 386 642 452 642 q 274 605 317 642 q 211 507 231 568 q 191 373 191 446 m 415 1042 l 583 857 l 583 850 l 479 850 l 377 964 l 276 850 l 173 850 l 173 857 l 339 1042 l 415 1042 z "},"ģ":{"ha":780,"x_min":66,"x_max":685,"o":"m 66 359 l 66 373 q 101 569 66 485 q 201 701 136 654 q 355 747 266 747 q 477 723 425 747 q 565 652 529 699 l 571 734 l 685 734 l 685 16 q 646 -150 685 -81 q 536 -254 606 -218 q 374 -290 466 -290 q 285 -278 336 -290 q 185 -238 234 -266 q 102 -162 136 -210 l 168 -87 q 265 -165 214 -143 q 365 -186 315 -186 q 507 -137 454 -186 q 559 9 559 -87 l 559 74 q 472 9 524 32 q 354 -14 421 -14 q 201 35 266 -14 q 101 168 136 83 q 66 359 66 252 m 191 373 l 191 359 q 211 225 191 286 q 274 129 231 165 q 385 93 317 93 q 493 123 452 93 q 559 201 535 154 l 559 536 q 494 611 536 581 q 386 642 452 642 q 274 605 317 642 q 211 507 231 568 q 191 373 191 446 m 311 850 l 311 938 q 326 1018 311 978 q 362 1090 340 1057 q 406 1141 385 1122 l 478 1085 q 446 1009 455 1044 q 437 932 437 974 l 437 850 l 311 850 z "},"ß":{"ha":826,"x_min":95,"x_max":766,"o":"m 220 754 l 220 0 l 95 0 l 95 754 q 169 978 95 903 q 361 1054 243 1054 q 544 998 472 1054 q 616 825 616 943 q 603 735 616 771 q 573 671 590 699 q 543 617 556 644 q 530 556 530 591 q 553 489 530 519 q 612 433 577 460 q 683 375 648 406 q 743 306 719 345 q 766 215 766 267 q 693 43 766 99 q 505 -14 619 -14 q 428 -6 469 -14 q 354 12 387 1 q 302 35 320 23 l 331 140 q 400 107 355 125 q 492 89 445 89 q 606 124 572 89 q 641 209 641 159 q 617 277 641 248 q 558 334 593 307 q 487 392 523 361 q 428 463 452 422 q 404 557 404 503 q 418 629 404 598 q 451 688 433 661 q 484 746 469 715 q 498 814 498 776 q 461 917 498 882 q 368 951 424 951 q 259 904 298 951 q 220 754 220 856 z "},"`":{"ha":429,"x_min":39,"x_max":321,"o":"m 191 1042 l 321 842 l 214 842 l 39 1042 l 191 1042 z "},"̀":{"ha":0,"x_min":-581,"x_max":-299,"o":"m -430 1042 l -299 842 l -406 842 l -581 1042 l -430 1042 z "},">":{"ha":726,"x_min":92,"x_max":671,"o":"m 92 263 l 541 441 l 92 616 l 92 746 l 671 490 l 671 391 l 92 134 l 92 263 z "},"≥":{"ha":726,"x_min":90,"x_max":671,"o":"m 92 317 l 541 479 l 92 638 l 92 755 l 671 523 l 671 433 l 92 199 l 92 317 m 656 103 l 656 0 l 90 0 l 90 103 l 656 103 z "},"«":{"ha":623,"x_min":69,"x_max":542,"o":"m 302 41 l 238 -20 q 112 157 154 79 q 69 307 69 234 q 112 456 69 379 q 238 633 154 534 l 302 570 q 206 423 238 484 q 174 307 174 362 q 206 190 174 251 q 302 41 239 128 m 542 41 l 477 -20 q 351 156 393 79 q 309 307 309 234 q 351 457 309 379 q 477 633 393 534 l 542 570 q 445 423 477 484 q 413 307 413 362 q 446 190 413 251 q 542 41 478 128 z "},"»":{"ha":623,"x_min":81,"x_max":553,"o":"m 320 41 q 416 190 385 128 q 448 307 448 251 q 416 423 448 362 q 320 570 385 484 l 385 633 q 511 456 469 534 q 553 307 553 379 q 511 157 553 234 q 385 -20 469 79 l 320 41 m 81 41 q 177 190 145 128 q 209 307 209 251 q 177 423 209 362 q 81 570 145 484 l 145 633 q 272 457 230 534 q 313 307 313 379 q 271 156 313 234 q 145 -20 229 79 l 81 41 z "},"‹":{"ha":417,"x_min":73,"x_max":370,"o":"m 370 644 l 195 374 l 370 104 l 273 104 l 73 368 l 73 380 l 273 644 l 370 644 z "},"›":{"ha":417,"x_min":61,"x_max":357,"o":"m 61 104 l 236 374 l 61 644 l 157 644 l 357 380 l 357 367 l 157 104 l 61 104 z "},"h":{"ha":765,"x_min":96,"x_max":673,"o":"m 221 1042 l 221 646 q 315 721 260 694 q 437 747 370 747 q 609 686 546 747 q 673 481 673 625 l 673 0 l 547 0 l 547 482 q 509 605 547 568 q 400 642 471 642 q 294 609 340 642 q 221 524 248 576 l 221 0 l 96 0 l 96 1042 l 221 1042 z "},"ħ":{"ha":785,"x_min":1,"x_max":693,"o":"m 433 939 l 433 836 l 241 836 l 241 646 q 336 721 281 694 q 458 747 391 747 q 630 686 566 747 q 693 481 693 625 l 693 0 l 567 0 l 567 482 q 529 605 567 568 q 420 642 492 642 q 314 609 360 642 q 241 524 268 576 l 241 0 l 116 0 l 116 836 l 1 836 l 1 939 l 116 939 l 116 1042 l 241 1042 l 241 939 l 433 939 z "},"ĥ":{"ha":765,"x_min":96,"x_max":673,"o":"m 221 1042 l 221 646 q 315 721 260 694 q 437 747 370 747 q 609 686 546 747 q 673 481 673 625 l 673 0 l 547 0 l 547 482 q 509 605 547 568 q 400 642 471 642 q 294 609 340 642 q 221 524 248 576 l 221 0 l 96 0 l 96 1042 l 221 1042 m 378 1259 l 546 1074 l 546 1067 l 441 1067 l 340 1182 l 239 1067 l 136 1067 l 136 1075 l 302 1259 l 378 1259 z "},"̉":{"ha":0,"x_min":-458,"x_max":-248,"o":"m -353 842 l -443 842 l -444 945 q -369 959 -392 949 q -345 996 -345 970 q -378 1037 -345 1025 q -458 1048 -412 1048 l -453 1120 q -300 1086 -352 1120 q -248 994 -248 1051 q -280 919 -248 942 q -352 890 -313 895 l -353 842 z "},"˝":{"ha":518,"x_min":64,"x_max":551,"o":"m 254 836 l 410 1041 l 551 1041 l 369 836 l 254 836 m 64 836 l 180 1041 l 314 1041 l 166 836 l 64 836 z "},"-":{"ha":648,"x_min":95,"x_max":553,"o":"m 553 300 l 95 300 l 95 403 l 553 403 l 553 300 z "},"‐":{"ha":382,"x_min":95,"x_max":553,"o":"m 553 300 l 95 300 l 95 403 l 553 403 l 553 300 z "},"‧":{"ha":260,"x_min":56,"x_max":204,"o":"m 56 420 q 75 471 56 450 q 130 492 94 492 q 185 471 166 492 q 204 420 204 450 q 185 369 204 390 q 130 349 166 349 q 75 369 94 349 q 56 420 56 390 z "},"‑":{"ha":382,"x_min":95,"x_max":553,"o":"m 553 300 l 95 300 l 95 403 l 553 403 l 553 300 z "},"i":{"ha":338,"x_min":96,"x_max":245,"o":"m 96 928 q 115 980 96 959 q 170 1001 134 1001 q 225 980 206 1001 q 245 928 245 959 q 225 879 245 899 q 170 858 206 858 q 115 879 134 858 q 96 928 96 899 m 232 734 l 232 0 l 106 0 l 106 734 l 232 734 z "},"í":{"ha":344,"x_min":102,"x_max":385,"o":"m 231 734 l 231 0 l 106 0 l 106 734 l 231 734 m 102 841 l 233 1040 l 385 1040 l 203 841 l 102 841 z "},"ĭ":{"ha":344,"x_min":-32,"x_max":374,"o":"m 231 734 l 231 0 l 106 0 l 106 734 l 231 734 m 272 1013 l 374 1013 q 319 882 374 932 q 172 831 265 831 q 23 882 77 831 q -32 1013 -32 932 l 70 1013 q 93 942 70 972 q 172 911 116 911 q 249 942 226 911 q 272 1013 272 972 z "},"î":{"ha":344,"x_min":-33,"x_max":377,"o":"m 231 734 l 231 0 l 106 0 l 106 734 l 231 734 m 209 1040 l 377 855 l 377 848 l 273 848 l 171 963 l 70 848 l -33 848 l -33 856 l 133 1040 l 209 1040 z "},"ï":{"ha":344,"x_min":-47,"x_max":393,"o":"m 231 734 l 231 0 l 106 0 l 106 734 l 231 734 m -47 928 q -28 980 -47 959 q 26 1001 -9 1001 q 82 980 63 1001 q 101 928 101 959 q 82 879 101 899 q 26 858 63 858 q -28 879 -9 858 q -47 928 -47 899 m 245 927 q 263 979 245 958 q 319 1000 282 1000 q 374 979 355 1000 q 393 927 393 958 q 374 877 393 898 q 319 857 355 857 q 263 877 282 857 q 245 927 245 898 z "},"ì":{"ha":344,"x_min":-41,"x_max":242,"o":"m 231 734 l 231 0 l 106 0 l 106 734 l 231 734 m 111 1040 l 242 841 l 134 841 l -41 1040 l 111 1040 z "},"ĳ":{"ha":670,"x_min":96,"x_max":572,"o":"m 96 928 q 115 980 96 959 q 170 1001 134 1001 q 225 980 206 1001 q 245 928 245 959 q 225 879 245 899 q 170 858 206 858 q 115 879 134 858 q 96 928 96 899 m 232 734 l 232 0 l 106 0 l 106 734 l 232 734 m 424 928 q 443 980 424 959 q 498 1001 462 1001 q 553 980 534 1001 q 572 928 572 959 q 553 879 572 899 q 498 858 534 858 q 443 879 462 858 q 424 928 424 899 m 437 734 l 563 734 l 563 -87 q 515 -242 563 -189 q 371 -296 467 -296 q 331 -293 354 -296 q 293 -285 309 -290 l 294 -184 q 323 -188 307 -186 q 351 -190 339 -190 q 415 -166 393 -190 q 437 -87 437 -143 l 437 734 z "},"ī":{"ha":344,"x_min":-53,"x_max":402,"o":"m 231 734 l 231 0 l 106 0 l 106 734 l 231 734 m 402 984 l 402 888 l -53 888 l -53 984 l 402 984 z "},"∞":{"ha":1428,"x_min":67,"x_max":1354,"o":"m 67 357 l 67 376 q 108 559 67 475 q 223 695 149 644 q 395 747 297 747 q 541 709 480 747 q 643 615 602 671 q 710 503 684 558 q 777 615 736 558 q 880 709 819 671 q 1025 747 941 747 q 1197 695 1124 747 q 1312 559 1271 644 q 1354 376 1354 475 l 1354 357 q 1312 174 1354 259 q 1197 38 1271 90 q 1024 -14 1123 -14 q 879 24 940 -14 q 777 118 819 62 q 710 231 736 175 q 643 118 684 175 q 542 24 602 62 q 397 -14 481 -14 q 223 38 298 -14 q 108 174 149 90 q 67 357 67 259 m 193 376 l 193 357 q 216 223 193 284 q 285 125 239 162 q 397 89 331 89 q 501 121 457 89 q 575 199 545 153 q 621 288 604 245 q 643 353 638 331 l 643 381 q 621 445 638 402 q 574 534 604 488 q 500 612 545 580 q 395 644 456 644 q 284 607 330 644 q 216 509 239 570 q 193 376 193 448 m 1228 357 l 1228 376 q 1204 509 1228 448 q 1136 607 1181 570 q 1025 644 1090 644 q 920 612 964 644 q 846 534 876 580 q 799 445 816 488 q 777 381 783 402 l 777 353 q 799 288 783 331 q 846 199 816 245 q 920 121 876 153 q 1024 89 964 89 q 1135 125 1090 89 q 1204 223 1181 162 q 1228 357 1228 284 z "},"∫":{"ha":356,"x_min":-55,"x_max":444,"o":"m 243 -73 q 185 -242 243 -187 q 24 -296 127 -296 q -55 -283 -17 -296 l -42 -184 q -16 -190 -33 -187 q 12 -193 1 -193 q 89 -164 62 -193 q 117 -73 117 -135 l 117 812 q 178 994 117 931 q 347 1056 240 1056 q 395 1052 371 1056 q 444 1042 419 1048 l 428 945 q 401 951 416 949 q 366 953 386 953 q 274 916 306 953 q 243 812 243 879 l 243 -73 z "},"į":{"ha":338,"x_min":-4,"x_max":245,"o":"m 96 928 q 115 980 96 959 q 170 1001 134 1001 q 225 980 206 1001 q 245 928 245 959 q 225 879 245 899 q 170 858 206 858 q 115 879 134 858 q 96 928 96 899 m 232 734 l 232 0 l 106 0 l 106 734 l 232 734 m 171 39 l 221 0 q 141 -70 178 -33 q 105 -151 105 -106 q 117 -186 105 -173 q 158 -200 129 -200 q 198 -194 180 -200 q 226 -182 216 -187 l 235 -264 q 192 -284 218 -275 q 126 -294 166 -294 q 34 -261 71 -294 q -4 -165 -4 -229 q 37 -57 -4 -111 q 171 39 79 -4 z "},"ĩ":{"ha":344,"x_min":-68,"x_max":412,"o":"m 231 734 l 231 0 l 106 0 l 106 734 l 231 734 m 327 1027 l 412 1019 q 369 900 412 945 q 265 854 327 854 q 208 864 231 854 q 168 887 186 874 q 131 909 151 899 q 83 919 112 919 q 36 897 55 919 q 16 844 16 876 l -68 848 q -26 969 -68 922 q 77 1015 16 1015 q 143 999 116 1015 q 197 967 170 983 q 259 951 223 951 q 307 973 288 951 q 327 1027 327 995 z "},"j":{"ha":332,"x_min":-45,"x_max":235,"o":"m 86 928 q 105 980 86 959 q 160 1001 124 1001 q 216 980 197 1001 q 235 928 235 959 q 216 879 235 899 q 160 858 197 858 q 105 879 124 858 q 86 928 86 899 m 99 734 l 225 734 l 225 -87 q 177 -242 225 -189 q 33 -296 130 -296 q -6 -293 16 -296 q -45 -285 -29 -290 l -44 -184 q -15 -188 -31 -186 q 14 -190 1 -190 q 77 -166 55 -190 q 99 -87 99 -143 l 99 734 z "},"ĵ":{"ha":350,"x_min":-52,"x_max":387,"o":"m 117 734 l 243 734 l 243 -60 q 185 -236 243 -175 q 24 -296 127 -296 q -14 -294 3 -296 q -52 -285 -32 -292 l -42 -184 q -8 -191 -32 -189 q 24 -193 15 -193 q 93 -158 68 -193 q 117 -60 117 -123 l 117 734 m 218 1014 l 387 829 l 387 822 l 282 822 l 180 937 l 79 822 l -24 822 l -24 829 l 142 1014 l 218 1014 z "},"k":{"ha":704,"x_min":96,"x_max":703,"o":"m 555 0 l 301 340 l 222 258 l 222 0 l 96 0 l 96 1042 l 222 1042 l 222 412 l 289 492 l 517 734 l 670 734 l 384 428 l 703 0 l 555 0 z "},"ķ":{"ha":704,"x_min":96,"x_max":703,"o":"m 555 0 l 301 340 l 222 258 l 222 0 l 96 0 l 96 1042 l 222 1042 l 222 412 l 289 492 l 517 734 l 670 734 l 384 428 l 703 0 l 555 0 m 418 -30 l 418 -83 q 394 -199 418 -137 q 319 -302 370 -260 l 248 -252 q 286 -173 273 -214 q 298 -85 298 -132 l 298 -30 l 418 -30 z "},"ĸ":{"ha":773,"x_min":105,"x_max":738,"o":"m 579 0 l 304 313 l 231 313 l 231 0 l 105 0 l 105 734 l 231 734 l 231 423 l 293 423 l 562 734 l 713 734 l 407 378 l 738 0 l 579 0 z "},"l":{"ha":338,"x_min":106,"x_max":232,"o":"m 232 1042 l 232 0 l 106 0 l 106 1042 l 232 1042 z "},"ĺ":{"ha":338,"x_min":100,"x_max":382,"o":"m 232 1042 l 232 0 l 106 0 l 106 1042 l 232 1042 m 100 1118 l 231 1318 l 382 1318 l 201 1118 l 100 1118 z "},"ľ":{"ha":439,"x_min":106,"x_max":465,"o":"m 232 1042 l 232 0 l 106 0 l 106 1042 l 232 1042 m 465 1043 l 465 989 q 440 874 465 936 q 366 771 416 812 l 295 821 q 333 900 320 859 q 345 988 345 941 l 345 1043 l 465 1043 z "},"ļ":{"ha":338,"x_min":58,"x_max":232,"o":"m 232 1042 l 232 0 l 106 0 l 106 1042 l 232 1042 m 228 -71 l 228 -125 q 204 -240 228 -178 q 130 -343 180 -302 l 58 -294 q 96 -214 83 -255 q 109 -126 109 -174 l 109 -71 l 228 -71 z "},"ŀ":{"ha":487,"x_min":106,"x_max":457,"o":"m 232 1042 l 232 0 l 106 0 l 106 1042 l 232 1042 m 309 530 q 327 581 309 559 q 382 602 346 602 q 438 581 418 602 q 457 530 457 559 q 438 479 457 500 q 382 458 418 458 q 327 479 346 458 q 309 530 309 500 z "},"<":{"ha":706,"x_min":49,"x_max":604,"o":"m 604 612 l 180 437 l 604 266 l 604 133 l 49 390 l 49 488 l 604 745 l 604 612 z "},"≤":{"ha":706,"x_min":41,"x_max":608,"o":"m 604 621 l 180 463 l 604 307 l 604 186 l 49 420 l 49 509 l 604 742 l 604 621 m 608 104 l 608 1 l 41 1 l 41 104 l 608 104 z "},"₤":{"ha":808,"x_min":62,"x_max":765,"o":"m 536 404 l 536 319 l 309 319 l 310 273 q 300 182 311 225 q 269 106 290 138 l 765 106 l 765 0 l 64 0 l 64 106 l 117 106 q 154 141 140 113 q 174 205 168 169 q 180 272 180 242 l 178 319 l 62 319 l 62 404 l 175 404 l 172 496 l 62 496 l 62 581 l 169 581 l 165 705 q 204 864 165 798 q 312 966 243 930 q 466 1001 380 1001 q 672 928 599 1001 q 746 737 746 855 l 616 737 q 593 829 616 794 q 534 879 570 863 q 455 895 497 895 q 341 845 388 895 q 295 705 295 796 l 299 581 l 536 581 l 536 496 l 302 496 l 305 404 l 536 404 z "},"¬":{"ha":769,"x_min":86,"x_max":650,"o":"m 650 543 l 650 255 l 524 255 l 524 433 l 86 433 l 86 543 l 650 543 z "},"ſ":{"ha":345,"x_min":109,"x_max":436,"o":"m 235 0 l 109 0 l 109 811 q 171 993 109 930 q 338 1056 232 1056 q 387 1052 363 1056 q 436 1042 411 1048 l 420 945 q 393 951 408 949 q 358 953 378 953 q 267 915 298 953 q 235 811 235 878 l 235 0 z "},"◊":{"ha":700,"x_min":30,"x_max":671,"o":"m 30 493 l 301 987 l 397 987 l 671 493 l 399 0 l 304 0 l 30 493 m 159 493 l 352 136 l 541 493 l 348 850 l 159 493 z "},"ł":{"ha":376,"x_min":24,"x_max":355,"o":"m 355 631 l 355 548 l 247 507 l 247 0 l 121 0 l 121 458 l 24 421 l 24 504 l 121 541 l 121 1042 l 247 1042 l 247 589 l 355 631 z "},"m":{"ha":1218,"x_min":94,"x_max":1124,"o":"m 389 642 q 281 613 322 642 q 220 538 241 585 l 220 0 l 94 0 l 94 734 l 214 734 l 217 654 q 309 723 254 698 q 434 747 363 747 q 560 719 505 747 q 644 629 615 691 q 740 715 681 682 q 878 747 798 747 q 1060 684 996 747 q 1124 482 1124 621 l 1124 0 l 998 0 l 998 484 q 955 609 998 576 q 841 642 913 642 q 722 596 765 642 q 671 487 678 551 l 671 0 l 546 0 l 546 483 q 503 605 546 569 q 389 642 460 642 z "},"¯":{"ha":637,"x_min":97,"x_max":552,"o":"m 552 980 l 552 884 l 97 884 l 97 980 l 552 980 z "},"−":{"ha":648,"x_min":95,"x_max":553,"o":"m 553 300 l 95 300 l 95 403 l 553 403 l 553 300 z "},"′":{"ha":243,"x_min":71,"x_max":172,"o":"m 172 1042 l 172 967 l 158 718 l 71 718 l 71 956 l 71 1042 l 172 1042 z "},"µ":{"ha":787,"x_min":105,"x_max":682,"o":"m 105 734 l 230 734 l 230 312 q 250 171 230 219 q 304 106 271 123 q 380 89 338 89 q 495 117 454 89 q 557 193 537 144 l 557 734 l 682 734 l 682 0 l 569 0 l 564 78 q 490 10 534 35 q 385 -14 446 -14 q 230 36 285 -14 l 230 -282 l 105 -282 l 105 734 z "},"×":{"ha":697,"x_min":95,"x_max":602,"o":"m 276 349 l 96 533 l 168 608 l 349 423 l 530 608 l 601 533 l 421 349 l 602 165 l 530 90 l 349 275 l 167 90 l 95 165 l 276 349 z "},"n":{"ha":767,"x_min":96,"x_max":673,"o":"m 400 642 q 294 609 340 642 q 221 524 248 576 l 221 0 l 96 0 l 96 734 l 214 734 l 218 642 q 313 720 258 692 q 437 747 369 747 q 609 686 546 747 q 673 481 673 625 l 673 0 l 547 0 l 547 482 q 509 605 547 568 q 400 642 471 642 z "},"ń":{"ha":767,"x_min":96,"x_max":673,"o":"m 400 642 q 294 609 340 642 q 221 524 248 576 l 221 0 l 96 0 l 96 734 l 214 734 l 218 642 q 313 720 258 692 q 437 747 369 747 q 609 686 546 747 q 673 481 673 625 l 673 0 l 547 0 l 547 482 q 509 605 547 568 q 400 642 471 642 m 319 842 l 451 1042 l 602 1042 l 420 842 l 319 842 z "},"₦":{"ha":1100,"x_min":21,"x_max":1079,"o":"m 1079 435 l 1079 332 l 927 332 l 927 0 l 796 0 l 580 332 l 299 332 l 299 0 l 168 0 l 168 332 l 21 332 l 21 435 l 168 435 l 168 535 l 21 535 l 21 638 l 168 638 l 168 987 l 299 987 l 528 638 l 798 638 l 798 987 l 927 987 l 927 638 l 1079 638 l 1079 535 l 927 535 l 927 435 l 1079 435 m 299 762 l 299 638 l 380 638 l 299 762 m 299 435 l 513 435 l 447 535 l 299 535 l 299 435 m 661 435 l 798 435 l 798 535 l 595 535 l 661 435 m 798 224 l 798 332 l 728 332 l 798 224 z "},"ŉ":{"ha":767,"x_min":-47,"x_max":673,"o":"m 400 642 q 294 609 340 642 q 221 524 248 576 l 221 0 l 96 0 l 96 734 l 214 734 l 218 642 q 313 720 258 692 q 437 747 369 747 q 609 686 546 747 q 673 481 673 625 l 673 0 l 547 0 l 547 482 q 509 605 547 568 q 400 642 471 642 m 123 1045 l 123 991 q 99 876 123 938 q 24 773 75 814 l -47 823 q -9 902 -22 861 q 3 990 3 943 l 3 1045 l 123 1045 z "}," ":{"ha":373,"x_min":0,"x_max":0,"o":""},"ň":{"ha":767,"x_min":96,"x_max":673,"o":"m 400 642 q 294 609 340 642 q 221 524 248 576 l 221 0 l 96 0 l 96 734 l 214 734 l 218 642 q 313 720 258 692 q 437 747 369 747 q 609 686 546 747 q 673 481 673 625 l 673 0 l 547 0 l 547 482 q 509 605 547 568 q 400 642 471 642 m 286 1041 l 388 926 l 490 1041 l 599 1041 l 599 1034 l 427 848 l 349 848 l 180 1034 l 180 1041 l 286 1041 z "},"ņ":{"ha":767,"x_min":96,"x_max":673,"o":"m 400 642 q 294 609 340 642 q 221 524 248 576 l 221 0 l 96 0 l 96 734 l 214 734 l 218 642 q 313 720 258 692 q 437 747 369 747 q 609 686 546 747 q 673 481 673 625 l 673 0 l 547 0 l 547 482 q 509 605 547 568 q 400 642 471 642 m 441 -71 l 441 -125 q 417 -240 441 -178 q 342 -343 393 -302 l 271 -294 q 309 -214 296 -255 q 321 -126 321 -174 l 321 -71 l 441 -71 z "},"≠":{"ha":762,"x_min":103,"x_max":669,"o":"m 669 380 l 669 271 l 309 271 l 213 106 l 149 146 l 221 271 l 103 271 l 103 380 l 286 380 l 386 552 l 103 552 l 103 661 l 450 661 l 553 839 l 618 799 l 537 661 l 669 661 l 669 552 l 473 552 l 373 380 l 669 380 z "},"ⁿ":{"ha":587,"x_min":83,"x_max":516,"o":"m 302 897 q 237 877 263 897 q 198 823 212 857 l 198 441 l 83 441 l 83 984 l 170 984 l 190 901 q 252 969 214 945 q 340 994 290 994 q 468 945 420 994 q 516 786 516 896 l 516 441 l 401 441 l 401 764 q 374 867 401 838 q 302 897 347 897 z "},"ñ":{"ha":767,"x_min":96,"x_max":673,"o":"m 400 642 q 294 609 340 642 q 221 524 248 576 l 221 0 l 96 0 l 96 734 l 214 734 l 218 642 q 313 720 258 692 q 437 747 369 747 q 609 686 546 747 q 673 481 673 625 l 673 0 l 547 0 l 547 482 q 509 605 547 568 q 400 642 471 642 m 545 1028 l 629 1021 q 587 901 629 946 q 483 856 545 856 q 426 866 448 856 q 386 888 404 876 q 349 910 368 901 q 301 920 330 920 q 253 899 273 920 q 234 845 234 877 l 149 849 q 191 970 149 924 q 295 1017 233 1017 q 361 1001 334 1017 q 414 968 388 985 q 477 952 441 952 q 525 974 505 952 q 545 1028 545 996 z "},"#":{"ha":855,"x_min":81,"x_max":838,"o":"m 189 0 l 243 278 l 81 278 l 81 372 l 262 372 l 308 611 l 132 611 l 132 705 l 326 705 l 381 987 l 479 987 l 424 705 l 603 705 l 658 987 l 755 987 l 700 705 l 838 705 l 838 611 l 682 611 l 635 372 l 787 372 l 787 278 l 616 278 l 562 0 l 465 0 l 519 278 l 340 278 l 286 0 l 189 0 m 359 372 l 538 372 l 585 611 l 406 611 l 359 372 z "},"o":{"ha":792,"x_min":62,"x_max":730,"o":"m 62 359 l 62 374 q 103 565 62 481 q 218 698 144 649 q 395 747 293 747 q 574 698 499 747 q 690 565 649 649 q 730 374 730 481 l 730 359 q 690 169 730 253 q 574 35 649 84 q 397 -14 500 -14 q 219 35 294 -14 q 103 169 144 84 q 62 359 62 253 m 188 374 l 188 359 q 211 225 188 286 q 280 126 234 163 q 397 90 327 90 q 512 126 466 90 q 581 225 558 163 q 604 359 604 286 l 604 374 q 581 508 604 446 q 511 607 557 569 q 395 644 465 644 q 280 607 326 644 q 211 508 234 569 q 188 374 188 446 z "},"ó":{"ha":792,"x_min":62,"x_max":730,"o":"m 62 359 l 62 374 q 103 565 62 481 q 218 698 144 649 q 395 747 293 747 q 574 698 499 747 q 690 565 649 649 q 730 374 730 481 l 730 359 q 690 169 730 253 q 574 35 649 84 q 397 -14 500 -14 q 219 35 294 -14 q 103 169 144 84 q 62 359 62 253 m 188 374 l 188 359 q 211 225 188 286 q 280 126 234 163 q 397 90 327 90 q 512 126 466 90 q 581 225 558 163 q 604 359 604 286 l 604 374 q 581 508 604 446 q 511 607 557 569 q 395 644 465 644 q 280 607 326 644 q 211 508 234 569 q 188 374 188 446 m 321 842 l 452 1042 l 604 1042 l 422 842 l 321 842 z "},"ŏ":{"ha":792,"x_min":62,"x_max":730,"o":"m 62 359 l 62 374 q 103 565 62 481 q 218 698 144 649 q 395 747 293 747 q 574 698 499 747 q 690 565 649 649 q 730 374 730 481 l 730 359 q 690 169 730 253 q 574 35 649 84 q 397 -14 500 -14 q 219 35 294 -14 q 103 169 144 84 q 62 359 62 253 m 188 374 l 188 359 q 211 225 188 286 q 280 126 234 163 q 397 90 327 90 q 512 126 466 90 q 581 225 558 163 q 604 359 604 286 l 604 374 q 581 508 604 446 q 511 607 557 569 q 395 644 465 644 q 280 607 326 644 q 211 508 234 569 q 188 374 188 446 m 491 1014 l 593 1014 q 538 883 593 934 q 391 833 484 833 q 242 883 296 833 q 187 1014 187 934 l 289 1014 q 312 943 289 974 q 391 913 335 913 q 468 943 445 913 q 491 1014 491 974 z "},"ô":{"ha":792,"x_min":62,"x_max":730,"o":"m 62 359 l 62 374 q 103 565 62 481 q 218 698 144 649 q 395 747 293 747 q 574 698 499 747 q 690 565 649 649 q 730 374 730 481 l 730 359 q 690 169 730 253 q 574 35 649 84 q 397 -14 500 -14 q 219 35 294 -14 q 103 169 144 84 q 62 359 62 253 m 188 374 l 188 359 q 211 225 188 286 q 280 126 234 163 q 397 90 327 90 q 512 126 466 90 q 581 225 558 163 q 604 359 604 286 l 604 374 q 581 508 604 446 q 511 607 557 569 q 395 644 465 644 q 280 607 326 644 q 211 508 234 569 q 188 374 188 446 m 428 1042 l 596 857 l 596 850 l 492 850 l 390 964 l 289 850 l 186 850 l 186 857 l 352 1042 l 428 1042 z "},"ö":{"ha":792,"x_min":62,"x_max":730,"o":"m 62 359 l 62 374 q 103 565 62 481 q 218 698 144 649 q 395 747 293 747 q 574 698 499 747 q 690 565 649 649 q 730 374 730 481 l 730 359 q 690 169 730 253 q 574 35 649 84 q 397 -14 500 -14 q 219 35 294 -14 q 103 169 144 84 q 62 359 62 253 m 188 374 l 188 359 q 211 225 188 286 q 280 126 234 163 q 397 90 327 90 q 512 126 466 90 q 581 225 558 163 q 604 359 604 286 l 604 374 q 581 508 604 446 q 511 607 557 569 q 395 644 465 644 q 280 607 326 644 q 211 508 234 569 q 188 374 188 446 m 172 930 q 191 981 172 960 q 245 1002 210 1002 q 301 981 282 1002 q 320 930 320 960 q 301 880 320 901 q 245 859 282 859 q 191 880 210 859 q 172 930 172 901 m 464 928 q 483 980 464 959 q 538 1001 501 1001 q 593 980 574 1001 q 612 928 612 959 q 593 879 612 899 q 538 858 574 858 q 483 879 501 858 q 464 928 464 899 z "},"œ":{"ha":1261,"x_min":66,"x_max":1215,"o":"m 66 359 l 66 374 q 105 565 66 481 q 218 698 144 649 q 393 747 291 747 q 553 708 485 747 q 663 601 622 669 q 774 709 707 669 q 916 747 841 748 q 1084 706 1017 747 q 1183 590 1150 664 q 1215 420 1215 516 l 1215 338 l 729 338 q 755 212 732 269 q 824 122 779 155 q 935 89 869 89 q 1060 110 1010 89 q 1145 162 1111 132 l 1194 77 q 1098 15 1161 44 q 935 -14 1035 -14 q 774 24 844 -14 q 662 130 705 63 q 553 25 621 64 q 394 -14 485 -14 q 218 35 292 -14 q 105 169 144 84 q 66 359 66 253 m 916 644 q 796 586 845 644 q 733 440 747 528 l 1090 440 l 1090 458 q 1072 550 1090 507 q 1015 618 1053 592 q 916 644 977 644 m 192 374 l 192 359 q 214 224 192 286 q 280 126 235 163 q 394 89 324 89 q 508 126 463 89 q 574 224 553 163 q 596 359 596 286 l 596 374 q 574 508 596 446 q 508 607 553 569 q 393 644 463 644 q 279 607 324 644 q 213 508 235 569 q 192 374 192 446 z "},"˛":{"ha":376,"x_min":34,"x_max":273,"o":"m 209 39 l 259 0 q 179 -70 216 -33 q 143 -151 143 -106 q 155 -186 143 -173 q 196 -200 167 -200 q 236 -194 218 -200 q 264 -182 254 -187 l 273 -264 q 230 -284 256 -275 q 164 -294 204 -294 q 72 -261 109 -294 q 34 -165 34 -229 q 75 -57 34 -111 q 209 39 117 -4 z "},"ò":{"ha":792,"x_min":62,"x_max":730,"o":"m 62 359 l 62 374 q 103 565 62 481 q 218 698 144 649 q 395 747 293 747 q 574 698 499 747 q 690 565 649 649 q 730 374 730 481 l 730 359 q 690 169 730 253 q 574 35 649 84 q 397 -14 500 -14 q 219 35 294 -14 q 103 169 144 84 q 62 359 62 253 m 188 374 l 188 359 q 211 225 188 286 q 280 126 234 163 q 397 90 327 90 q 512 126 466 90 q 581 225 558 163 q 604 359 604 286 l 604 374 q 581 508 604 446 q 511 607 557 569 q 395 644 465 644 q 280 607 326 644 q 211 508 234 569 q 188 374 188 446 m 330 1042 l 461 842 l 353 842 l 178 1042 l 330 1042 z "},"ơ":{"ha":794,"x_min":62,"x_max":821,"o":"m 62 359 l 62 374 q 103 565 62 481 q 218 698 144 649 q 395 747 293 747 q 527 723 468 747 q 628 654 585 698 q 703 705 687 661 q 720 814 720 748 l 821 814 q 789 662 821 722 q 680 583 758 602 q 730 374 730 492 l 730 359 q 689 169 730 253 q 574 35 649 84 q 397 -14 500 -14 q 219 35 294 -14 q 103 169 144 84 q 62 359 62 253 m 188 374 l 188 359 q 211 225 188 286 q 280 126 234 163 q 397 90 327 90 q 512 126 466 90 q 581 225 558 163 q 604 359 604 286 l 604 374 q 581 508 604 446 q 511 607 557 569 q 395 644 465 644 q 280 607 326 644 q 211 508 234 569 q 188 374 188 446 z "},"ő":{"ha":792,"x_min":62,"x_max":730,"o":"m 62 359 l 62 374 q 103 565 62 481 q 218 698 144 649 q 395 747 293 747 q 574 698 499 747 q 690 565 649 649 q 730 374 730 481 l 730 359 q 690 169 730 253 q 574 35 649 84 q 397 -14 500 -14 q 219 35 294 -14 q 103 169 144 84 q 62 359 62 253 m 188 374 l 188 359 q 211 225 188 286 q 280 126 234 163 q 397 90 327 90 q 512 126 466 90 q 581 225 558 163 q 604 359 604 286 l 604 374 q 581 508 604 446 q 511 607 557 569 q 395 644 465 644 q 280 607 326 644 q 211 508 234 569 q 188 374 188 446 m 411 836 l 567 1041 l 707 1041 l 526 836 l 411 836 m 221 836 l 336 1041 l 471 1041 l 323 836 l 221 836 z "},"ō":{"ha":792,"x_min":62,"x_max":730,"o":"m 62 359 l 62 374 q 103 565 62 481 q 218 698 144 649 q 395 747 293 747 q 574 698 499 747 q 690 565 649 649 q 730 374 730 481 l 730 359 q 690 169 730 253 q 574 35 649 84 q 397 -14 500 -14 q 219 35 294 -14 q 103 169 144 84 q 62 359 62 253 m 188 374 l 188 359 q 211 225 188 286 q 280 126 234 163 q 397 90 327 90 q 512 126 466 90 q 581 225 558 163 q 604 359 604 286 l 604 374 q 581 508 604 446 q 511 607 557 569 q 395 644 465 644 q 280 607 326 644 q 211 508 234 569 q 188 374 188 446 m 621 985 l 621 889 l 166 889 l 166 985 l 621 985 z "},"⅛":{"ha":1067,"x_min":57,"x_max":989,"o":"m 309 973 l 309 438 l 203 438 l 203 846 l 57 807 l 57 895 l 297 973 l 309 973 m 749 847 l 267 75 l 197 120 l 679 892 l 749 847 m 989 146 q 932 32 989 71 q 789 -7 875 -7 q 646 32 704 -7 q 588 146 588 71 q 613 224 588 191 q 682 276 639 258 q 623 324 644 294 q 602 393 602 354 q 654 504 602 466 q 789 543 707 543 q 923 504 870 543 q 977 393 977 466 q 955 323 977 354 q 897 275 934 293 q 964 224 939 257 q 989 146 989 191 m 869 387 q 848 437 869 418 q 789 456 826 456 q 730 437 751 456 q 708 387 708 419 q 730 336 708 355 q 789 317 752 317 q 848 336 827 317 q 869 387 869 355 m 884 155 q 857 210 884 190 q 789 230 831 230 q 721 210 746 230 q 695 155 695 190 q 721 99 695 119 q 789 79 746 79 q 858 99 831 79 q 884 155 884 119 z "},"½":{"ha":1078,"x_min":54,"x_max":1004,"o":"m 753 852 l 271 81 l 201 125 l 683 897 l 753 852 m 307 985 l 307 450 l 201 450 l 201 858 l 54 819 l 54 907 l 294 985 l 307 985 m 1004 87 l 1004 0 l 599 0 l 599 73 l 794 257 q 858 329 840 299 q 876 381 876 359 q 854 435 876 414 q 792 456 832 456 q 717 430 741 456 q 693 366 693 404 l 586 366 q 640 490 586 438 q 789 543 694 543 q 932 499 880 543 q 983 382 983 456 q 948 284 983 328 q 853 186 913 240 l 734 87 l 1004 87 z "},"¼":{"ha":1017,"x_min":58,"x_max":967,"o":"m 310 985 l 310 450 l 204 450 l 204 858 l 58 819 l 58 907 l 298 985 l 310 985 m 783 852 l 301 81 l 231 125 l 713 897 l 783 852 m 967 203 l 967 115 l 894 115 l 894 0 l 787 0 l 787 115 l 534 115 l 529 184 l 785 535 l 894 535 l 894 203 l 967 203 m 636 203 l 787 203 l 787 398 l 777 380 l 636 203 z "},"¹":{"ha":509,"x_min":83,"x_max":336,"o":"m 336 987 l 336 452 l 230 452 l 230 860 l 83 821 l 83 909 l 323 987 l 336 987 z "},"ª":{"ha":621,"x_min":100,"x_max":532,"o":"m 420 479 q 408 528 412 503 q 352 487 387 505 q 269 469 317 469 q 143 511 187 469 q 100 623 100 553 q 157 738 100 697 q 330 779 214 779 l 404 779 l 404 815 q 319 906 404 906 q 246 888 273 906 q 219 835 219 870 l 110 844 q 167 957 110 912 q 319 1002 224 1002 q 460 955 407 1002 q 514 814 514 907 l 514 602 q 518 538 514 568 q 532 479 522 509 l 420 479 m 295 562 q 355 576 325 562 q 404 608 385 590 l 404 704 l 330 704 q 239 681 269 704 q 210 625 210 657 q 295 562 210 562 z "},"º":{"ha":632,"x_min":83,"x_max":547,"o":"m 83 707 l 83 762 q 146 935 83 867 q 315 1002 209 1002 q 485 935 423 1002 q 547 762 547 867 l 547 707 q 486 536 547 603 q 317 469 424 469 q 146 536 209 469 q 83 707 83 603 m 194 762 l 194 707 q 224 604 194 646 q 317 563 254 563 q 407 604 377 563 q 437 707 437 646 l 437 762 q 407 864 437 823 q 315 906 377 906 q 224 864 254 906 q 194 762 194 823 z "},"ø":{"ha":787,"x_min":62,"x_max":730,"o":"m 62 359 l 62 374 q 103 565 62 481 q 218 698 144 649 q 395 747 293 747 q 534 720 471 747 l 583 820 l 667 820 l 598 681 q 695 551 661 631 q 730 374 730 471 l 730 359 q 689 169 730 253 q 574 35 649 84 q 397 -14 500 -14 q 267 11 327 -14 l 217 -92 l 134 -92 l 202 47 q 99 177 136 96 q 62 359 62 258 m 188 374 l 188 359 q 204 243 188 297 q 254 152 220 189 l 486 623 q 395 644 446 644 q 280 607 326 644 q 211 508 234 569 q 188 374 188 446 m 604 374 q 589 484 604 432 q 545 573 574 535 l 315 106 q 397 90 352 90 q 512 126 466 90 q 581 225 558 163 q 604 359 604 286 l 604 374 z "},"ǿ":{"ha":787,"x_min":62,"x_max":730,"o":"m 62 359 l 62 374 q 103 565 62 481 q 218 698 144 649 q 395 747 293 747 q 534 720 471 747 l 583 820 l 667 820 l 598 681 q 695 551 661 631 q 730 374 730 471 l 730 359 q 689 169 730 253 q 574 35 649 84 q 397 -14 500 -14 q 267 11 327 -14 l 217 -92 l 134 -92 l 202 47 q 99 177 136 96 q 62 359 62 258 m 188 374 l 188 359 q 204 243 188 297 q 254 152 220 189 l 486 623 q 395 644 446 644 q 280 607 326 644 q 211 508 234 569 q 188 374 188 446 m 604 374 q 589 484 604 432 q 545 573 574 535 l 315 106 q 397 90 352 90 q 512 126 466 90 q 581 225 558 163 q 604 359 604 286 l 604 374 m 295 842 l 427 1041 l 578 1041 l 396 842 l 295 842 z "},"õ":{"ha":792,"x_min":62,"x_max":730,"o":"m 62 359 l 62 374 q 103 565 62 481 q 218 698 144 649 q 395 747 293 747 q 574 698 499 747 q 690 565 649 649 q 730 374 730 481 l 730 359 q 690 169 730 253 q 574 35 649 84 q 397 -14 500 -14 q 219 35 294 -14 q 103 169 144 84 q 62 359 62 253 m 188 374 l 188 359 q 211 225 188 286 q 280 126 234 163 q 397 90 327 90 q 512 126 466 90 q 581 225 558 163 q 604 359 604 286 l 604 374 q 581 508 604 446 q 511 607 557 569 q 395 644 465 644 q 280 607 326 644 q 211 508 234 569 q 188 374 188 446 m 546 1028 l 631 1021 q 588 901 631 946 q 484 856 546 856 q 427 866 450 856 q 387 888 405 876 q 350 910 370 901 q 302 920 331 920 q 255 899 274 920 q 235 845 235 877 l 151 849 q 193 970 151 924 q 296 1017 235 1017 q 362 1001 335 1017 q 416 968 389 985 q 478 952 442 952 q 526 974 507 952 q 546 1028 546 996 z "},"p":{"ha":780,"x_min":95,"x_max":715,"o":"m 715 373 l 715 359 q 682 168 715 252 q 585 35 649 83 q 431 -14 522 -14 q 311 8 363 -14 q 221 71 258 31 l 221 -282 l 95 -282 l 95 734 l 210 734 l 216 653 q 307 723 254 699 q 429 747 359 747 q 585 701 522 747 q 682 569 649 654 q 715 373 715 485 m 589 359 l 589 373 q 569 507 589 446 q 504 605 548 568 q 392 642 460 642 q 287 613 328 642 q 221 541 245 584 l 221 189 q 287 118 246 146 q 393 90 328 90 q 505 126 461 90 q 569 225 548 163 q 589 359 589 286 z "},"¶":{"ha":680,"x_min":46,"x_max":565,"o":"m 565 0 l 439 0 l 439 353 l 380 353 q 197 394 272 353 q 84 507 123 435 q 46 670 46 578 q 84 833 46 761 q 197 946 123 905 q 380 987 272 987 l 565 987 l 565 0 z "},"(":{"ha":475,"x_min":90,"x_max":448,"o":"m 212 401 q 239 151 212 273 q 318 -71 266 28 q 448 -230 371 -171 l 422 -313 q 286 -199 347 -272 q 181 -32 225 -127 q 114 174 138 64 q 90 401 90 285 q 114 627 90 517 q 181 833 138 738 q 286 1001 225 928 q 422 1114 347 1074 l 448 1031 q 318 873 371 972 q 239 651 266 773 q 212 401 212 528 z "},")":{"ha":475,"x_min":26,"x_max":385,"o":"m 263 401 q 236 651 263 528 q 157 873 210 773 q 26 1031 104 972 l 52 1114 q 189 1001 127 1074 q 293 833 250 928 q 361 627 337 738 q 385 401 385 517 q 361 174 385 285 q 293 -32 337 64 q 189 -199 250 -127 q 52 -313 127 -272 l 26 -230 q 157 -71 104 -171 q 236 151 210 28 q 263 401 263 273 z "},"∂":{"ha":792,"x_min":72,"x_max":729,"o":"m 389 693 q 507 667 451 693 q 603 595 564 641 q 556 768 593 695 q 465 880 519 840 q 345 919 410 919 q 246 908 292 919 q 152 880 200 898 l 141 981 q 227 1013 179 998 q 356 1028 275 1028 q 564 959 481 1028 q 688 763 646 889 q 729 467 729 637 l 729 427 q 690 202 729 302 q 577 44 650 102 q 399 -14 503 -14 q 223 33 296 -14 q 111 161 150 80 q 72 345 72 242 l 72 359 q 110 530 72 455 q 218 649 147 606 q 389 693 289 693 m 401 590 q 286 558 331 590 q 220 473 241 526 q 198 359 198 421 l 198 345 q 220 218 198 276 q 286 124 241 159 q 399 89 330 89 q 515 131 470 89 q 582 243 560 172 q 604 402 604 315 l 604 448 q 577 504 599 471 q 513 564 556 538 q 401 590 471 590 z "},"%":{"ha":1017,"x_min":71,"x_max":957,"o":"m 71 745 l 71 798 q 96 900 71 854 q 165 974 120 946 q 273 1002 211 1002 q 382 974 337 1002 q 452 900 427 946 q 476 798 476 854 l 476 745 q 452 644 476 690 q 383 570 428 598 q 275 543 338 543 q 166 570 212 543 q 96 644 120 598 q 71 745 71 690 m 165 798 l 165 745 q 192 661 165 699 q 275 624 219 624 q 355 661 329 624 q 382 745 382 698 l 382 798 q 355 883 382 846 q 273 920 328 920 q 192 883 219 920 q 165 798 165 846 m 785 847 l 303 75 l 233 120 l 715 892 l 785 847 m 552 189 l 552 242 q 576 344 552 298 q 646 418 601 390 q 754 446 692 446 q 863 418 818 446 q 932 344 908 390 q 957 242 957 298 l 957 189 q 933 87 957 134 q 864 14 909 41 q 755 -14 819 -14 q 647 14 692 -14 q 577 87 602 41 q 552 189 552 134 m 646 242 l 646 189 q 673 104 646 142 q 755 67 700 67 q 837 104 810 67 q 863 189 863 142 l 863 242 q 837 327 863 290 q 754 364 810 364 q 673 327 700 364 q 646 242 646 290 z "},".":{"ha":377,"x_min":98,"x_max":279,"o":"m 98 90 q 125 154 98 127 q 189 181 151 181 q 252 154 226 181 q 279 90 279 127 q 252 26 279 53 q 189 0 226 0 q 125 26 151 0 q 98 90 98 52 z "},"·":{"ha":363,"x_min":100,"x_max":256,"o":"m 100 494 q 120 548 100 526 q 178 570 140 570 q 236 548 216 570 q 256 494 256 526 q 236 442 256 463 q 178 420 216 420 q 120 442 140 420 q 100 494 100 463 z "},"‰":{"ha":1331,"x_min":46,"x_max":1274,"o":"m 46 745 l 46 798 q 71 900 46 854 q 140 974 95 946 q 248 1002 186 1002 q 357 974 312 1002 q 427 900 403 946 q 451 798 451 854 l 451 745 q 427 644 451 690 q 358 570 403 598 q 250 543 313 543 q 141 570 186 543 q 71 644 96 598 q 46 745 46 690 m 140 798 l 140 745 q 167 661 140 699 q 250 624 194 624 q 331 661 304 624 q 357 745 357 698 l 357 798 q 331 883 357 846 q 248 920 304 920 q 167 883 194 920 q 140 798 140 846 m 774 847 l 292 75 l 220 120 l 703 892 l 774 847 m 558 189 l 558 242 q 583 344 558 298 q 652 418 607 390 q 760 446 698 446 q 852 423 813 446 q 916 364 892 401 q 980 423 941 401 q 1072 446 1019 446 q 1180 418 1135 446 q 1250 344 1225 390 q 1274 242 1274 298 l 1274 189 q 1250 87 1274 134 q 1181 14 1226 41 q 1073 -14 1136 -14 q 980 8 1020 -14 q 916 67 941 31 q 853 8 892 31 q 762 -14 814 -14 q 653 14 699 -14 q 583 87 608 41 q 558 189 558 134 m 652 242 l 652 189 q 679 104 652 142 q 762 67 706 67 q 843 104 817 67 q 869 189 869 142 l 869 242 q 843 327 869 290 q 760 364 816 364 q 679 327 706 364 q 652 242 652 290 m 963 242 l 963 189 q 990 104 963 142 q 1072 67 1017 67 q 1153 104 1126 67 q 1180 189 1180 142 l 1180 242 q 1153 327 1180 290 q 1071 364 1126 364 q 990 327 1017 364 q 963 242 963 290 z "},"₧":{"ha":1140,"x_min":113,"x_max":1044,"o":"m 370 383 l 239 383 l 239 0 l 113 0 l 113 987 l 370 987 q 595 916 522 987 q 681 734 669 845 l 778 734 l 778 912 l 903 912 l 903 734 l 1040 734 l 1040 637 l 903 637 l 903 182 q 928 110 903 125 q 984 94 953 94 q 1017 97 1000 94 q 1043 102 1034 100 l 1044 0 q 1005 -9 1029 -5 q 947 -14 981 -14 q 863 5 901 -14 q 801 66 824 23 q 778 182 778 109 l 778 637 l 681 637 q 595 454 669 526 q 370 383 522 383 m 370 884 l 239 884 l 239 486 l 370 486 q 489 515 448 486 q 543 589 529 543 q 557 684 557 634 q 543 781 557 735 q 489 856 529 827 q 370 884 448 884 z "},"+":{"ha":745,"x_min":95,"x_max":650,"o":"m 424 301 l 424 49 l 321 49 l 321 301 l 95 301 l 95 404 l 321 404 l 321 637 l 424 637 l 424 404 l 650 404 l 650 301 l 424 301 z "},"±":{"ha":743,"x_min":66,"x_max":687,"o":"m 687 580 l 687 477 l 441 477 l 441 196 l 328 196 l 328 477 l 66 477 l 66 580 l 328 580 l 328 859 l 441 859 l 441 580 l 687 580 m 659 103 l 659 1 l 92 1 l 92 103 l 659 103 z "},"∏":{"ha":965,"x_min":115,"x_max":850,"o":"m 850 987 l 850 -144 l 724 -144 l 724 884 l 241 884 l 241 -144 l 115 -144 l 115 987 l 850 987 z "},"q":{"ha":789,"x_min":64,"x_max":684,"o":"m 64 359 l 64 373 q 99 569 64 485 q 200 701 134 654 q 357 747 265 747 q 475 725 423 747 q 563 660 526 702 l 568 734 l 684 734 l 684 -282 l 557 -282 l 557 68 q 471 7 521 28 q 355 -14 420 -14 q 200 35 265 -14 q 99 168 134 83 q 64 359 64 252 m 191 373 l 191 359 q 211 225 191 286 q 275 126 232 163 q 387 90 319 90 q 490 117 449 90 q 557 188 532 145 l 557 548 q 490 617 532 590 q 388 644 449 644 q 276 607 319 644 q 211 508 232 570 q 191 373 191 446 z "},"?":{"ha":656,"x_min":51,"x_max":602,"o":"m 368 278 l 242 278 q 254 385 243 343 q 291 461 265 427 q 359 540 317 496 q 417 600 391 572 q 459 661 443 628 q 475 740 475 694 q 438 851 475 810 q 330 891 401 891 q 224 859 271 891 q 176 756 177 827 l 51 756 q 89 888 52 833 q 189 972 126 943 q 330 1001 252 1001 q 531 932 460 1001 q 602 743 602 863 q 577 631 602 682 q 513 535 552 580 q 431 450 475 490 q 381 372 394 415 q 368 278 368 328 m 237 63 q 256 115 237 94 q 311 136 275 136 q 366 115 347 136 q 385 63 385 94 q 366 13 385 34 q 311 -8 347 -8 q 256 13 275 -8 q 237 63 237 34 z "},"¿":{"ha":658,"x_min":46,"x_max":603,"o":"m 405 676 q 386 625 405 646 q 331 604 367 604 q 275 625 294 604 q 256 676 256 646 q 275 727 256 706 q 331 747 294 747 q 386 727 367 747 q 405 676 405 706 m 273 461 l 399 461 q 388 356 399 396 q 352 281 376 315 q 285 202 327 248 q 231 143 256 172 q 189 81 205 115 q 172 0 172 47 q 212 -113 172 -74 q 324 -152 251 -152 q 430 -118 384 -152 q 477 -14 477 -84 l 603 -14 q 565 -146 602 -90 q 466 -232 528 -202 q 324 -262 403 -262 q 119 -194 192 -262 q 46 -4 46 -126 q 71 110 46 58 q 134 208 96 163 q 212 292 172 253 q 261 370 249 328 q 273 461 273 412 z "},"\"":{"ha":445,"x_min":93,"x_max":372,"o":"m 189 1042 l 189 949 l 168 707 l 93 707 l 93 1042 l 189 1042 m 372 1042 l 372 949 l 351 707 l 276 707 l 276 1042 l 372 1042 z "},"„":{"ha":479,"x_min":24,"x_max":415,"o":"m 214 167 l 214 54 q 183 -84 214 -12 q 96 -205 153 -156 l 24 -155 q 73 -57 56 -107 q 89 52 89 -7 l 89 167 l 214 167 m 415 167 l 415 54 q 384 -84 415 -12 q 297 -205 353 -156 l 225 -155 q 273 -57 257 -107 q 290 52 290 -7 l 290 167 l 415 167 z "},"“":{"ha":491,"x_min":71,"x_max":474,"o":"m 71 728 l 71 810 q 102 940 71 871 q 189 1055 133 1009 l 260 1006 q 212 914 229 961 q 195 812 195 867 l 195 728 l 71 728 m 285 728 l 285 810 q 316 940 285 871 q 403 1055 347 1009 l 474 1006 q 426 914 443 961 q 409 812 409 867 l 409 728 l 285 728 z "},"”":{"ha":496,"x_min":41,"x_max":439,"o":"m 231 1042 l 231 955 q 200 824 231 893 q 113 709 169 755 l 41 759 q 89 851 73 804 q 106 953 106 898 l 106 1042 l 231 1042 m 439 1042 l 439 955 q 408 824 439 893 q 321 709 377 755 l 249 759 q 297 851 281 804 q 314 953 314 898 l 314 1042 l 439 1042 z "},"‘":{"ha":278,"x_min":66,"x_max":255,"o":"m 66 728 l 66 810 q 97 940 66 871 q 184 1055 127 1009 l 255 1006 q 207 914 224 961 q 190 812 190 867 l 190 728 l 66 728 z "},"‛":{"ha":278,"x_min":54,"x_max":243,"o":"m 54 1042 l 178 1042 l 178 953 q 195 851 178 898 q 243 759 212 804 l 172 709 q 85 824 116 755 q 54 955 54 893 l 54 1042 z "},"’":{"ha":278,"x_min":33,"x_max":222,"o":"m 222 1042 l 222 955 q 192 824 222 893 q 104 709 161 755 l 33 759 q 81 851 64 804 q 98 953 98 898 l 98 1042 l 222 1042 z "},"‚":{"ha":277,"x_min":24,"x_max":214,"o":"m 214 123 l 214 54 q 183 -77 214 -8 q 96 -192 153 -146 l 24 -143 q 73 -51 56 -98 q 89 52 89 -3 l 89 123 l 214 123 z "},"'":{"ha":243,"x_min":71,"x_max":172,"o":"m 172 1042 l 172 967 l 158 718 l 71 718 l 71 956 l 71 1042 l 172 1042 z "},"r":{"ha":471,"x_min":96,"x_max":450,"o":"m 450 738 l 450 621 q 389 627 422 627 q 283 598 324 627 q 221 521 241 569 l 221 0 l 96 0 l 96 734 l 218 734 l 220 650 q 291 721 248 694 q 395 747 334 747 q 426 744 408 747 q 450 738 444 741 z "},"ŕ":{"ha":471,"x_min":96,"x_max":490,"o":"m 450 738 l 450 621 q 389 627 422 627 q 283 598 324 627 q 221 521 241 569 l 221 0 l 96 0 l 96 734 l 218 734 l 220 650 q 291 721 248 694 q 395 747 334 747 q 426 744 408 747 q 450 738 444 741 m 208 842 l 339 1042 l 490 1042 l 309 842 l 208 842 z "},"√":{"ha":828,"x_min":43,"x_max":798,"o":"m 43 427 l 43 530 l 256 530 l 380 193 l 669 987 l 798 987 l 431 -1 l 335 -1 l 169 427 l 43 427 z "},"ř":{"ha":471,"x_min":68,"x_max":487,"o":"m 450 738 l 450 621 q 389 627 422 627 q 283 598 324 627 q 221 521 241 569 l 221 0 l 96 0 l 96 734 l 218 734 l 220 650 q 291 721 248 694 q 395 747 334 747 q 426 744 408 747 q 450 738 444 741 m 174 1041 l 276 926 l 378 1041 l 487 1041 l 487 1034 l 315 848 l 237 848 l 68 1034 l 68 1041 l 174 1041 z "},"ŗ":{"ha":471,"x_min":56,"x_max":450,"o":"m 450 738 l 450 621 q 389 627 422 627 q 283 598 324 627 q 221 521 241 569 l 221 0 l 96 0 l 96 734 l 218 734 l 220 650 q 291 721 248 694 q 395 747 334 747 q 426 744 408 747 q 450 738 444 741 m 226 -71 l 226 -124 q 202 -239 226 -178 q 127 -342 178 -301 l 56 -293 q 94 -214 81 -254 q 106 -125 106 -173 l 106 -71 l 226 -71 z "},"®":{"ha":1092,"x_min":62,"x_max":1024,"o":"m 62 494 q 99 694 62 602 q 203 856 136 787 q 356 963 269 924 q 543 1001 444 1001 q 730 963 643 1001 q 883 856 817 924 q 987 694 949 787 q 1024 494 1024 602 q 987 294 1024 387 q 883 133 949 202 q 730 24 817 63 q 543 -14 643 -14 q 356 24 444 -14 q 203 133 269 63 q 99 294 136 202 q 62 494 62 387 m 140 494 q 171 326 140 404 q 258 190 202 248 q 387 99 313 132 q 543 66 460 66 q 700 99 627 66 q 828 190 772 132 q 914 326 883 248 q 945 494 945 404 q 914 663 945 585 q 828 798 883 740 q 700 888 772 856 q 543 920 627 920 q 387 888 460 920 q 258 798 313 856 q 171 663 202 740 q 140 494 140 585 m 554 444 l 443 444 l 443 215 l 347 215 l 347 790 l 535 790 q 694 747 635 790 q 753 617 753 704 q 666 490 753 534 q 731 434 713 471 q 749 349 749 397 l 749 312 q 752 264 749 287 q 761 226 755 241 l 761 215 l 663 215 q 655 265 656 233 q 654 313 654 298 l 654 348 q 631 421 654 397 q 554 444 608 444 m 535 704 l 443 704 l 443 531 l 549 531 q 625 553 592 532 q 658 613 658 574 q 631 684 658 663 q 535 704 604 704 z "},"˚":{"ha":465,"x_min":82,"x_max":374,"o":"m 82 956 q 124 1055 82 1014 q 228 1097 166 1097 q 332 1055 290 1097 q 374 956 374 1014 q 332 857 374 896 q 228 817 290 817 q 124 857 166 817 q 82 956 82 896 m 149 956 q 171 902 149 926 q 228 878 193 878 q 284 901 262 878 q 307 956 307 924 q 284 1011 307 987 q 228 1036 262 1036 q 171 1011 193 1036 q 149 956 149 987 z "},"₨":{"ha":1469,"x_min":115,"x_max":1400,"o":"m 692 0 l 477 400 l 245 400 l 245 0 l 115 0 l 115 987 l 441 987 q 697 911 608 987 q 787 691 787 836 q 738 530 787 599 q 600 427 688 461 l 831 8 l 831 0 l 692 0 m 441 880 l 245 880 l 245 507 l 446 507 q 604 561 551 507 q 657 691 657 614 q 606 828 657 777 q 441 880 555 880 m 1275 195 q 1263 245 1275 222 q 1215 288 1251 269 q 1106 321 1179 307 q 912 395 983 347 q 842 533 842 443 q 875 640 842 591 q 970 718 909 688 q 1114 747 1031 747 q 1264 716 1202 747 q 1360 633 1326 685 q 1393 518 1393 581 l 1267 518 q 1228 604 1267 564 q 1114 644 1188 644 q 1002 610 1036 644 q 968 536 968 576 q 981 490 968 509 q 1031 454 995 470 q 1137 423 1067 439 q 1336 342 1272 392 q 1400 204 1400 293 q 1323 47 1400 108 q 1117 -14 1245 -14 q 953 21 1020 -14 q 851 111 886 56 q 817 227 817 165 l 943 227 q 972 145 945 175 q 1039 102 1000 115 q 1117 90 1078 90 q 1234 119 1194 90 q 1275 195 1275 149 z "},"s":{"ha":717,"x_min":64,"x_max":648,"o":"m 523 195 q 511 245 523 222 q 463 288 499 269 q 354 321 427 307 q 160 395 231 347 q 90 533 90 443 q 123 640 90 591 q 218 718 157 688 q 361 747 279 747 q 512 716 450 747 q 608 633 574 685 q 641 518 641 581 l 515 518 q 476 604 515 564 q 361 644 436 644 q 250 610 283 644 q 216 536 216 576 q 229 490 216 509 q 279 454 243 470 q 385 423 315 439 q 584 342 520 392 q 648 204 648 293 q 571 47 648 108 q 365 -14 493 -14 q 201 21 268 -14 q 99 111 134 56 q 64 227 64 165 l 191 227 q 220 145 193 175 q 287 102 248 115 q 365 90 326 90 q 482 119 441 90 q 523 195 523 149 z "},"ś":{"ha":717,"x_min":64,"x_max":648,"o":"m 523 195 q 511 245 523 222 q 463 288 499 269 q 354 321 427 307 q 160 395 231 347 q 90 533 90 443 q 123 640 90 591 q 218 718 157 688 q 361 747 279 747 q 512 716 450 747 q 608 633 574 685 q 641 518 641 581 l 515 518 q 476 604 515 564 q 361 644 436 644 q 250 610 283 644 q 216 536 216 576 q 229 490 216 509 q 279 454 243 470 q 385 423 315 439 q 584 342 520 392 q 648 204 648 293 q 571 47 648 108 q 365 -14 493 -14 q 201 21 268 -14 q 99 111 134 56 q 64 227 64 165 l 191 227 q 220 145 193 175 q 287 102 248 115 q 365 90 326 90 q 482 119 441 90 q 523 195 523 149 m 312 842 l 444 1042 l 595 1042 l 413 842 l 312 842 z "},"š":{"ha":717,"x_min":64,"x_max":648,"o":"m 523 195 q 511 245 523 222 q 463 288 499 269 q 354 321 427 307 q 160 395 231 347 q 90 533 90 443 q 123 640 90 591 q 218 718 157 688 q 361 747 279 747 q 512 716 450 747 q 608 633 574 685 q 641 518 641 581 l 515 518 q 476 604 515 564 q 361 644 436 644 q 250 610 283 644 q 216 536 216 576 q 229 490 216 509 q 279 454 243 470 q 385 423 315 439 q 584 342 520 392 q 648 204 648 293 q 571 47 648 108 q 365 -14 493 -14 q 201 21 268 -14 q 99 111 134 56 q 64 227 64 165 l 191 227 q 220 145 193 175 q 287 102 248 115 q 365 90 326 90 q 482 119 441 90 q 523 195 523 149 m 278 1041 l 380 926 l 483 1041 l 591 1041 l 591 1034 l 419 848 l 342 848 l 172 1034 l 172 1041 l 278 1041 z "},"ş":{"ha":717,"x_min":64,"x_max":648,"o":"m 523 195 q 511 245 523 222 q 463 288 499 269 q 354 321 427 307 q 160 395 231 347 q 90 533 90 443 q 123 640 90 591 q 218 718 157 688 q 361 747 279 747 q 512 716 450 747 q 608 633 574 685 q 641 518 641 581 l 515 518 q 476 604 515 564 q 361 644 436 644 q 250 610 283 644 q 216 536 216 576 q 229 490 216 509 q 279 454 243 470 q 385 423 315 439 q 584 342 520 392 q 648 204 648 293 q 571 47 648 108 q 365 -14 493 -14 q 201 21 268 -14 q 99 111 134 56 q 64 227 64 165 l 191 227 q 220 145 193 175 q 287 102 248 115 q 365 90 326 90 q 482 119 441 90 q 523 195 523 149 m 340 -7 l 430 -7 l 422 -43 q 493 -75 461 -50 q 526 -160 526 -101 q 473 -263 526 -224 q 320 -302 421 -302 l 315 -229 q 395 -214 362 -229 q 428 -162 428 -198 q 402 -116 428 -128 q 319 -98 376 -103 l 340 -7 z "},"ə":{"ha":732,"x_min":67,"x_max":680,"o":"m 347 749 q 524 701 449 749 q 639 571 598 654 q 680 382 680 488 l 680 352 q 635 162 680 245 q 520 33 591 80 q 366 -13 449 -14 q 199 29 265 -13 q 100 145 132 71 q 67 314 67 218 l 67 397 l 553 397 q 527 522 551 466 q 458 612 503 578 q 347 646 413 646 q 222 624 273 646 q 138 572 172 603 l 88 658 q 185 720 122 690 q 347 749 248 749 m 366 90 q 486 148 437 90 q 549 294 536 206 l 193 294 l 193 277 q 211 185 193 228 q 268 116 229 142 q 366 90 307 90 z "},"ŝ":{"ha":717,"x_min":64,"x_max":648,"o":"m 523 195 q 511 245 523 222 q 463 288 499 269 q 354 321 427 307 q 160 395 231 347 q 90 533 90 443 q 123 640 90 591 q 218 718 157 688 q 361 747 279 747 q 512 716 450 747 q 608 633 574 685 q 641 518 641 581 l 515 518 q 476 604 515 564 q 361 644 436 644 q 250 610 283 644 q 216 536 216 576 q 229 490 216 509 q 279 454 243 470 q 385 423 315 439 q 584 342 520 392 q 648 204 648 293 q 571 47 648 108 q 365 -14 493 -14 q 201 21 268 -14 q 99 111 134 56 q 64 227 64 165 l 191 227 q 220 145 193 175 q 287 102 248 115 q 365 90 326 90 q 482 119 441 90 q 523 195 523 149 m 419 1042 l 587 857 l 587 850 l 483 850 l 381 964 l 280 850 l 177 850 l 177 857 l 343 1042 l 419 1042 z "},"″":{"ha":445,"x_min":93,"x_max":372,"o":"m 189 1042 l 189 949 l 168 707 l 93 707 l 93 1042 l 189 1042 m 372 1042 l 372 949 l 351 707 l 276 707 l 276 1042 l 372 1042 z "},"§":{"ha":852,"x_min":62,"x_max":777,"o":"m 746 -87 q 656 -271 746 -205 q 416 -336 566 -336 q 288 -321 351 -336 q 173 -272 224 -306 q 92 -182 122 -238 q 62 -43 62 -125 l 187 -42 q 222 -156 187 -114 q 310 -215 257 -197 q 416 -233 362 -233 q 567 -191 513 -233 q 621 -89 621 -150 q 599 -18 621 -47 q 526 34 578 10 q 382 85 474 58 q 213 147 283 113 q 104 236 142 182 q 66 374 66 290 q 98 485 66 437 q 189 559 131 532 q 120 640 144 593 q 96 753 96 686 q 186 934 96 866 q 428 1002 277 1002 q 672 926 583 1002 q 761 709 761 851 l 635 709 q 582 843 635 788 q 428 899 529 899 q 272 856 321 899 q 222 755 222 814 q 241 681 222 709 q 312 629 260 652 q 458 580 363 606 q 631 517 559 552 q 739 430 702 483 q 777 292 777 377 q 744 181 777 228 q 651 106 711 134 q 722 27 697 74 q 746 -87 746 -19 m 432 197 q 490 179 462 188 q 542 161 517 171 q 623 210 594 176 q 651 290 651 244 q 629 362 651 333 q 554 416 607 391 q 409 469 502 441 q 350 486 378 477 q 296 505 321 494 q 217 457 243 492 q 191 375 191 422 q 211 300 191 330 q 283 247 231 271 q 432 197 335 224 z "},";":{"ha":294,"x_min":28,"x_max":256,"o":"m 75 689 q 102 753 75 726 q 165 780 128 780 q 229 753 203 780 q 256 689 256 726 q 229 625 256 652 q 165 599 203 599 q 102 625 128 599 q 75 689 75 650 m 218 149 l 218 48 q 186 -82 218 -14 q 99 -197 155 -151 l 28 -148 q 77 -56 60 -103 q 95 46 95 -9 l 95 149 l 218 149 z "},"⅞":{"ha":1114,"x_min":61,"x_max":1040,"o":"m 481 979 l 481 918 l 243 444 l 131 444 l 368 892 l 61 892 l 61 979 l 481 979 m 789 847 l 307 75 l 236 120 l 718 892 l 789 847 m 1040 146 q 982 32 1040 71 q 840 -7 925 -7 q 696 32 754 -7 q 638 146 638 71 q 664 224 638 191 q 732 276 689 258 q 673 324 694 294 q 652 393 652 354 q 704 504 652 466 q 839 543 757 543 q 974 504 920 543 q 1027 393 1027 466 q 1005 323 1027 354 q 947 275 984 293 q 1015 224 989 257 q 1040 146 1040 191 m 920 387 q 898 437 920 418 q 839 456 876 456 q 780 437 802 456 q 758 387 758 419 q 780 336 758 355 q 840 317 802 317 q 898 336 877 317 q 920 387 920 355 m 934 155 q 907 210 934 190 q 839 230 881 230 q 771 210 796 230 q 745 155 745 190 q 771 99 745 119 q 840 79 796 79 q 908 99 882 79 q 934 155 934 119 z "},"/":{"ha":572,"x_min":12,"x_max":532,"o":"m 120 -85 l 12 -85 l 425 987 l 532 987 l 120 -85 z "}," ":{"ha":373,"x_min":0,"x_max":0,"o":""},"£":{"ha":808,"x_min":62,"x_max":765,"o":"m 517 422 l 304 422 l 310 273 q 300 182 311 225 q 269 106 290 138 l 765 106 l 765 0 l 64 0 l 64 106 l 117 106 q 154 141 140 113 q 174 205 168 169 q 180 272 180 242 l 174 422 l 62 422 l 62 529 l 171 529 l 165 705 q 204 864 165 798 q 312 966 243 930 q 466 1001 380 1001 q 672 928 599 1001 q 746 737 746 855 l 616 737 q 567 858 616 822 q 455 895 518 895 q 341 845 388 895 q 295 705 295 796 l 301 529 l 517 529 l 517 422 z "},"∑":{"ha":813,"x_min":47,"x_max":811,"o":"m 593 408 l 593 391 l 199 -80 l 811 -80 l 811 -182 l 47 -182 l 47 -86 l 460 400 l 47 890 l 47 987 l 759 987 l 759 885 l 199 885 l 593 408 z "},"t":{"ha":454,"x_min":6,"x_max":406,"o":"m 403 734 l 403 637 l 266 637 l 266 182 q 291 110 266 125 q 347 94 315 94 q 379 97 362 94 q 406 102 397 100 l 406 0 q 367 -9 391 -5 q 309 -14 343 -14 q 224 5 263 -14 q 163 66 186 23 q 140 182 140 109 l 140 637 l 6 637 l 6 734 l 140 734 l 140 912 l 266 912 l 266 734 l 403 734 z "},"ŧ":{"ha":454,"x_min":-8,"x_max":424,"o":"m 424 511 l 424 408 l 266 408 l 266 182 q 291 110 266 125 q 347 94 315 94 q 379 97 362 94 q 406 102 397 100 l 406 0 q 367 -9 391 -5 q 309 -14 343 -14 q 224 5 263 -14 q 163 66 186 23 q 140 182 140 109 l 140 408 l -8 408 l -8 511 l 140 511 l 140 637 l 6 637 l 6 734 l 140 734 l 140 912 l 266 912 l 266 734 l 403 734 l 403 637 l 266 637 l 266 511 l 424 511 z "},"ť":{"ha":481,"x_min":6,"x_max":507,"o":"m 403 734 l 403 637 l 266 637 l 266 182 q 291 110 266 125 q 347 94 315 94 q 379 97 362 94 q 406 102 397 100 l 406 0 q 367 -9 391 -5 q 309 -14 343 -14 q 224 5 263 -14 q 163 66 186 23 q 140 182 140 109 l 140 637 l 6 637 l 6 734 l 140 734 l 140 912 l 266 912 l 266 734 l 403 734 m 507 1124 l 507 1071 q 483 956 507 1017 q 409 852 459 894 l 338 902 q 375 981 363 941 q 388 1069 388 1022 l 388 1124 l 507 1124 z "},"þ":{"ha":800,"x_min":101,"x_max":722,"o":"m 722 373 l 722 359 q 688 168 722 252 q 591 35 655 83 q 437 -14 528 -14 q 317 8 369 -14 q 227 71 264 31 l 227 -282 l 101 -282 l 101 1042 l 227 1042 l 227 659 q 316 725 264 702 q 435 747 368 747 q 591 701 528 747 q 688 569 655 654 q 722 373 722 485 m 595 359 l 595 373 q 575 507 595 446 q 510 605 554 568 q 398 642 467 642 q 293 613 334 642 q 227 541 252 584 l 227 189 q 293 118 252 146 q 399 90 334 90 q 511 126 467 90 q 575 225 554 163 q 595 359 595 286 z "},"⅜":{"ha":1187,"x_min":68,"x_max":1098,"o":"m 206 681 l 206 759 l 263 759 q 337 780 313 759 q 362 833 362 800 q 340 883 362 863 q 272 903 319 903 q 208 886 233 903 q 182 840 182 869 l 76 840 q 132 950 76 909 q 270 990 189 990 q 414 951 359 990 q 469 838 469 913 q 445 770 469 801 q 378 722 422 739 q 478 597 478 694 q 419 481 478 522 q 271 440 359 440 q 173 457 220 440 q 98 509 127 473 q 68 599 68 544 l 175 599 q 202 548 175 568 q 274 527 229 527 q 346 548 321 527 q 371 602 371 569 q 342 663 371 645 q 263 681 313 681 l 206 681 m 879 847 l 397 75 l 326 120 l 808 892 l 879 847 m 1098 146 q 1041 32 1098 71 q 898 -7 983 -7 q 754 32 812 -7 q 696 146 696 71 q 722 224 696 191 q 790 276 747 258 q 731 324 753 294 q 710 393 710 354 q 763 504 710 466 q 897 543 815 543 q 1032 504 979 543 q 1085 393 1085 466 q 1064 323 1085 354 q 1005 275 1042 293 q 1073 224 1048 257 q 1098 146 1098 191 m 978 387 q 956 437 978 418 q 897 456 935 456 q 838 437 860 456 q 817 387 817 419 q 839 336 817 355 q 898 317 861 317 q 957 336 935 317 q 978 387 978 355 m 992 155 q 966 210 992 190 q 897 230 939 230 q 829 210 854 230 q 804 155 804 190 q 829 99 804 119 q 898 79 854 79 q 966 99 940 79 q 992 155 992 119 z "},"¾":{"ha":1080,"x_min":76,"x_max":1029,"o":"m 869 852 l 387 81 l 317 125 l 799 897 l 869 852 m 1029 203 l 1029 115 l 956 115 l 956 0 l 850 0 l 850 115 l 596 115 l 591 184 l 848 535 l 956 535 l 956 203 l 1029 203 m 699 203 l 850 203 l 850 398 l 839 380 l 699 203 m 214 686 l 214 764 l 271 764 q 345 784 320 764 q 370 838 370 805 q 348 888 370 867 q 279 908 326 908 q 215 891 241 908 q 190 845 190 874 l 83 845 q 140 955 83 914 q 277 995 196 995 q 421 956 366 995 q 476 843 476 918 q 453 775 476 806 q 385 727 429 744 q 486 602 486 699 q 426 486 486 527 q 278 445 367 445 q 181 461 227 445 q 105 513 134 478 q 76 604 76 549 l 182 604 q 210 552 182 573 q 281 532 237 532 q 354 553 329 532 q 378 607 378 574 q 350 668 378 650 q 271 686 321 686 l 214 686 z "},"³":{"ha":509,"x_min":43,"x_max":452,"o":"m 180 686 l 180 764 l 237 764 q 312 784 287 764 q 336 838 336 805 q 315 888 336 867 q 246 908 293 908 q 182 891 208 908 q 157 845 157 874 l 50 845 q 106 955 50 914 q 244 995 163 995 q 388 956 333 995 q 443 843 443 918 q 419 775 443 806 q 352 727 396 744 q 452 602 452 699 q 393 486 452 527 q 245 445 334 445 q 148 461 194 445 q 72 513 101 478 q 43 604 43 549 l 149 604 q 176 552 149 573 q 248 532 203 532 q 320 553 296 532 q 345 607 345 574 q 316 668 345 650 q 237 686 288 686 l 180 686 z "},"˜":{"ha":655,"x_min":83,"x_max":564,"o":"m 479 1025 l 564 1018 q 521 898 564 943 q 417 853 479 853 q 360 863 382 853 q 320 885 338 873 q 283 908 302 898 q 235 918 264 918 q 188 896 207 918 q 168 842 168 874 l 83 846 q 125 967 83 921 q 229 1014 168 1014 q 295 998 268 1014 q 349 966 322 982 q 411 949 375 949 q 459 971 439 949 q 479 1025 479 994 z "},"̃":{"ha":0,"x_min":-601,"x_max":-121,"o":"m -205 1025 l -121 1018 q -163 898 -121 943 q -267 853 -205 853 q -324 863 -302 853 q -364 885 -347 873 q -401 908 -382 898 q -449 918 -420 918 q -497 896 -477 918 q -516 842 -516 874 l -601 846 q -559 967 -601 921 q -455 1014 -517 1014 q -389 998 -416 1014 q -336 966 -362 982 q -273 949 -309 949 q -225 971 -245 949 q -205 1025 -205 994 z "},"™":{"ha":869,"x_min":71,"x_max":732,"o":"m 671 623 l 671 891 l 577 623 l 542 623 l 447 890 l 447 623 l 386 623 l 386 987 l 462 987 l 559 718 l 656 987 l 732 987 l 732 623 l 671 623 m 332 987 l 332 932 l 232 932 l 232 623 l 170 623 l 170 932 l 71 932 l 71 987 l 332 987 z "},"²":{"ha":509,"x_min":45,"x_max":463,"o":"m 463 539 l 463 452 l 58 452 l 58 526 l 253 709 q 317 781 299 751 q 334 833 334 811 q 313 887 334 866 q 251 908 291 908 q 176 882 200 908 q 152 818 152 857 l 45 818 q 99 943 45 890 q 248 995 153 995 q 391 952 339 995 q 442 835 442 909 q 407 736 442 781 q 312 638 372 692 l 193 539 l 463 539 z "},"u":{"ha":766,"x_min":93,"x_max":671,"o":"m 551 0 l 548 73 q 461 9 514 32 q 334 -14 408 -14 q 159 50 226 -14 q 93 260 93 114 l 93 734 l 218 734 l 218 259 q 238 157 218 193 q 288 107 257 121 q 353 93 319 93 q 476 122 430 93 q 545 199 522 151 l 545 734 l 671 734 l 671 0 l 551 0 z "},"ú":{"ha":766,"x_min":93,"x_max":671,"o":"m 551 0 l 548 73 q 461 9 514 32 q 334 -14 408 -14 q 159 50 226 -14 q 93 260 93 114 l 93 734 l 218 734 l 218 259 q 238 157 218 193 q 288 107 257 121 q 353 93 319 93 q 476 122 430 93 q 545 199 522 151 l 545 734 l 671 734 l 671 0 l 551 0 m 315 842 l 447 1042 l 598 1042 l 416 842 l 315 842 z "},"ŭ":{"ha":766,"x_min":93,"x_max":671,"o":"m 551 0 l 548 73 q 461 9 514 32 q 334 -14 408 -14 q 159 50 226 -14 q 93 260 93 114 l 93 734 l 218 734 l 218 259 q 238 157 218 193 q 288 107 257 121 q 353 93 319 93 q 476 122 430 93 q 545 199 522 151 l 545 734 l 671 734 l 671 0 l 551 0 m 486 1014 l 587 1014 q 533 883 587 934 q 385 833 479 833 q 236 883 291 833 q 182 1014 182 934 l 283 1014 q 307 943 283 974 q 385 913 330 913 q 463 943 439 913 q 486 1014 486 974 z "},"û":{"ha":766,"x_min":93,"x_max":671,"o":"m 551 0 l 548 73 q 461 9 514 32 q 334 -14 408 -14 q 159 50 226 -14 q 93 260 93 114 l 93 734 l 218 734 l 218 259 q 238 157 218 193 q 288 107 257 121 q 353 93 319 93 q 476 122 430 93 q 545 199 522 151 l 545 734 l 671 734 l 671 0 l 551 0 m 422 1042 l 591 857 l 591 850 l 486 850 l 385 964 l 283 850 l 180 850 l 180 857 l 347 1042 l 422 1042 z "},"ü":{"ha":766,"x_min":93,"x_max":671,"o":"m 551 0 l 548 73 q 461 9 514 32 q 334 -14 408 -14 q 159 50 226 -14 q 93 260 93 114 l 93 734 l 218 734 l 218 259 q 238 157 218 193 q 288 107 257 121 q 353 93 319 93 q 476 122 430 93 q 545 199 522 151 l 545 734 l 671 734 l 671 0 l 551 0 m 166 930 q 185 981 166 960 q 240 1002 204 1002 q 296 981 277 1002 q 315 930 315 960 q 296 880 315 901 q 240 859 277 859 q 185 880 204 859 q 166 930 166 901 m 458 928 q 477 980 458 959 q 532 1001 496 1001 q 588 980 568 1001 q 607 928 607 959 q 588 879 607 899 q 532 858 568 858 q 477 879 496 858 q 458 928 458 899 z "},"ù":{"ha":766,"x_min":93,"x_max":671,"o":"m 551 0 l 548 73 q 461 9 514 32 q 334 -14 408 -14 q 159 50 226 -14 q 93 260 93 114 l 93 734 l 218 734 l 218 259 q 238 157 218 193 q 288 107 257 121 q 353 93 319 93 q 476 122 430 93 q 545 199 522 151 l 545 734 l 671 734 l 671 0 l 551 0 m 325 1042 l 456 842 l 348 842 l 173 1042 l 325 1042 z "},"ư":{"ha":859,"x_min":93,"x_max":879,"o":"m 783 793 l 879 793 q 836 628 879 684 q 671 568 793 572 l 671 0 l 551 0 l 548 73 q 461 9 514 32 q 334 -14 408 -14 q 159 50 226 -14 q 93 260 93 114 l 93 734 l 218 734 l 218 259 q 238 157 218 193 q 288 107 257 121 q 353 93 319 93 q 476 122 430 93 q 545 199 522 151 l 545 734 l 671 734 l 671 646 q 748 664 725 648 q 777 711 772 680 q 783 793 783 743 z "},"ű":{"ha":766,"x_min":93,"x_max":702,"o":"m 551 0 l 548 73 q 461 9 514 32 q 334 -14 408 -14 q 159 50 226 -14 q 93 260 93 114 l 93 734 l 218 734 l 218 259 q 238 157 218 193 q 288 107 257 121 q 353 93 319 93 q 476 122 430 93 q 545 199 522 151 l 545 734 l 671 734 l 671 0 l 551 0 m 406 836 l 562 1041 l 702 1041 l 520 836 l 406 836 m 216 836 l 331 1041 l 465 1041 l 317 836 l 216 836 z "},"ū":{"ha":766,"x_min":93,"x_max":671,"o":"m 551 0 l 548 73 q 461 9 514 32 q 334 -14 408 -14 q 159 50 226 -14 q 93 260 93 114 l 93 734 l 218 734 l 218 259 q 238 157 218 193 q 288 107 257 121 q 353 93 319 93 q 476 122 430 93 q 545 199 522 151 l 545 734 l 671 734 l 671 0 l 551 0 m 616 985 l 616 889 l 161 889 l 161 985 l 616 985 z "},"_":{"ha":627,"x_min":3,"x_max":625,"o":"m 625 0 l 625 -103 l 3 -103 l 3 0 l 625 0 z "},"‗":{"ha":633,"x_min":9,"x_max":630,"o":"m 630 0 l 630 -103 l 9 -103 l 9 0 l 630 0 m 630 -172 l 630 -275 l 9 -275 l 9 -172 l 630 -172 z "},"­":{"ha":384,"x_min":95,"x_max":553,"o":"m 553 300 l 95 300 l 95 403 l 553 403 l 553 300 z "},"Ċ":{"ha":904,"x_min":81,"x_max":841,"o":"m 711 314 l 841 314 q 787 146 831 220 q 665 30 744 73 q 467 -14 585 -14 q 264 43 351 -14 q 130 203 178 100 q 81 444 81 306 l 81 543 q 130 784 81 681 q 267 944 178 887 q 478 1001 356 1001 q 667 959 590 1001 q 788 843 745 917 q 841 671 831 768 l 711 671 q 644 834 696 774 q 478 894 593 894 q 279 798 347 894 q 212 544 212 701 l 212 444 q 239 268 212 347 q 322 140 266 188 q 467 93 379 93 q 600 119 550 93 q 674 195 649 146 q 711 314 700 245 m 387 1160 q 406 1211 387 1190 q 461 1232 425 1232 q 516 1211 497 1232 q 536 1160 536 1190 q 516 1110 536 1131 q 461 1089 497 1089 q 406 1110 425 1089 q 387 1160 387 1131 z "},"ċ":{"ha":727,"x_min":63,"x_max":682,"o":"m 389 90 q 507 130 456 90 q 562 232 557 170 l 682 232 q 638 111 678 167 q 532 21 597 55 q 389 -14 467 -14 q 207 37 279 -14 q 99 171 134 87 q 63 353 63 254 l 63 381 q 99 563 63 479 q 207 697 134 646 q 389 747 279 747 q 540 712 475 747 q 641 617 604 677 q 682 481 678 557 l 562 481 q 511 597 557 549 q 389 644 465 644 q 268 605 312 644 q 207 505 224 566 q 189 381 189 445 l 189 353 q 206 228 189 288 q 268 129 224 168 q 389 90 311 90 m 288 928 q 306 979 288 958 q 361 1000 325 1000 q 417 979 397 1000 q 436 928 436 958 q 417 877 436 898 q 361 857 397 857 q 306 877 325 857 q 288 928 288 898 z "},"Ġ":{"ha":946,"x_min":83,"x_max":844,"o":"m 844 492 l 844 130 q 786 70 826 103 q 676 11 746 36 q 495 -14 606 -14 q 282 42 375 -14 q 136 203 189 98 q 83 456 83 308 l 83 532 q 186 877 83 753 q 480 1001 289 1001 q 670 962 593 1001 q 789 854 746 923 q 844 699 832 786 l 713 699 q 679 796 705 752 q 604 867 652 840 q 480 894 556 894 q 279 797 343 894 q 214 534 214 700 l 214 456 q 292 189 214 285 q 496 93 369 93 q 609 105 566 93 q 677 133 652 117 q 714 165 701 150 l 714 386 l 486 386 l 486 492 l 844 492 m 382 1160 q 400 1211 382 1190 q 456 1232 419 1232 q 511 1211 492 1232 q 530 1160 530 1190 q 511 1110 530 1131 q 456 1089 492 1089 q 400 1110 419 1089 q 382 1160 382 1131 z "},"ġ":{"ha":780,"x_min":66,"x_max":685,"o":"m 66 359 l 66 373 q 101 569 66 485 q 201 701 136 654 q 355 747 266 747 q 477 723 425 747 q 565 652 529 699 l 571 734 l 685 734 l 685 16 q 646 -150 685 -81 q 536 -254 606 -218 q 374 -290 466 -290 q 285 -278 336 -290 q 185 -238 234 -266 q 102 -162 136 -210 l 168 -87 q 265 -165 214 -143 q 365 -186 315 -186 q 507 -137 454 -186 q 559 9 559 -87 l 559 74 q 472 9 524 32 q 354 -14 421 -14 q 201 35 266 -14 q 101 168 136 83 q 66 359 66 252 m 191 373 l 191 359 q 211 225 191 286 q 274 129 231 165 q 385 93 317 93 q 493 123 452 93 q 559 201 535 154 l 559 536 q 494 611 536 581 q 386 642 452 642 q 274 605 317 642 q 211 507 231 568 q 191 373 191 446 m 303 928 q 322 979 303 958 q 377 1000 340 1000 q 432 979 413 1000 q 452 928 452 958 q 432 877 452 898 q 377 857 413 857 q 322 877 340 857 q 303 928 303 898 z "},"Ţ":{"ha":829,"x_min":34,"x_max":797,"o":"m 797 987 l 797 880 l 479 880 l 479 0 l 351 0 l 351 880 l 34 880 l 34 987 l 797 987 m 375 0 l 465 0 l 457 -36 q 529 -68 496 -43 q 561 -153 561 -94 q 509 -256 561 -217 q 355 -295 456 -295 l 351 -222 q 430 -207 397 -222 q 463 -155 463 -191 q 437 -109 463 -121 q 354 -92 411 -96 l 375 0 z "},"ţ":{"ha":454,"x_min":6,"x_max":452,"o":"m 403 734 l 403 637 l 266 637 l 266 182 q 291 110 266 125 q 347 94 315 94 q 379 97 362 94 q 406 102 397 100 l 406 0 q 367 -9 391 -5 q 309 -14 343 -14 q 224 5 263 -14 q 163 66 186 23 q 140 182 140 109 l 140 637 l 6 637 l 6 734 l 140 734 l 140 912 l 266 912 l 266 734 l 403 734 m 266 0 l 356 0 l 348 -36 q 419 -68 387 -43 q 452 -153 452 -94 q 399 -256 452 -217 q 246 -295 347 -295 l 241 -222 q 321 -207 288 -222 q 354 -155 354 -191 q 328 -109 354 -121 q 245 -92 302 -96 l 266 0 z "},"ǰ":{"ha":350,"x_min":-52,"x_max":391,"o":"m 117 734 l 243 734 l 243 -60 q 185 -236 243 -175 q 24 -296 127 -296 q -14 -294 3 -296 q -52 -285 -32 -292 l -42 -184 q -8 -191 -32 -189 q 24 -193 15 -193 q 93 -158 68 -193 q 117 -60 117 -123 l 117 734 m 77 1013 l 180 898 l 282 1013 l 391 1013 l 391 1006 l 218 821 l 141 821 l -28 1006 l -28 1013 l 77 1013 z "},"Ș":{"ha":825,"x_min":55,"x_max":772,"o":"m 641 250 q 621 328 641 296 q 551 387 602 361 q 406 441 500 414 q 173 551 260 484 q 86 732 86 618 q 128 870 86 809 q 245 966 170 930 q 422 1001 321 1001 q 611 959 533 1001 q 729 848 688 916 q 770 703 770 780 l 640 703 q 586 840 640 785 q 422 894 532 894 q 267 848 317 894 q 217 734 217 802 q 272 630 217 672 q 448 555 326 589 q 694 437 616 507 q 772 251 772 366 q 730 111 772 171 q 610 19 687 52 q 428 -14 532 -14 q 293 5 359 -14 q 173 62 227 24 q 87 156 119 100 q 55 286 55 212 l 185 286 q 219 176 185 219 q 309 113 254 134 q 428 93 365 93 q 586 135 530 93 q 641 250 641 178 m 485 -79 l 485 -132 q 461 -248 485 -186 q 387 -351 437 -309 l 315 -301 q 353 -222 340 -262 q 366 -134 366 -181 l 366 -79 l 485 -79 z "},"ș":{"ha":717,"x_min":64,"x_max":648,"o":"m 523 195 q 511 245 523 222 q 463 288 499 269 q 354 321 427 307 q 160 395 231 347 q 90 533 90 443 q 123 640 90 591 q 218 718 157 688 q 361 747 279 747 q 512 716 450 747 q 608 633 574 685 q 641 518 641 581 l 515 518 q 476 604 515 564 q 361 644 436 644 q 250 610 283 644 q 216 536 216 576 q 229 490 216 509 q 279 454 243 470 q 385 423 315 439 q 584 342 520 392 q 648 204 648 293 q 571 47 648 108 q 365 -14 493 -14 q 201 21 268 -14 q 99 111 134 56 q 64 227 64 165 l 191 227 q 220 145 193 175 q 287 102 248 115 q 365 90 326 90 q 482 119 441 90 q 523 195 523 149 m 440 -85 l 440 -138 q 416 -254 440 -192 q 342 -357 392 -315 l 271 -307 q 308 -228 296 -269 q 321 -140 321 -187 l 321 -85 l 440 -85 z "},"Ț":{"ha":829,"x_min":34,"x_max":797,"o":"m 797 987 l 797 880 l 479 880 l 479 0 l 351 0 l 351 880 l 34 880 l 34 987 l 797 987 m 475 -78 l 475 -132 q 451 -247 475 -185 q 377 -350 427 -309 l 306 -300 q 343 -221 331 -262 q 356 -133 356 -180 l 356 -78 l 475 -78 z "},"ț":{"ha":454,"x_min":6,"x_max":406,"o":"m 403 734 l 403 637 l 266 637 l 266 182 q 291 110 266 125 q 347 94 315 94 q 379 97 362 94 q 406 102 397 100 l 406 0 q 367 -9 391 -5 q 309 -14 343 -14 q 224 5 263 -14 q 163 66 186 23 q 140 182 140 109 l 140 637 l 6 637 l 6 734 l 140 734 l 140 912 l 266 912 l 266 734 l 403 734 m 366 -78 l 366 -132 q 342 -247 366 -185 q 268 -350 318 -309 l 197 -300 q 234 -221 222 -262 q 247 -133 247 -180 l 247 -78 l 366 -78 z "},"ȷ":{"ha":350,"x_min":-52,"x_max":243,"o":"m 117 734 l 243 734 l 243 -60 q 185 -236 243 -175 q 24 -296 127 -296 q -14 -294 3 -296 q -52 -285 -32 -292 l -42 -184 q -8 -191 -32 -189 q 24 -193 15 -193 q 93 -158 68 -193 q 117 -60 117 -123 l 117 734 z "},"ʼ":{"ha":278,"x_min":33,"x_max":222,"o":"m 222 1042 l 222 955 q 192 824 222 893 q 104 709 161 755 l 33 759 q 81 851 64 804 q 98 953 98 898 l 98 1042 l 222 1042 z "},"ˉ":{"ha":637,"x_min":97,"x_max":552,"o":"m 552 980 l 552 884 l 97 884 l 97 980 l 552 980 z "},"˳":{"ha":408,"x_min":86,"x_max":319,"o":"m 86 -165 q 121 -83 86 -115 q 204 -52 156 -52 q 285 -83 251 -52 q 319 -165 319 -115 q 285 -245 319 -214 q 204 -275 251 -275 q 121 -245 156 -275 q 86 -165 86 -214 m 145 -165 q 162 -204 145 -188 q 204 -221 180 -221 q 244 -205 227 -221 q 260 -165 260 -189 q 244 -123 260 -140 q 204 -106 227 -106 q 162 -123 180 -106 q 145 -165 145 -140 z "},"̏":{"ha":0,"x_min":-668,"x_max":-170,"o":"m -347 849 l -461 849 l -668 1029 l -515 1029 l -347 849 m -170 849 l -271 849 l -438 1029 l -298 1029 l -170 849 z "},"،":{"ha":377,"x_min":93,"x_max":294,"o":"m 294 364 q 219 278 247 321 q 192 174 192 235 q 259 153 240 174 q 277 90 277 132 q 256 24 277 48 q 193 0 235 0 q 116 30 140 0 q 93 110 93 60 q 136 274 93 202 q 250 399 180 345 l 294 364 z "},"؍":{"ha":569,"x_min":38,"x_max":515,"o":"m 420 1002 l 515 968 l 133 -149 l 38 -115 l 420 1002 z "},"ؐ":{"ha":0,"x_min":84,"x_max":566,"o":"m 94 819 q 115 911 115 855 q 84 1040 115 976 l 142 1060 l 163 997 q 199 950 177 953 q 435 1150 317 1150 q 529 1114 492 1150 q 566 1023 566 1077 q 316 877 566 877 l 298 877 q 223 882 255 877 q 172 897 192 888 q 146 787 171 833 l 94 819 m 315 939 q 505 1021 505 939 q 486 1068 505 1049 q 437 1087 467 1087 q 263 939 358 1087 l 315 939 z "},"ؑ":{"ha":0,"x_min":84,"x_max":517,"o":"m 174 876 q 166 827 174 851 q 146 781 158 804 l 94 813 q 115 905 115 849 q 84 1033 115 969 l 142 1054 l 163 989 q 199 943 176 946 l 264 943 q 237 986 249 963 q 224 1042 224 1008 q 266 1153 224 1106 q 378 1199 307 1199 q 505 1148 454 1199 l 480 1093 q 390 1131 434 1130 q 317 1104 346 1131 q 288 1039 288 1077 q 298 1003 288 1029 q 345 960 307 977 q 351 958 347 960 q 358 958 355 957 l 517 998 l 517 930 q 200 876 343 876 l 174 876 z "},"ؒ":{"ha":0,"x_min":58,"x_max":638,"o":"m 370 686 q 316 684 345 684 q 130 732 201 684 q 58 882 58 780 q 129 1045 58 973 q 336 1147 199 1116 q 323 1152 330 1149 q 302 1161 317 1154 q 239 1185 264 1177 q 201 1194 214 1194 q 159 1182 179 1194 q 125 1152 138 1169 l 115 1138 l 58 1166 l 63 1176 q 123 1238 87 1215 q 201 1261 159 1261 q 254 1251 225 1261 q 315 1225 282 1241 q 413 1183 374 1197 q 484 1168 452 1170 l 479 1105 q 297 1067 378 1097 q 168 991 216 1037 q 121 888 121 945 q 321 749 121 749 q 340 749 331 749 q 359 750 350 749 l 370 686 m 604 1104 q 629 1026 620 1066 q 638 948 638 987 q 589 796 638 865 q 431 701 541 726 l 404 757 q 535 829 496 779 q 575 941 575 878 q 567 1010 575 975 q 543 1082 558 1045 l 604 1104 z "},"ؕ":{"ha":0,"x_min":86,"x_max":524,"o":"m 162 937 q 175 958 168 947 q 187 977 181 968 l 187 1304 l 245 1304 l 245 1060 q 393 1147 315 1147 q 488 1111 452 1147 q 524 1021 524 1075 q 276 876 522 876 l 86 876 l 86 937 l 162 937 m 275 938 q 463 1018 463 938 q 445 1065 463 1046 q 396 1084 426 1084 q 313 1046 357 1084 q 224 937 270 1008 l 275 938 z "},"؛":{"ha":377,"x_min":93,"x_max":294,"o":"m 294 663 q 219 576 247 619 q 192 472 192 534 q 259 451 240 472 q 277 388 277 430 q 256 322 277 347 q 193 298 235 298 q 116 328 140 298 q 93 408 93 358 q 136 572 93 500 q 250 698 180 644 l 294 663 m 98 90 q 125 154 98 127 q 189 181 151 181 q 252 154 226 181 q 279 90 279 127 q 252 26 279 53 q 189 0 226 0 q 125 26 151 0 q 98 90 98 52 z "},"؟":{"ha":591,"x_min":67,"x_max":524,"o":"m 67 696 q 103 819 67 766 q 198 900 140 871 q 324 928 257 928 q 427 910 375 928 q 524 852 479 892 l 472 755 q 403 792 440 781 q 331 804 366 804 q 231 775 273 804 q 189 694 189 746 q 209 636 189 662 q 257 583 229 610 q 315 522 286 555 q 363 440 344 488 q 383 323 383 392 l 383 297 l 270 297 l 270 323 q 250 430 270 389 q 199 498 229 471 q 138 551 169 526 q 87 610 108 576 q 67 696 67 643 m 236 91 q 262 155 236 128 q 326 182 289 182 q 390 155 363 182 q 416 91 416 128 q 390 27 416 54 q 326 1 363 1 q 262 26 289 1 q 236 91 236 52 z "},"ء":{"ha":562,"x_min":63,"x_max":495,"o":"m 205 290 q 228 230 205 263 q 302 168 252 196 q 379 193 348 183 q 437 209 410 202 q 495 220 464 215 l 495 106 q 311 52 411 87 q 81 -54 211 17 l 63 60 q 120 90 98 78 q 186 121 142 101 q 119 205 137 165 q 100 290 100 245 q 129 396 100 347 q 206 473 157 444 q 313 503 254 503 q 399 490 359 503 q 479 448 438 478 l 444 357 q 378 383 407 376 q 321 391 349 391 q 239 360 273 391 q 205 290 205 329 z "},"آ":{"ha":322,"x_min":-109,"x_max":412,"o":"m 229 1019 q 248 1014 238 1014 q 316 1058 267 1014 l 351 1089 l 412 1034 l 374 998 q 312 948 338 964 q 258 932 285 932 q 197 947 232 932 l 109 987 q 92 994 100 991 q 76 997 83 997 q 42 985 61 997 q -9 941 23 972 l -47 902 l -109 958 l -70 998 q 5 1062 -26 1044 q 64 1081 36 1081 q 101 1075 82 1081 q 141 1059 119 1069 l 229 1019 m 218 846 l 218 1 l 104 1 l 104 846 l 218 846 z "},"أ":{"ha":322,"x_min":23,"x_max":291,"o":"m 98 983 q 58 1023 75 1000 q 42 1086 42 1046 q 82 1182 42 1145 q 174 1219 123 1219 q 256 1198 219 1219 l 257 1131 q 218 1144 236 1141 q 184 1147 199 1147 q 130 1129 155 1147 q 105 1078 105 1112 q 126 1037 106 1057 q 185 1022 147 1017 q 188 1023 186 1022 q 192 1024 190 1023 l 281 1057 l 291 989 l 33 887 l 23 954 l 98 983 m 218 846 l 218 1 l 104 1 l 104 846 l 218 846 z "},"ؤ":{"ha":617,"x_min":67,"x_max":550,"o":"m 237 667 q 198 707 214 684 q 182 770 182 730 q 222 866 182 829 q 314 903 262 903 q 396 882 359 903 l 397 814 q 357 828 376 825 q 323 831 339 831 q 270 813 294 831 q 245 762 245 795 q 266 721 245 741 q 325 706 287 701 q 328 707 326 706 q 332 708 330 707 l 421 741 l 431 673 l 172 571 l 163 637 l 237 667 m 550 116 q 115 -363 550 -280 l 75 -256 q 324 -156 231 -226 q 434 18 417 -87 q 374 4 408 10 q 315 -2 340 -2 q 67 208 67 -2 q 82 309 67 258 q 127 402 98 359 q 199 470 157 444 q 296 496 242 496 q 409 464 361 496 q 488 378 456 432 q 534 256 519 323 q 550 116 550 188 m 318 121 q 437 138 378 121 q 395 313 430 252 q 295 374 359 374 q 225 346 250 374 q 191 280 201 318 q 181 212 181 243 q 215 142 181 163 q 318 121 249 121 z "},"إ":{"ha":322,"x_min":19,"x_max":287,"o":"m 94 -311 q 54 -270 71 -293 q 38 -207 38 -247 q 78 -111 38 -149 q 170 -74 119 -74 q 252 -96 215 -74 l 253 -163 q 214 -149 232 -152 q 180 -146 195 -146 q 126 -164 151 -146 q 101 -216 101 -182 q 122 -257 102 -237 q 181 -271 143 -277 q 184 -271 182 -271 q 188 -269 186 -270 l 277 -237 l 287 -304 l 28 -406 l 19 -340 l 94 -311 m 219 934 l 219 1 l 104 1 l 104 934 l 219 934 z "},"ئ":{"ha":980,"x_min":67,"x_max":913,"o":"m 273 541 q 233 581 250 558 q 217 644 217 604 q 257 740 217 703 q 349 777 298 777 q 431 755 394 777 l 432 688 q 393 702 411 699 q 359 705 374 705 q 305 687 330 705 q 280 635 280 669 q 301 594 281 614 q 360 580 322 574 q 363 581 361 580 q 367 582 365 581 l 456 614 l 466 547 l 208 445 l 198 511 l 273 541 m 467 -342 q 233 -289 321 -342 q 106 -146 145 -235 q 67 50 67 -57 q 82 197 67 121 q 123 345 97 273 l 231 301 q 197 173 211 239 q 184 45 184 107 q 210 -88 184 -28 q 298 -184 236 -149 q 467 -220 359 -220 q 640 -196 564 -220 q 760 -134 715 -172 q 804 -53 804 -96 q 791 -12 804 -31 q 744 7 778 7 l 634 7 q 493 55 534 7 q 453 190 453 104 q 490 354 453 279 q 594 474 526 429 q 755 519 662 519 q 829 509 790 519 q 907 473 868 500 l 869 370 q 755 397 815 397 q 620 337 669 397 q 572 190 572 277 q 585 143 572 158 q 637 129 597 129 l 751 129 q 879 78 844 129 q 913 -50 913 28 q 861 -192 913 -125 q 710 -301 810 -259 q 467 -342 611 -342 z "},"ا":{"ha":322,"x_min":104,"x_max":218,"o":"m 218 934 l 218 1 l 104 1 l 104 934 l 218 934 z "},"ب":{"ha":1215,"x_min":67,"x_max":1147,"o":"m 629 -104 l 728 -202 l 629 -300 l 531 -202 l 629 -104 m 738 0 l 580 0 q 196 69 324 0 q 67 309 67 138 q 78 400 67 355 q 105 486 88 445 l 210 447 q 192 383 199 417 q 185 319 185 349 q 230 197 186 239 q 361 139 274 155 q 580 123 449 123 l 739 123 q 835 126 785 123 q 930 141 886 129 q 1002 182 974 153 q 1029 263 1029 211 q 1022 354 1029 301 q 1004 458 1015 406 l 1122 488 q 1141 378 1135 435 q 1147 279 1147 321 q 1116 132 1147 187 q 1029 47 1085 76 q 899 9 973 19 q 738 0 825 0 z "},"ة":{"ha":647,"x_min":67,"x_max":580,"o":"m 231 502 l 205 526 l 277 618 q 434 480 366 545 q 541 355 503 416 q 580 228 580 294 q 509 64 580 125 q 323 3 439 3 q 136 61 205 3 q 67 208 67 119 q 109 355 67 287 q 231 502 151 423 m 465 233 q 442 297 465 264 q 385 363 419 330 q 315 427 351 396 q 218 320 253 367 q 182 221 182 273 q 216 153 182 182 q 323 123 249 123 q 431 151 397 123 q 465 233 465 178 m 418 892 l 513 798 l 418 702 l 323 798 l 418 892 m 193 892 l 288 798 l 193 702 l 98 798 l 193 892 z "},"ت":{"ha":1215,"x_min":67,"x_max":1147,"o":"m 738 0 l 580 0 q 196 69 324 0 q 67 309 67 138 q 78 400 67 355 q 105 486 88 445 l 210 447 q 192 383 199 417 q 185 319 185 349 q 230 197 186 239 q 361 139 274 155 q 580 123 449 123 l 739 123 q 835 126 785 123 q 930 141 886 129 q 1002 182 974 153 q 1029 263 1029 211 q 1022 354 1029 301 q 1004 458 1015 406 l 1122 488 q 1141 378 1135 435 q 1147 279 1147 321 q 1116 132 1147 187 q 1029 47 1085 76 q 899 9 973 19 q 738 0 825 0 m 725 665 l 820 571 l 725 475 l 631 571 l 725 665 m 500 665 l 595 571 l 500 475 l 406 571 l 500 665 z "},"ث":{"ha":1215,"x_min":67,"x_max":1147,"o":"m 738 0 l 580 0 q 196 69 324 0 q 67 309 67 138 q 78 400 67 355 q 105 486 88 445 l 210 447 q 192 383 199 417 q 185 319 185 349 q 230 197 186 239 q 361 139 274 155 q 580 123 449 123 l 739 123 q 835 126 785 123 q 930 141 886 129 q 1002 182 974 153 q 1029 263 1029 211 q 1022 354 1029 301 q 1004 458 1015 406 l 1122 488 q 1141 378 1135 435 q 1147 279 1147 321 q 1116 132 1147 187 q 1029 47 1085 76 q 899 9 973 19 q 738 0 825 0 m 612 781 l 704 689 l 612 597 l 521 689 l 612 781 m 728 609 l 820 517 l 728 426 l 637 517 l 728 609 m 496 609 l 588 517 l 496 426 l 405 517 l 496 609 z "},"ج":{"ha":929,"x_min":62,"x_max":867,"o":"m 847 414 l 847 298 q 501 226 651 282 q 267 83 351 170 q 182 -113 182 -4 q 530 -351 182 -351 q 687 -335 606 -351 q 837 -288 767 -320 l 867 -401 q 705 -451 796 -434 q 519 -469 614 -469 q 287 -432 389 -469 q 126 -317 185 -395 q 68 -119 68 -239 q 124 91 68 -7 q 295 261 181 188 q 582 372 410 334 q 472 416 526 395 q 378 453 418 438 q 321 467 338 467 q 248 446 280 467 q 184 385 215 425 l 165 362 l 62 413 l 72 429 q 181 549 121 508 q 322 589 242 589 q 426 564 364 589 q 559 504 487 538 q 705 443 631 470 q 847 414 779 416 m 554 43 l 652 -56 l 554 -154 l 456 -56 l 554 43 z "},"ح":{"ha":929,"x_min":62,"x_max":867,"o":"m 847 414 l 847 298 q 501 226 651 282 q 267 83 351 170 q 182 -113 182 -4 q 530 -351 182 -351 q 687 -335 606 -351 q 837 -288 767 -320 l 867 -401 q 705 -451 796 -434 q 519 -469 614 -469 q 287 -432 389 -469 q 126 -317 185 -395 q 68 -119 68 -239 q 124 91 68 -7 q 295 261 181 188 q 582 372 410 334 q 472 416 526 395 q 378 453 418 438 q 321 467 338 467 q 248 446 280 467 q 184 385 215 425 l 165 362 l 62 413 l 72 429 q 181 549 121 508 q 322 589 242 589 q 426 564 364 589 q 559 504 487 538 q 705 443 631 470 q 847 414 779 416 z "},"خ":{"ha":929,"x_min":62,"x_max":867,"o":"m 392 892 l 490 793 l 392 695 l 294 793 l 392 892 m 847 414 l 847 298 q 501 226 651 282 q 267 83 351 170 q 182 -113 182 -4 q 530 -351 182 -351 q 687 -335 606 -351 q 837 -288 767 -320 l 867 -401 q 705 -451 796 -434 q 519 -469 614 -469 q 287 -432 389 -469 q 126 -317 185 -395 q 68 -119 68 -239 q 124 91 68 -7 q 295 261 181 188 q 582 372 410 334 q 472 416 526 395 q 378 453 418 438 q 321 467 338 467 q 248 446 280 467 q 184 385 215 425 l 165 362 l 62 413 l 72 429 q 181 549 121 508 q 322 589 242 589 q 426 564 364 589 q 559 504 487 538 q 705 443 631 470 q 847 414 779 416 z "},"د":{"ha":665,"x_min":67,"x_max":597,"o":"m 221 122 q 481 257 481 122 q 416 392 481 321 q 201 545 351 463 l 254 652 q 513 465 429 564 q 597 259 597 366 q 510 66 597 132 q 231 1 422 1 q 67 18 140 1 l 67 140 q 221 122 156 122 z "},"ذ":{"ha":665,"x_min":67,"x_max":597,"o":"m 250 954 l 348 856 l 250 758 l 151 856 l 250 954 m 221 122 q 481 257 481 122 q 416 392 481 321 q 201 545 351 463 l 254 652 q 513 465 429 564 q 597 259 597 366 q 510 66 597 132 q 231 1 422 1 q 67 18 140 1 l 67 140 q 221 122 156 122 z "},"ر":{"ha":475,"x_min":-8,"x_max":407,"o":"m 32 -365 l -8 -257 q 225 -131 157 -221 q 293 81 293 -41 q 280 202 293 139 q 245 332 268 266 l 358 370 q 407 102 407 231 q 367 -108 407 -12 q 244 -272 328 -205 q 32 -365 161 -340 z "},"ز":{"ha":475,"x_min":-8,"x_max":407,"o":"m 280 698 l 378 600 l 280 501 l 182 600 l 280 698 m 32 -365 l -8 -257 q 225 -131 157 -221 q 293 81 293 -41 q 280 202 293 139 q 245 332 268 266 l 358 370 q 407 102 407 231 q 367 -108 407 -12 q 244 -272 328 -205 q 32 -365 161 -340 z "},"س":{"ha":1641,"x_min":67,"x_max":1574,"o":"m 1005 0 q 927 11 960 0 q 873 39 895 22 q 829 -162 872 -75 q 697 -300 787 -250 q 467 -349 608 -349 q 233 -296 321 -349 q 106 -153 145 -242 q 67 43 67 -64 q 82 190 67 115 q 123 338 97 266 l 231 294 q 197 166 211 232 q 184 39 184 100 q 210 -95 184 -35 q 298 -191 236 -155 q 467 -227 359 -227 q 643 -190 581 -227 q 729 -93 705 -153 q 754 35 754 -33 q 732 195 754 116 q 692 323 711 273 l 808 370 l 848 242 q 905 153 867 183 q 1006 123 943 123 q 1104 162 1078 123 q 1130 273 1130 201 q 1128 315 1130 291 q 1123 382 1126 340 l 1236 397 l 1247 255 q 1276 162 1251 200 q 1360 123 1302 123 q 1437 165 1416 123 q 1458 264 1458 208 q 1448 366 1458 315 q 1431 450 1438 418 l 1547 481 q 1567 384 1559 435 q 1574 282 1574 333 q 1554 144 1574 209 q 1487 40 1533 80 q 1360 0 1440 1 q 1255 27 1295 0 q 1190 104 1215 54 q 1106 24 1152 49 q 1005 0 1059 0 z "},"ش":{"ha":1641,"x_min":67,"x_max":1574,"o":"m 1150 892 l 1242 800 l 1150 709 l 1059 800 l 1150 892 m 1266 720 l 1358 629 l 1266 537 l 1175 629 l 1266 720 m 1034 720 l 1126 629 l 1034 537 l 943 629 l 1034 720 m 1005 0 q 927 11 960 0 q 873 39 895 22 q 829 -162 872 -75 q 697 -300 787 -250 q 467 -349 608 -349 q 233 -296 321 -349 q 106 -153 145 -242 q 67 43 67 -64 q 82 190 67 115 q 123 338 97 266 l 231 294 q 197 166 211 232 q 184 39 184 100 q 210 -95 184 -35 q 298 -191 236 -155 q 467 -227 359 -227 q 643 -190 581 -227 q 729 -93 705 -153 q 754 35 754 -33 q 732 195 754 116 q 692 323 711 273 l 808 370 l 848 242 q 905 153 867 183 q 1006 123 943 123 q 1104 162 1078 123 q 1130 273 1130 201 q 1128 315 1130 291 q 1123 382 1126 340 l 1236 397 l 1247 255 q 1276 162 1251 200 q 1360 123 1302 123 q 1437 165 1416 123 q 1458 264 1458 208 q 1448 366 1458 315 q 1431 450 1438 418 l 1547 481 q 1567 384 1559 435 q 1574 282 1574 333 q 1554 144 1574 209 q 1487 40 1533 80 q 1360 0 1440 1 q 1255 27 1295 0 q 1190 104 1215 54 q 1106 24 1152 49 q 1005 0 1059 0 z "},"ص":{"ha":1733,"x_min":67,"x_max":1666,"o":"m 467 -349 q 233 -296 321 -349 q 106 -153 145 -242 q 67 43 67 -64 q 82 190 67 115 q 123 338 97 266 l 231 294 q 197 166 211 232 q 184 39 184 100 q 210 -95 184 -35 q 298 -191 236 -155 q 467 -227 359 -227 q 643 -190 581 -227 q 729 -93 705 -153 q 754 35 754 -33 q 732 195 754 116 q 692 323 711 273 l 808 370 l 848 242 q 884 171 863 197 q 930 144 905 144 q 1168 449 1051 351 q 1401 547 1284 547 q 1538 513 1478 547 q 1632 422 1598 479 q 1666 292 1666 364 q 1541 72 1665 143 q 1165 0 1417 0 l 1129 0 q 976 12 1038 0 q 873 39 914 23 q 829 -162 872 -75 q 697 -300 787 -250 q 467 -349 608 -349 m 1406 423 q 1053 123 1243 423 l 1162 123 q 1451 162 1356 123 q 1546 285 1546 201 q 1508 384 1546 345 q 1406 423 1469 423 z "},"ض":{"ha":1733,"x_min":67,"x_max":1666,"o":"m 1380 877 l 1478 779 l 1380 680 l 1282 779 l 1380 877 m 467 -349 q 233 -296 321 -349 q 106 -153 145 -242 q 67 43 67 -64 q 82 190 67 115 q 123 338 97 266 l 231 294 q 197 166 211 232 q 184 39 184 100 q 210 -95 184 -35 q 298 -191 236 -155 q 467 -227 359 -227 q 643 -190 581 -227 q 729 -93 705 -153 q 754 35 754 -33 q 732 195 754 116 q 692 323 711 273 l 808 370 l 848 242 q 884 171 863 197 q 930 144 905 144 q 1168 449 1051 351 q 1401 547 1284 547 q 1538 513 1478 547 q 1632 422 1598 479 q 1666 292 1666 364 q 1541 72 1665 143 q 1165 0 1417 0 l 1129 0 q 976 12 1038 0 q 873 39 914 23 q 829 -162 872 -75 q 697 -300 787 -250 q 467 -349 608 -349 m 1406 423 q 1053 123 1243 423 l 1162 123 q 1451 162 1356 123 q 1546 285 1546 201 q 1508 384 1546 345 q 1406 423 1469 423 z "},"ط":{"ha":1028,"x_min":67,"x_max":961,"o":"m 224 123 q 252 166 237 145 q 279 209 266 188 l 279 934 l 394 934 l 394 370 q 694 546 540 546 q 834 513 774 546 q 928 424 895 481 q 961 292 961 366 q 836 72 960 143 q 460 0 711 0 l 67 0 l 67 123 l 224 123 m 701 423 q 349 124 538 423 l 458 123 q 746 162 651 123 q 842 285 842 201 q 803 384 842 345 q 701 423 764 423 z "},"ظ":{"ha":1028,"x_min":67,"x_max":961,"o":"m 686 877 l 785 779 l 686 680 l 588 779 l 686 877 m 224 123 q 252 166 237 145 q 279 209 266 188 l 279 934 l 394 934 l 394 370 q 694 546 540 546 q 834 513 774 546 q 928 424 895 481 q 961 292 961 366 q 836 72 960 143 q 460 0 711 0 l 67 0 l 67 123 l 224 123 m 701 423 q 349 124 538 423 l 458 123 q 746 162 651 123 q 842 285 842 201 q 803 384 842 345 q 701 423 764 423 z "},"ع":{"ha":859,"x_min":67,"x_max":792,"o":"m 724 282 l 716 165 q 682 166 693 166 q 659 166 671 166 q 384 133 489 166 q 230 36 278 99 q 182 -113 182 -26 q 223 -252 182 -201 q 333 -324 265 -302 q 479 -346 401 -346 q 628 -330 553 -346 q 761 -291 703 -315 l 792 -404 q 488 -469 650 -469 q 330 -449 406 -469 q 196 -387 255 -429 q 102 -279 136 -345 q 67 -119 67 -212 q 118 72 67 -20 q 294 226 168 163 q 231 322 249 276 q 213 422 213 368 q 251 549 213 490 q 351 644 289 608 q 484 680 413 680 q 715 595 591 680 l 670 495 q 491 557 564 557 q 380 518 428 557 q 332 412 332 479 q 362 327 332 361 q 418 267 391 292 q 538 281 488 276 q 642 286 589 286 q 681 284 666 286 q 724 282 695 283 z "},"غ":{"ha":859,"x_min":67,"x_max":792,"o":"m 460 983 l 558 885 l 460 787 l 361 885 l 460 983 m 724 282 l 716 165 q 682 166 693 166 q 659 166 671 166 q 384 133 489 166 q 230 36 278 99 q 182 -113 182 -26 q 223 -252 182 -201 q 333 -324 265 -302 q 479 -346 401 -346 q 628 -330 553 -346 q 761 -291 703 -315 l 792 -404 q 488 -469 650 -469 q 330 -449 406 -469 q 196 -387 255 -429 q 102 -279 136 -345 q 67 -119 67 -212 q 118 72 67 -20 q 294 226 168 163 q 231 322 249 276 q 213 422 213 368 q 251 549 213 490 q 351 644 289 608 q 484 680 413 680 q 715 595 591 680 l 670 495 q 491 557 564 557 q 380 518 428 557 q 332 412 332 479 q 362 327 332 361 q 418 267 391 292 q 538 281 488 276 q 642 286 589 286 q 681 284 666 286 q 724 282 695 283 z "},"ؽ":{"ha":980,"x_min":67,"x_max":913,"o":"m 433 492 l 378 465 l 294 637 l 210 465 l 154 492 l 258 704 l 330 704 l 433 492 m 467 -342 q 233 -289 321 -342 q 106 -146 145 -235 q 67 50 67 -57 q 82 197 67 121 q 123 345 97 273 l 231 301 q 197 173 211 239 q 184 45 184 107 q 210 -88 184 -28 q 298 -184 236 -149 q 467 -220 359 -220 q 640 -196 564 -220 q 760 -134 715 -172 q 804 -53 804 -96 q 791 -12 804 -31 q 744 7 778 7 l 634 7 q 493 55 534 7 q 453 190 453 104 q 490 354 453 279 q 594 474 526 429 q 755 519 662 519 q 829 509 790 519 q 907 473 868 500 l 869 370 q 755 397 815 397 q 620 337 669 397 q 572 190 572 277 q 585 143 572 158 q 637 129 597 129 l 751 129 q 879 78 844 129 q 913 -50 913 28 q 861 -192 913 -125 q 710 -301 810 -259 q 467 -342 611 -342 z "},"ـ":{"ha":383,"x_min":-14,"x_max":397,"o":"m -14 123 l 397 123 l 397 0 l -14 0 l -14 123 z "},"ف":{"ha":1204,"x_min":67,"x_max":1137,"o":"m 868 1026 l 966 928 l 868 829 l 770 928 l 868 1026 m 1028 264 q 961 249 995 254 q 887 243 926 243 q 656 433 656 243 q 671 531 656 481 q 715 623 686 581 q 786 690 744 665 q 883 715 828 715 q 997 682 949 715 q 1076 590 1045 648 q 1122 461 1107 533 q 1137 312 1137 389 q 1119 149 1137 211 q 1063 55 1102 87 q 961 11 1025 22 q 804 0 897 0 l 580 0 q 194 69 320 0 q 67 309 67 138 q 78 400 67 355 q 105 486 88 445 l 210 447 q 192 383 199 417 q 185 319 185 349 q 231 197 185 239 q 364 139 276 155 q 580 123 452 123 l 812 123 q 940 132 892 123 q 1007 171 987 141 q 1028 264 1028 201 m 896 360 q 958 366 928 360 q 1021 380 989 372 q 1001 478 1015 429 q 958 561 986 528 q 882 595 929 595 q 814 568 840 595 q 778 505 789 542 q 766 437 766 469 q 800 376 766 391 q 896 360 833 360 z "},"ق":{"ha":962,"x_min":67,"x_max":895,"o":"m 737 820 l 832 726 l 737 630 l 643 726 l 737 820 m 512 820 l 607 726 l 512 630 l 418 726 l 512 820 m 467 -300 q 233 -246 321 -300 q 106 -103 145 -193 q 67 92 67 -14 q 82 240 67 164 q 123 387 97 315 l 231 344 q 197 216 211 281 q 184 88 184 150 q 210 -45 184 15 q 298 -142 236 -106 q 467 -178 359 -178 q 712 -110 640 -178 q 783 79 783 -43 q 716 62 748 68 q 642 56 684 56 q 409 246 409 56 q 435 377 409 311 q 512 486 461 442 q 635 529 563 529 q 756 493 707 529 q 836 397 806 458 q 881 262 867 336 q 895 109 895 187 q 787 -196 895 -92 q 467 -300 680 -300 m 646 173 q 710 179 678 173 q 773 193 742 184 q 753 291 768 241 q 710 375 739 341 q 634 408 682 408 q 567 382 593 408 q 530 318 541 355 q 518 251 518 281 q 551 189 518 205 q 646 173 585 173 z "},"ك":{"ha":1223,"x_min":67,"x_max":1120,"o":"m 580 123 l 687 123 q 871 137 806 123 q 965 177 937 151 q 999 243 993 203 q 1005 334 1005 283 l 1005 934 l 1120 934 l 1120 336 q 1107 189 1120 252 q 1053 84 1095 126 q 924 21 1010 42 q 692 0 838 0 l 580 0 q 196 69 325 0 q 67 309 67 138 q 78 400 67 355 q 105 486 88 445 l 210 447 q 192 383 199 417 q 185 319 185 349 q 230 197 186 239 q 361 139 274 155 q 580 123 449 123 m 479 414 q 528 407 498 410 q 588 404 557 404 q 659 411 627 404 q 690 441 690 419 q 671 460 690 454 q 624 473 652 467 q 568 489 596 479 q 522 518 541 499 q 503 571 503 538 q 528 643 503 613 q 590 692 552 673 q 666 721 627 711 q 734 730 705 730 l 739 650 q 672 640 711 650 q 604 613 633 630 q 575 576 575 595 q 594 558 575 564 q 641 547 613 553 q 696 530 669 541 q 741 498 724 519 q 759 444 759 476 q 734 374 759 399 q 670 339 710 349 q 585 330 631 330 q 532 332 559 330 q 479 338 505 334 l 479 414 z "},"ل":{"ha":888,"x_min":67,"x_max":785,"o":"m 785 79 q 694 -236 785 -136 q 427 -336 602 -336 q 221 -291 300 -336 q 104 -165 142 -246 q 67 22 67 -85 q 82 169 67 94 q 123 317 97 245 l 231 273 q 197 145 211 211 q 184 18 184 79 q 240 -153 184 -92 q 427 -214 296 -214 q 609 -148 548 -214 q 671 66 671 -81 l 671 934 l 785 934 l 785 79 z "},"م":{"ha":826,"x_min":67,"x_max":759,"o":"m 241 203 q 341 411 279 335 q 509 486 402 486 q 637 450 581 486 q 726 349 693 413 q 759 201 759 285 q 708 50 759 110 q 552 -11 658 -11 q 471 2 512 -11 q 392 32 430 15 q 323 61 355 48 q 271 74 292 74 q 214 49 233 74 q 188 -35 195 24 q 182 -198 182 -94 q 183 -280 182 -244 q 186 -352 184 -317 q 191 -432 189 -387 l 75 -432 q 69 -315 71 -370 q 67 -205 67 -260 q 72 -60 67 -129 q 93 63 76 8 q 144 155 109 119 q 241 203 180 191 m 644 202 q 607 319 644 272 q 511 366 570 366 q 440 340 469 366 q 391 272 411 314 q 357 181 372 229 q 480 130 431 149 q 553 111 529 111 q 622 136 599 111 q 644 202 644 161 z "},"ن":{"ha":940,"x_min":67,"x_max":873,"o":"m 459 576 l 557 477 l 459 379 l 361 477 l 459 576 m 467 -178 q 643 -141 581 -178 q 729 -44 705 -104 q 754 85 754 16 q 732 244 754 165 q 692 373 711 323 l 808 420 q 856 250 840 332 q 873 93 873 168 q 830 -111 873 -22 q 699 -250 788 -199 q 467 -300 609 -300 q 233 -246 321 -300 q 106 -103 145 -193 q 67 92 67 -14 q 82 240 67 164 q 123 387 97 315 l 231 344 q 197 216 211 281 q 184 88 184 150 q 210 -45 184 15 q 298 -142 236 -106 q 467 -178 359 -178 z "},"ه":{"ha":647,"x_min":67,"x_max":580,"o":"m 231 502 l 205 526 l 277 618 q 434 480 366 545 q 541 355 503 416 q 580 228 580 294 q 509 64 580 125 q 323 3 439 3 q 136 61 205 3 q 67 208 67 119 q 109 355 67 287 q 231 502 151 423 m 465 233 q 442 297 465 264 q 385 363 419 330 q 315 427 351 396 q 218 320 253 367 q 182 221 182 273 q 216 153 182 182 q 323 123 249 123 q 431 151 397 123 q 465 233 465 178 z "},"و":{"ha":617,"x_min":67,"x_max":550,"o":"m 550 116 q 115 -363 550 -280 l 75 -256 q 324 -156 231 -226 q 434 18 417 -87 q 374 4 408 10 q 315 -2 340 -2 q 67 208 67 -2 q 82 309 67 258 q 127 402 98 359 q 199 470 157 444 q 296 496 242 496 q 409 464 361 496 q 488 378 456 432 q 534 256 519 323 q 550 116 550 188 m 318 121 q 437 138 378 121 q 395 313 430 252 q 295 374 359 374 q 225 346 250 374 q 191 280 201 318 q 181 212 181 243 q 215 142 181 163 q 318 121 249 121 z "},"ى":{"ha":980,"x_min":67,"x_max":913,"o":"m 467 -342 q 233 -289 321 -342 q 106 -146 145 -235 q 67 50 67 -57 q 82 197 67 121 q 123 345 97 273 l 231 301 q 197 173 211 239 q 184 45 184 107 q 210 -88 184 -28 q 298 -184 236 -149 q 467 -220 359 -220 q 640 -196 564 -220 q 760 -134 715 -172 q 804 -53 804 -96 q 791 -12 804 -31 q 744 7 778 7 l 634 7 q 493 55 534 7 q 453 190 453 104 q 490 354 453 279 q 594 474 526 429 q 755 519 662 519 q 829 509 790 519 q 907 473 868 500 l 869 370 q 755 397 815 397 q 620 337 669 397 q 572 190 572 277 q 585 143 572 158 q 637 129 597 129 l 751 129 q 879 78 844 129 q 913 -50 913 28 q 861 -192 913 -125 q 710 -301 810 -259 q 467 -342 611 -342 z "},"ي":{"ha":980,"x_min":67,"x_max":913,"o":"m 599 -433 l 694 -528 l 599 -623 l 505 -528 l 599 -433 m 374 -433 l 469 -528 l 374 -623 l 279 -528 l 374 -433 m 467 -342 q 233 -289 321 -342 q 106 -146 145 -235 q 67 50 67 -57 q 82 197 67 121 q 123 345 97 273 l 231 301 q 197 173 211 239 q 184 45 184 107 q 210 -88 184 -28 q 298 -184 236 -149 q 467 -220 359 -220 q 640 -196 564 -220 q 760 -134 715 -172 q 804 -53 804 -96 q 791 -12 804 -31 q 744 7 778 7 l 634 7 q 493 55 534 7 q 453 190 453 104 q 490 354 453 279 q 594 474 526 429 q 755 519 662 519 q 829 509 790 519 q 907 473 868 500 l 869 370 q 755 397 815 397 q 620 337 669 397 q 572 190 572 277 q 585 143 572 158 q 637 129 597 129 l 751 129 q 879 78 844 129 q 913 -50 913 28 q 861 -192 913 -125 q 710 -301 810 -259 q 467 -342 611 -342 z "},"ً":{"ha":0,"x_min":39,"x_max":328,"o":"m 39 833 l 39 898 l 328 1016 l 328 951 l 39 833 m 39 694 l 39 759 l 328 877 l 328 812 l 39 694 z "},"ٌ":{"ha":0,"x_min":3,"x_max":408,"o":"m 355 715 q 253 640 321 669 q 94 609 184 611 l 72 658 q 92 743 92 715 q 58 778 92 778 q 9 768 41 778 l 3 825 q 70 838 40 838 q 142 745 142 838 q 140 709 142 729 q 133 666 138 690 q 221 685 171 671 q 300 728 271 698 q 213 759 253 731 q 173 845 173 787 q 205 923 173 890 q 285 956 237 956 q 365 925 333 956 q 397 844 397 895 q 378 761 397 806 q 408 758 388 760 l 403 711 q 378 713 389 712 q 355 715 368 714 m 324 772 q 337 808 332 789 q 342 844 342 827 q 327 885 342 869 q 288 901 311 901 q 244 882 261 901 q 228 842 228 864 q 257 794 228 808 q 324 772 286 781 z "},"ٍ":{"ha":0,"x_min":40,"x_max":329,"o":"m 40 -293 l 40 -229 l 329 -111 l 329 -175 l 40 -293 m 40 -432 l 40 -368 l 329 -250 l 329 -314 l 40 -432 z "},"َ":{"ha":0,"x_min":44,"x_max":333,"o":"m 44 774 l 44 838 l 333 956 l 333 892 l 44 774 z "},"ُ":{"ha":0,"x_min":13,"x_max":317,"o":"m 312 725 q 288 727 298 726 q 264 729 277 728 q 22 623 195 633 l 13 675 q 133 698 81 682 q 210 741 185 715 q 122 772 162 744 q 82 858 82 800 q 114 936 82 903 q 194 969 146 969 q 274 938 242 969 q 306 857 306 907 q 288 774 306 819 q 317 770 297 772 l 312 725 m 233 785 q 246 821 241 802 q 252 857 252 840 q 236 898 252 882 q 197 913 220 913 q 154 895 170 913 q 137 855 137 877 q 166 807 137 821 q 233 785 195 793 z "},"ِ":{"ha":0,"x_min":39,"x_max":328,"o":"m 39 -342 l 39 -278 l 328 -160 l 328 -224 l 39 -342 z "},"ّ":{"ha":0,"x_min":16,"x_max":391,"o":"m 233 886 q 237 828 235 858 q 251 779 239 799 q 290 760 262 760 q 321 777 313 760 q 329 820 329 795 q 325 865 329 842 q 317 907 321 888 l 378 920 q 391 831 391 876 q 367 733 391 770 q 288 696 342 696 q 250 704 271 696 q 214 735 228 712 q 173 681 203 695 q 111 666 143 666 q 39 701 62 666 q 16 787 16 736 q 25 857 16 821 l 80 848 q 73 795 73 820 q 83 751 73 770 q 119 733 93 733 q 171 765 163 733 q 178 859 178 796 l 178 879 l 233 886 z "},"ْ":{"ha":0,"x_min":28,"x_max":266,"o":"m 28 788 q 63 872 28 837 q 147 907 98 907 q 231 872 196 907 q 266 788 266 837 q 231 704 266 739 q 147 669 196 669 q 63 704 98 669 q 28 788 28 739 m 83 788 q 101 743 83 761 q 147 724 120 724 q 193 743 174 724 q 211 788 211 761 q 193 834 211 815 q 147 853 174 853 q 101 834 120 853 q 83 788 83 815 z "},"ٓ":{"ha":0,"x_min":-9,"x_max":447,"o":"m 154 821 q 119 805 141 821 q 75 770 96 789 q 41 738 53 750 l -9 783 q 39 830 10 804 q 98 875 67 856 q 151 895 128 895 q 194 880 167 895 q 251 849 222 865 q 300 834 280 834 q 331 846 313 834 q 368 874 349 858 q 397 901 386 890 l 447 857 q 403 816 429 838 q 351 777 378 793 q 303 761 325 761 q 259 776 288 761 q 200 806 230 791 q 154 821 171 821 z "},"ٔ":{"ha":0,"x_min":25,"x_max":293,"o":"m 100 723 q 60 764 77 741 q 44 827 44 787 q 84 922 44 885 q 176 960 125 960 q 258 938 221 960 l 259 871 q 220 884 238 882 q 186 887 201 887 q 132 869 157 887 q 107 818 107 852 q 129 777 108 797 q 187 762 149 757 q 190 763 189 762 q 194 764 192 764 l 283 797 l 293 730 l 35 627 l 25 694 l 100 723 z "},"ٕ":{"ha":0,"x_min":11,"x_max":279,"o":"m 85 -279 q 46 -239 62 -262 q 30 -176 30 -216 q 70 -80 30 -117 q 162 -43 111 -43 q 244 -64 207 -43 l 245 -132 q 205 -118 224 -121 q 172 -115 187 -115 q 118 -133 142 -115 q 93 -184 93 -151 q 114 -225 94 -205 q 173 -240 135 -245 q 176 -239 174 -240 q 180 -238 178 -239 l 269 -205 l 279 -273 l 20 -375 l 11 -309 l 85 -279 z "},"ٖ":{"ha":0,"x_min":43,"x_max":104,"o":"m 43 -265 l 43 -19 l 104 -19 l 104 -265 l 43 -265 z "},"ٗ":{"ha":0,"x_min":59,"x_max":363,"o":"m 64 926 q 89 925 79 926 q 113 922 100 924 q 355 1028 182 1019 l 363 976 q 243 953 296 970 q 167 911 191 937 q 254 880 214 907 q 294 793 294 852 q 262 715 294 748 q 182 682 231 682 q 102 713 134 682 q 71 794 71 744 q 89 878 71 832 q 59 881 79 879 l 64 926 m 143 867 q 131 830 136 850 q 125 795 125 811 q 141 754 125 770 q 180 738 157 738 q 223 756 206 738 q 239 796 239 774 q 211 844 239 831 q 143 867 182 858 z "},"٘":{"ha":0,"x_min":43,"x_max":381,"o":"m 381 876 q 333 747 374 800 q 212 693 291 693 q 92 747 134 693 q 43 876 51 800 l 113 876 q 141 795 119 827 q 212 763 163 763 q 283 795 262 763 q 311 876 304 827 l 381 876 z "},"ٚ":{"ha":0,"x_min":254,"x_max":534,"o":"m 359 998 l 254 1209 l 310 1236 l 394 1064 l 479 1236 l 534 1209 l 430 998 l 359 998 z "},"ٛ":{"ha":0,"x_min":254,"x_max":534,"o":"m 534 998 l 479 971 l 394 1143 l 310 971 l 254 998 l 359 1210 l 430 1210 l 534 998 z "},"٠":{"ha":523,"x_min":121,"x_max":402,"o":"m 262 191 l 121 332 l 260 472 l 402 332 l 262 191 z "},"١":{"ha":401,"x_min":66,"x_max":296,"o":"m 296 0 l 180 0 l 180 154 q 156 556 180 381 q 66 868 133 731 l 174 907 q 271 563 245 747 q 296 152 296 378 l 296 0 z "},"٢":{"ha":727,"x_min":66,"x_max":660,"o":"m 655 897 q 659 849 657 873 q 660 802 660 825 q 638 648 660 716 q 564 539 616 579 q 418 500 511 500 q 355 504 392 500 q 277 519 318 507 q 294 328 292 418 q 296 152 296 237 l 296 0 l 180 0 l 180 154 q 156 556 180 381 q 66 868 133 731 l 173 906 q 202 832 189 864 q 230 759 215 801 q 301 647 260 676 q 417 618 342 618 q 499 642 471 618 q 538 702 528 665 q 549 779 549 739 q 546 836 549 809 q 538 887 543 863 l 655 897 z "},"٣":{"ha":915,"x_min":66,"x_max":848,"o":"m 654 500 q 568 518 609 500 q 503 581 526 537 q 437 519 479 538 q 363 500 395 500 q 322 502 340 500 q 279 512 304 503 q 290 376 286 434 q 295 265 294 317 q 296 152 296 212 l 296 0 l 180 0 l 180 154 q 156 556 180 381 q 66 868 133 731 l 173 906 q 208 814 194 852 q 242 728 222 776 q 283 652 260 684 q 355 618 306 619 q 427 648 404 618 q 450 772 450 678 l 451 859 l 559 863 l 562 784 q 587 653 566 687 q 653 618 608 618 q 704 641 686 618 q 730 700 722 664 q 737 775 737 736 q 734 834 737 805 q 727 887 731 864 l 844 897 q 848 808 848 852 q 830 656 848 727 q 771 543 813 586 q 654 500 729 500 z "},"٤":{"ha":644,"x_min":71,"x_max":585,"o":"m 276 476 q 162 532 205 488 q 119 656 119 577 q 159 782 119 730 q 268 861 199 833 q 425 888 336 888 q 461 888 444 888 q 497 884 478 887 l 492 766 q 460 768 476 768 q 429 769 444 769 q 291 741 345 769 q 237 659 237 712 q 291 581 237 602 q 453 560 345 560 l 467 448 q 295 369 355 410 q 213 289 235 329 q 191 212 191 250 q 246 140 191 162 q 387 119 301 119 q 483 125 437 119 q 570 144 528 132 l 585 20 q 387 0 483 0 q 158 51 245 0 q 71 210 71 101 q 276 476 71 364 z "},"٥":{"ha":735,"x_min":71,"x_max":664,"o":"m 368 0 q 141 81 210 0 q 71 294 71 163 q 81 396 71 337 q 113 517 91 455 q 169 632 134 578 q 253 718 203 685 q 368 751 302 751 q 482 718 433 751 q 566 632 531 685 q 622 517 600 578 q 654 396 644 455 q 664 294 664 337 q 594 81 664 163 q 368 0 524 0 m 368 633 q 294 606 325 633 q 242 537 263 579 q 210 447 222 494 q 192 359 197 400 q 186 294 186 317 q 227 167 186 215 q 368 119 267 119 q 509 167 469 119 q 549 294 549 215 q 543 359 549 317 q 525 447 538 400 q 492 537 513 494 q 440 606 471 579 q 368 633 410 633 z "},"٦":{"ha":680,"x_min":65,"x_max":569,"o":"m 290 728 q 171 738 225 728 q 65 762 117 747 l 65 884 q 177 859 119 869 q 297 850 235 850 q 421 860 363 850 q 536 885 479 869 l 555 872 q 539 665 545 770 q 534 457 534 561 q 542 225 534 336 q 569 0 551 113 l 442 0 q 424 196 429 103 q 419 389 419 289 q 422 564 419 476 q 431 745 426 652 q 359 732 386 736 q 290 728 332 728 z "},"٧":{"ha":818,"x_min":55,"x_max":763,"o":"m 351 0 q 272 348 323 184 q 163 641 221 512 q 55 848 104 769 l 161 906 q 228 775 192 851 q 298 609 263 699 q 363 424 334 519 q 409 236 392 328 q 454 424 425 328 q 519 609 484 519 q 590 775 554 699 q 656 906 626 851 l 763 848 q 655 641 714 769 q 546 348 597 512 q 467 0 495 184 l 351 0 z "},"٨":{"ha":818,"x_min":55,"x_max":763,"o":"m 351 879 l 467 879 q 546 531 495 694 q 655 238 597 367 q 763 31 714 110 l 656 -27 q 590 104 626 28 q 519 270 554 180 q 454 455 484 360 q 409 643 425 551 q 363 455 392 551 q 298 270 334 360 q 228 104 263 180 q 161 -27 192 28 l 55 31 q 163 238 104 110 q 272 531 221 367 q 351 879 323 694 z "},"٩":{"ha":669,"x_min":63,"x_max":560,"o":"m 319 417 q 128 462 193 417 q 63 624 63 507 q 78 720 63 671 q 122 810 93 768 q 194 878 151 852 q 294 904 237 904 q 441 854 387 904 q 520 710 496 804 q 547 480 545 615 q 550 372 549 433 q 552 245 551 311 q 556 115 554 178 q 560 0 558 51 l 444 0 q 441 116 442 52 q 438 243 439 180 q 437 357 437 306 q 435 433 436 408 q 380 422 415 427 q 319 417 346 417 m 315 534 q 382 539 349 534 q 431 551 415 545 q 415 668 429 614 q 372 754 401 722 q 292 787 342 787 q 223 758 249 787 q 187 691 198 729 q 176 624 176 652 q 208 554 176 574 q 315 534 239 534 z "},"٪":{"ha":682,"x_min":96,"x_max":587,"o":"m 496 902 l 587 861 l 187 -10 l 96 31 l 496 902 m 103 777 q 130 841 103 814 q 195 868 157 868 q 259 841 233 868 q 286 777 286 814 q 259 712 286 739 q 195 685 233 685 q 130 711 157 685 q 103 777 103 737 m 404 126 q 431 191 404 164 q 495 218 458 218 q 560 191 533 218 q 587 126 587 164 q 560 62 587 89 q 495 35 533 35 q 431 61 457 35 q 404 126 404 87 z "},"٫":{"ha":587,"x_min":49,"x_max":503,"o":"m 417 480 l 503 440 l 137 -301 l 49 -260 l 417 480 z "},"٬":{"ha":361,"x_min":53,"x_max":237,"o":"m 127 22 l 127 138 l 237 138 l 237 37 q 217 -66 237 -16 q 167 -157 197 -116 q 106 -222 137 -197 l 53 -178 q 106 -85 85 -133 q 127 22 127 -37 z "},"٭":{"ha":891,"x_min":116,"x_max":776,"o":"m 367 637 l 446 877 l 525 637 l 776 637 l 573 489 l 650 250 l 446 397 l 241 250 l 319 489 l 116 637 l 367 637 z "},"ٮ":{"ha":1215,"x_min":67,"x_max":1147,"o":"m 738 0 l 580 0 q 196 69 324 0 q 67 309 67 138 q 78 400 67 355 q 105 486 88 445 l 210 447 q 192 383 199 417 q 185 319 185 349 q 230 197 186 239 q 361 139 274 155 q 580 123 449 123 l 739 123 q 835 126 785 123 q 930 141 886 129 q 1002 182 974 153 q 1029 263 1029 211 q 1022 354 1029 301 q 1004 458 1015 406 l 1122 488 q 1141 378 1135 435 q 1147 279 1147 321 q 1116 132 1147 187 q 1029 47 1085 76 q 899 9 973 19 q 738 0 825 0 z "},"ٯ":{"ha":962,"x_min":67,"x_max":895,"o":"m 467 -300 q 233 -246 321 -300 q 106 -103 145 -193 q 67 92 67 -14 q 82 240 67 164 q 123 387 97 315 l 231 344 q 197 216 211 281 q 184 88 184 150 q 210 -45 184 15 q 298 -142 236 -106 q 467 -178 359 -178 q 712 -110 640 -178 q 783 79 783 -43 q 716 62 748 68 q 642 56 684 56 q 409 246 409 56 q 435 377 409 311 q 512 486 461 442 q 635 529 563 529 q 756 493 707 529 q 836 397 806 458 q 881 262 867 336 q 895 109 895 187 q 787 -196 895 -92 q 467 -300 680 -300 m 646 173 q 710 179 678 173 q 773 193 742 184 q 753 291 768 241 q 710 375 739 341 q 634 408 682 408 q 567 382 593 408 q 530 318 541 355 q 518 251 518 281 q 551 189 518 205 q 646 173 585 173 z "},"ٰ":{"ha":0,"x_min":43,"x_max":104,"o":"m 43 753 l 43 999 l 104 999 l 104 753 l 43 753 z "},"ٱ":{"ha":322,"x_min":-35,"x_max":348,"o":"m 218 846 l 218 1 l 104 1 l 104 846 l 218 846 m -35 959 l -23 1015 q 0 996 -14 1008 q 27 980 15 985 q 126 1113 82 1073 q 224 1154 171 1154 q 313 1120 279 1154 q 348 1035 348 1086 q 300 940 348 967 q 136 913 253 913 l 119 913 q 19 924 58 913 q -35 959 -20 935 m 135 971 q 257 983 222 971 q 291 1032 291 995 q 274 1076 291 1059 q 228 1094 256 1094 q 161 1066 191 1094 q 87 971 131 1038 l 135 971 z "},"ٴ":{"ha":378,"x_min":71,"x_max":338,"o":"m 145 847 q 106 888 122 865 q 90 951 90 911 q 130 1046 90 1009 q 222 1084 170 1084 q 304 1062 267 1084 l 304 995 q 265 1008 283 1006 q 231 1011 247 1011 q 177 994 202 1011 q 153 942 153 976 q 174 901 153 921 q 233 886 195 881 q 236 887 234 886 q 239 888 237 888 l 329 921 l 338 854 l 80 751 l 71 818 l 145 847 z "},"ٹ":{"ha":1215,"x_min":67,"x_max":1147,"o":"m 492 544 q 502 560 498 552 q 511 575 507 568 l 511 873 l 576 873 l 576 665 q 636 713 605 695 q 703 732 667 732 q 792 698 757 732 q 827 612 827 664 q 598 476 826 476 l 420 476 l 420 544 l 492 544 m 597 545 q 721 562 682 545 q 760 610 760 579 q 745 649 760 634 q 706 663 731 663 q 637 631 673 663 q 562 544 600 600 l 597 545 m 738 0 l 580 0 q 196 69 324 0 q 67 309 67 138 q 78 400 67 355 q 105 486 88 445 l 210 447 q 192 383 199 417 q 185 319 185 349 q 230 197 186 239 q 361 139 274 155 q 580 123 449 123 l 739 123 q 835 126 785 123 q 930 141 886 129 q 1002 182 974 153 q 1029 263 1029 211 q 1022 354 1029 301 q 1004 458 1015 406 l 1122 488 q 1141 378 1135 435 q 1147 279 1147 321 q 1116 132 1147 187 q 1029 47 1085 76 q 899 9 973 19 q 738 0 825 0 z "},"ټ":{"ha":1215,"x_min":67,"x_max":1147,"o":"m 738 0 l 580 0 q 196 69 324 0 q 67 309 67 138 q 78 400 67 355 q 105 486 88 445 l 210 447 q 192 383 199 417 q 185 319 185 349 q 230 197 186 239 q 361 139 274 155 q 580 123 449 123 l 739 123 q 835 126 785 123 q 930 141 886 129 q 1002 182 974 153 q 1029 263 1029 211 q 1022 354 1029 301 q 1004 458 1015 406 l 1122 488 q 1141 378 1135 435 q 1147 279 1147 321 q 1116 132 1147 187 q 1029 47 1085 76 q 899 9 973 19 q 738 0 825 0 m 725 665 l 820 571 l 725 475 l 631 571 l 725 665 m 500 665 l 595 571 l 500 475 l 406 571 l 500 665 m 490 -64 q 527 24 490 -13 q 615 60 564 60 q 703 24 667 60 q 740 -64 740 -13 q 703 -153 740 -116 q 615 -190 667 -190 q 527 -153 564 -190 q 490 -64 490 -116 m 551 -64 q 569 -110 551 -92 q 615 -128 588 -128 q 661 -110 642 -128 q 679 -64 679 -92 q 661 -19 679 -37 q 615 0 642 0 q 569 -19 588 0 q 551 -64 551 -37 z "},"پ":{"ha":1215,"x_min":67,"x_max":1147,"o":"m 745 -85 l 837 -177 l 745 -269 l 654 -177 l 745 -85 m 513 -85 l 605 -177 l 513 -269 l 422 -177 l 513 -85 m 629 -257 l 721 -349 l 629 -440 l 538 -349 l 629 -257 m 738 0 l 580 0 q 196 69 324 0 q 67 309 67 138 q 78 400 67 355 q 105 486 88 445 l 210 447 q 192 383 199 417 q 185 319 185 349 q 230 197 186 239 q 361 139 274 155 q 580 123 449 123 l 739 123 q 835 126 785 123 q 930 141 886 129 q 1002 182 974 153 q 1029 263 1029 211 q 1022 354 1029 301 q 1004 458 1015 406 l 1122 488 q 1141 378 1135 435 q 1147 279 1147 321 q 1116 132 1147 187 q 1029 47 1085 76 q 899 9 973 19 q 738 0 825 0 z "}}}
